{
.appVersion = "1286";
DisplayStrings = (
"µ-/trademark/endash/quotedblbase/quotesinglbase/dcaron ­«/ellipsis/IJ/Eng/lcaron <»/perthousand/gravecomb/tcaron/acutecomb",
",*.# !\012OÒÓÔÕÖoö/endash/quotedblbase/quotesinglbase/dcaron/florin ¡«/ellipsis/bullet 98/ij 54761032/lcaron ?{»¿ó/gravecomb/hbar ôõò/tcaron/acutecomb/dcroat",

glyphs = (
{
color = 3;
glyphname = .notdef;
lastChange = "2020-02-14 16:04:55 +0000";
layers = (
{
background = {
paths = (
{
closed = 1;
nodes = (
"-999 -326 LINE",
"-999 -207 LINE",
"-1221 -207 LINE",
"-1221 1315 LINE",
"-999 1315 LINE",
"-999 1434 LINE",
"-1367 1434 LINE",
"-1367 -326 LINE"
);
},
{
closed = 1;
nodes = (
"-642 1434 LINE",
"-1010 1434 LINE",
"-1010 1315 LINE",
"-788 1315 LINE",
"-788 -207 LINE",
"-1010 -207 LINE",
"-1010 -326 LINE",
"-642 -326 LINE"
);
},
{
closed = 1;
nodes = (
"-332 -1 LINE",
"-332 1409 LINE",
"-1367 1409 LINE",
"-1367 -1 LINE"
);
},
{
closed = 1;
nodes = (
"-1251 1290 LINE",
"-448 1290 LINE",
"-448 118 LINE",
"-1251 118 LINE"
);
},
{
closed = 1;
nodes = (
"-857 627 LINE",
"-619 355 LINE",
"-553 430 LINE",
"-791 701 LINE",
"-553 973 LINE",
"-619 1048 LINE",
"-857 776 LINE",
"-1094 1048 LINE",
"-1159 973 LINE",
"-921 701 LINE",
"-1159 430 LINE",
"-1094 355 LINE"
);
},
{
closed = 1;
nodes = (
"-332 -1 LINE",
"-332 1409 LINE",
"-1367 1409 LINE",
"-1367 -1 LINE"
);
},
{
closed = 1;
nodes = (
"-1251 1290 LINE",
"-448 1290 LINE",
"-448 118 LINE",
"-1251 118 LINE"
);
},
{
closed = 1;
nodes = (
"-857 627 LINE",
"-619 385 LINE",
"-553 460 LINE",
"-791 701 LINE",
"-553 943 LINE",
"-619 1018 LINE",
"-857 776 LINE",
"-1094 1028 LINE",
"-1159 953 LINE",
"-921 701 LINE",
"-1159 460 LINE",
"-1094 385 LINE"
);
},
{
closed = 1;
nodes = (
"1321 19 LINE",
"1321 1349 LINE",
"180 1349 LINE",
"180 19 LINE"
);
},
{
closed = 1;
nodes = (
"299 1233 LINE",
"1202 1233 LINE",
"1202 135 LINE",
"299 135 LINE"
);
},
{
closed = 1;
nodes = (
"707 658 LINE",
"981 365 LINE",
"1053 431 LINE",
"773 721 LINE",
"506 1008 LINE",
"434 941 LINE"
);
},
{
closed = 1;
nodes = (
"1053 941 LINE",
"981 1008 LINE",
"712 721 LINE",
"434 432 LINE",
"506 365 LINE",
"776 661 LINE"
);
}
);
};
guideLines = (
{
position = "{667, 385}";
},
{
position = "{668, 1120}";
}
);
layerId = "90678D68-BBCC-4545-9AE9-72D37A9CD052";
paths = (
{
closed = 1;
nodes = (
"1321 29 LINE",
"1321 1349 LINE",
"180 1349 LINE",
"180 29 LINE"
);
},
{
closed = 1;
nodes = (
"268 1266 LINE",
"1233 1266 LINE",
"1233 112 LINE",
"268 112 LINE"
);
},
{
closed = 1;
nodes = (
"1055 427 LINE",
"769 722 LINE",
"497 1015 LINE",
"432 955 LINE",
"711 667 LINE",
"990 368 LINE"
);
},
{
closed = 1;
nodes = (
"773 669 LINE",
"1055 955 LINE",
"990 1015 LINE",
"715 723 LINE",
"432 428 LINE",
"497 368 LINE"
);
}
);
width = 1501;
},
{
background = {
paths = (
{
closed = 1;
nodes = (
"1321 29 LINE",
"1321 1349 LINE",
"180 1349 LINE",
"180 29 LINE"
);
},
{
closed = 1;
nodes = (
"706 662 LINE",
"986 364 LINE",
"1059 431 LINE",
"774 727 LINE",
"501 1019 LINE",
"428 951 LINE"
);
},
{
closed = 1;
nodes = (
"1059 951 LINE",
"986 1019 LINE",
"711 727 LINE",
"428 432 LINE",
"501 364 LINE",
"777 665 LINE"
);
},
{
closed = 1;
nodes = (
"287 1244 LINE",
"1214 1244 LINE",
"1214 134 LINE",
"287 134 LINE"
);
}
);
};
layerId = "4CDE908C-C807-45B0-BC73-FFDEB9F34183";
paths = (
{
closed = 1;
nodes = (
"1321 29 LINE",
"1321 1349 LINE",
"180 1349 LINE",
"180 29 LINE"
);
},
{
closed = 1;
nodes = (
"268 1266 LINE",
"1233 1266 LINE",
"1233 112 LINE",
"268 112 LINE"
);
},
{
closed = 1;
nodes = (
"1055 427 LINE",
"769 722 LINE",
"497 1015 LINE",
"432 955 LINE",
"711 667 LINE",
"990 368 LINE"
);
},
{
closed = 1;
nodes = (
"773 669 LINE",
"1055 955 LINE",
"990 1015 LINE",
"715 723 LINE",
"432 428 LINE",
"497 368 LINE"
);
}
);
width = 1501;
},
{
background = {
paths = (
{
closed = 1;
nodes = (
"577 -326 LINE",
"577 -125 LINE",
"368 -125 LINE",
"368 1233 LINE",
"577 1233 LINE",
"577 1434 LINE",
"108 1434 LINE",
"108 -326 LINE"
);
},
{
closed = 1;
nodes = (
"1047 1434 LINE",
"578 1434 LINE",
"578 1233 LINE",
"787 1233 LINE",
"787 -125 LINE",
"578 -125 LINE",
"578 -326 LINE",
"1047 -326 LINE"
);
}
);
};
layerId = "7FD739B0-27A2-4428-8CD0-260441CCC696";
paths = (
{
closed = 1;
nodes = (
"1321 29 LINE",
"1321 1349 LINE",
"180 1349 LINE",
"180 29 LINE"
);
},
{
closed = 1;
nodes = (
"268 1266 LINE",
"1233 1266 LINE",
"1233 112 LINE",
"268 112 LINE"
);
},
{
closed = 1;
nodes = (
"1055 427 LINE",
"769 722 LINE",
"497 1015 LINE",
"432 955 LINE",
"711 667 LINE",
"990 368 LINE"
);
},
{
closed = 1;
nodes = (
"773 669 LINE",
"1055 955 LINE",
"990 1015 LINE",
"715 723 LINE",
"432 428 LINE",
"497 368 LINE"
);
}
);
width = 1501;
}
);
userData = {
com.typemytype.robofont.layerData = {
SegoeUI = {
anchors = (
);
components = (
);
contours = (
{
points = (
{
segmentType = line;
smooth = 0;
x = 1156;
y = 0;
},
{
segmentType = line;
smooth = 0;
x = 1156;
y = 1398;
},
{
segmentType = line;
smooth = 0;
x = 166;
y = 1398;
},
{
segmentType = line;
smooth = 0;
x = 166;
y = 0;
}
);
},
{
points = (
{
segmentType = line;
smooth = 0;
x = 314;
y = 1250;
},
{
segmentType = line;
smooth = 0;
x = 1008;
y = 1250;
},
{
segmentType = line;
smooth = 0;
x = 1008;
y = 148;
},
{
segmentType = line;
smooth = 0;
x = 314;
y = 148;
}
);
}
);
lib = {
};
name = .notdef;
unicodes = (
);
width = 1322;
};
guidelines = {
anchors = (
);
components = (
);
contours = (
);
lib = {
};
name = .notdef;
unicodes = (
);
width = 1322;
};
};
};
},
{
color = 5;
glyphname = A;
lastChange = "2020-02-12 16:08:13 +0000";
layers = (
{
anchors = (
{
name = bottom;
position = "{661, 0}";
},
{
name = ogonek;
position = "{1300, 2}";
},
{
name = top;
position = "{661, 1434}";
}
);
background = {
anchors = (
{
name = bottom;
position = "{661, 0}";
},
{
name = ogonek;
position = "{1189, 10}";
},
{
name = top;
position = "{661, 1384}";
}
);
paths = (
{
closed = 1;
nodes = (
"211 0 LINE",
"631 1164 LINE",
"636 1176 OFFCURVE",
"652 1238 OFFCURVE",
"655 1260 CURVE",
"659 1260 LINE",
"663 1238 OFFCURVE",
"679 1174 OFFCURVE",
"682 1164 CURVE",
"1114 0 LINE",
"1300 0 LINE",
"748 1434 LINE",
"574 1434 LINE",
"24 0 LINE"
);
},
{
closed = 1;
nodes = (
"1053 312 LINE",
"1053 463 LINE",
"263 463 LINE",
"263 312 LINE"
);
}
);
};
layerId = "90678D68-BBCC-4545-9AE9-72D37A9CD052";
paths = (
{
closed = 1;
nodes = (
"211 0 LINE",
"631 1164 LINE",
"636 1176 OFFCURVE",
"652 1238 OFFCURVE",
"655 1260 CURVE",
"659 1260 LINE",
"663 1238 OFFCURVE",
"679 1174 OFFCURVE",
"682 1164 CURVE",
"1114 0 LINE",
"1300 0 LINE",
"748 1434 LINE",
"574 1434 LINE",
"24 0 LINE"
);
},
{
closed = 1;
nodes = (
"1053 312 LINE",
"1053 463 LINE",
"263 463 LINE",
"263 312 LINE"
);
}
);
width = 1321;
},
{
anchors = (
{
name = bottom;
position = "{644, 0}";
},
{
name = ogonek;
position = "{1229, 0}";
},
{
name = top;
position = "{654, 1434}";
}
);
background = {
anchors = (
{
name = bottom;
position = "{644, 0}";
},
{
name = ogonek;
position = "{1159, 10}";
},
{
name = top;
position = "{644, 1384}";
}
);
paths = (
{
closed = 1;
nodes = (
"169 0 LINE",
"618 1220 LINE",
"623 1232 OFFCURVE",
"639 1296 OFFCURVE",
"642 1316 CURVE",
"646 1316 LINE",
"650 1294 OFFCURVE",
"666 1230 OFFCURVE",
"669 1220 CURVE",
"1114 0 LINE",
"1229 0 LINE",
"692 1434 LINE",
"599 1434 LINE",
"59 0 LINE"
);
},
{
closed = 1;
nodes = (
"1023 341 LINE",
"1023 433 LINE",
"263 433 LINE",
"263 341 LINE"
);
}
);
};
layerId = "4CDE908C-C807-45B0-BC73-FFDEB9F34183";
paths = (
{
closed = 1;
nodes = (
"169 0 LINE",
"618 1220 LINE",
"623 1232 OFFCURVE",
"639 1296 OFFCURVE",
"642 1316 CURVE",
"646 1316 LINE",
"650 1294 OFFCURVE",
"666 1230 OFFCURVE",
"669 1220 CURVE",
"1114 0 LINE",
"1229 0 LINE",
"692 1434 LINE",
"599 1434 LINE",
"59 0 LINE"
);
},
{
closed = 1;
nodes = (
"1023 341 LINE",
"1023 433 LINE",
"263 433 LINE",
"263 341 LINE"
);
}
);
width = 1288;
},
{
anchors = (
{
name = bottom;
position = "{720, 0}";
},
{
name = ogonek;
position = "{1425, 2}";
},
{
name = top;
position = "{720, 1434}";
}
);
background = {
anchors = (
{
name = bottom;
position = "{720, 0}";
},
{
name = ogonek;
position = "{1296, 10}";
},
{
name = top;
position = "{720, 1384}";
}
);
paths = (
{
closed = 1;
nodes = (
"348 0 LINE",
"688 1073 LINE",
"693 1085 OFFCURVE",
"709 1149 OFFCURVE",
"712 1169 CURVE",
"716 1169 LINE",
"720 1147 OFFCURVE",
"736 1083 OFFCURVE",
"739 1073 CURVE",
"1080 0 LINE",
"1425 0 LINE",
"914 1434 LINE",
"532 1434 LINE",
"10 0 LINE"
);
},
{
closed = 1;
nodes = (
"1168 260 LINE",
"1168 496 LINE",
"346 496 LINE",
"346 260 LINE"
);
}
);
};
layerId = "7FD739B0-27A2-4428-8CD0-260441CCC696";
paths = (
{
closed = 1;
nodes = (
"348 0 LINE",
"688 1073 LINE",
"693 1085 OFFCURVE",
"709 1149 OFFCURVE",
"712 1169 CURVE",
"716 1169 LINE",
"720 1147 OFFCURVE",
"736 1083 OFFCURVE",
"739 1073 CURVE",
"1080 0 LINE",
"1425 0 LINE",
"914 1434 LINE",
"532 1434 LINE",
"10 0 LINE"
);
},
{
closed = 1;
nodes = (
"1118 260 LINE",
"1118 496 LINE",
"318 496 LINE",
"318 260 LINE"
);
}
);
width = 1440;
}
);
unicode = 0041;
},
{
color = 5;
glyphname = B;
lastChange = "2020-01-31 06:12:54 +0000";
layers = (
{
anchors = (
{
name = bottom;
position = "{587, 0}";
},
{
name = top;
position = "{587, 1434}";
}
);
background = {
anchors = (
{
name = bottom;
position = "{587, 0}";
},
{
name = top;
position = "{587, 1434}";
}
);
paths = (
{
closed = 1;
nodes = (
"867 0 OFFCURVE",
"1071 158 OFFCURVE",
"1071 412 CURVE SMOOTH",
"1071 605 OFFCURVE",
"949 741 OFFCURVE",
"752 763 CURVE",
"752 767 LINE",
"896 818 OFFCURVE",
"980 943 OFFCURVE",
"980 1107 CURVE SMOOTH",
"980 1316 OFFCURVE",
"816 1435 OFFCURVE",
"596 1435 CURVE SMOOTH",
"188 1435 LINE",
"188 1 LINE",
"606 0 LINE SMOOTH"
);
},
{
closed = 1;
nodes = (
"358 669 LINE",
"550 669 LINE SMOOTH",
"757 669 OFFCURVE",
"897 602 OFFCURVE",
"897 415 CURVE SMOOTH",
"897 240 OFFCURVE",
"772 153 OFFCURVE",
"586 153 CURVE SMOOTH",
"358 153 LINE"
);
},
{
closed = 1;
nodes = (
"357 1283 LINE",
"549 1283 LINE SMOOTH",
"705 1283 OFFCURVE",
"805 1228 OFFCURVE",
"805 1074 CURVE SMOOTH",
"805 904 OFFCURVE",
"694 820 OFFCURVE",
"529 820 CURVE SMOOTH",
"357 820 LINE"
);
}
);
};
layerId = "90678D68-BBCC-4545-9AE9-72D37A9CD052";
paths = (
{
closed = 1;
nodes = (
"867 0 OFFCURVE",
"1071 158 OFFCURVE",
"1071 412 CURVE SMOOTH",
"1071 605 OFFCURVE",
"949 741 OFFCURVE",
"752 763 CURVE",
"752 767 LINE",
"896 818 OFFCURVE",
"980 943 OFFCURVE",
"980 1107 CURVE SMOOTH",
"980 1316 OFFCURVE",
"816 1435 OFFCURVE",
"596 1435 CURVE SMOOTH",
"188 1435 LINE",
"188 1 LINE",
"606 0 LINE SMOOTH"
);
},
{
closed = 1;
nodes = (
"358 669 LINE",
"550 669 LINE SMOOTH",
"757 669 OFFCURVE",
"897 602 OFFCURVE",
"897 415 CURVE SMOOTH",
"897 240 OFFCURVE",
"772 153 OFFCURVE",
"586 153 CURVE SMOOTH",
"358 153 LINE"
);
},
{
closed = 1;
nodes = (
"357 1283 LINE",
"549 1283 LINE SMOOTH",
"705 1283 OFFCURVE",
"805 1228 OFFCURVE",
"805 1074 CURVE SMOOTH",
"805 904 OFFCURVE",
"694 820 OFFCURVE",
"529 820 CURVE SMOOTH",
"357 820 LINE"
);
}
);
width = 1174;
},
{
anchors = (
{
name = bottom;
position = "{557, 0}";
},
{
name = top;
position = "{557, 1434}";
}
);
background = {
anchors = (
{
name = bottom;
position = "{557, 0}";
},
{
name = top;
position = "{557, 1434}";
}
);
paths = (
{
closed = 1;
nodes = (
"827 -1 OFFCURVE",
"999 158 OFFCURVE",
"999 412 CURVE SMOOTH",
"999 605 OFFCURVE",
"905 741 OFFCURVE",
"752 763 CURVE",
"752 767 LINE",
"864 818 OFFCURVE",
"930 943 OFFCURVE",
"930 1107 CURVE SMOOTH",
"930 1316 OFFCURVE",
"787 1435 OFFCURVE",
"596 1435 CURVE SMOOTH",
"184 1435 LINE",
"184 1 LINE",
"606 0 LINE SMOOTH"
);
},
{
closed = 1;
nodes = (
"284 699 LINE",
"550 699 LINE SMOOTH",
"757 699 OFFCURVE",
"897 624 OFFCURVE",
"897 415 CURVE SMOOTH",
"897 198 OFFCURVE",
"772 90 OFFCURVE",
"586 90 CURVE SMOOTH",
"284 90 LINE"
);
},
{
closed = 1;
nodes = (
"283 1343 LINE",
"549 1343 LINE SMOOTH",
"718 1343 OFFCURVE",
"827 1272 OFFCURVE",
"827 1074 CURVE SMOOTH",
"827 883 OFFCURVE",
"707 788 OFFCURVE",
"529 788 CURVE SMOOTH",
"283 788 LINE"
);
}
);
};
layerId = "4CDE908C-C807-45B0-BC73-FFDEB9F34183";
paths = (
{
closed = 1;
nodes = (
"827 -1 OFFCURVE",
"999 158 OFFCURVE",
"999 412 CURVE SMOOTH",
"999 605 OFFCURVE",
"905 741 OFFCURVE",
"752 763 CURVE",
"752 767 LINE",
"864 818 OFFCURVE",
"930 943 OFFCURVE",
"930 1107 CURVE SMOOTH",
"930 1316 OFFCURVE",
"787 1435 OFFCURVE",
"596 1435 CURVE SMOOTH",
"184 1435 LINE",
"184 1 LINE",
"606 0 LINE SMOOTH"
);
},
{
closed = 1;
nodes = (
"284 699 LINE",
"550 699 LINE SMOOTH",
"757 699 OFFCURVE",
"897 624 OFFCURVE",
"897 415 CURVE SMOOTH",
"897 198 OFFCURVE",
"772 90 OFFCURVE",
"586 90 CURVE SMOOTH",
"284 90 LINE"
);
},
{
closed = 1;
nodes = (
"283 1343 LINE",
"549 1343 LINE SMOOTH",
"718 1343 OFFCURVE",
"827 1272 OFFCURVE",
"827 1074 CURVE SMOOTH",
"827 883 OFFCURVE",
"707 788 OFFCURVE",
"529 788 CURVE SMOOTH",
"283 788 LINE"
);
}
);
width = 1114;
},
{
anchors = (
{
name = bottom;
position = "{657, 0}";
},
{
name = top;
position = "{657, 1434}";
}
);
background = {
anchors = (
{
name = bottom;
position = "{657, 0}";
},
{
name = top;
position = "{657, 1434}";
}
);
paths = (
{
closed = 1;
nodes = (
"1019 0 OFFCURVE",
"1241 158 OFFCURVE",
"1241 412 CURVE SMOOTH",
"1241 605 OFFCURVE",
"1104 741 OFFCURVE",
"882 763 CURVE",
"882 767 LINE",
"1070 818 OFFCURVE",
"1180 943 OFFCURVE",
"1180 1107 CURVE SMOOTH",
"1180 1316 OFFCURVE",
"986 1435 OFFCURVE",
"726 1435 CURVE SMOOTH",
"164 1435 LINE",
"164 1 LINE",
"736 0 LINE SMOOTH"
);
},
{
closed = 1;
nodes = (
"478 627 LINE",
"640 627 LINE SMOOTH",
"813 627 OFFCURVE",
"912 556 OFFCURVE",
"912 432 CURVE SMOOTH",
"912 303 OFFCURVE",
"826 229 OFFCURVE",
"676 229 CURVE SMOOTH",
"478 229 LINE"
);
},
{
closed = 1;
nodes = (
"477 1206 LINE",
"639 1206 LINE SMOOTH",
"773 1206 OFFCURVE",
"850 1140 OFFCURVE",
"850 1026 CURVE SMOOTH",
"850 913 OFFCURVE",
"765 847 OFFCURVE",
"619 847 CURVE SMOOTH",
"477 847 LINE"
);
}
);
};
layerId = "7FD739B0-27A2-4428-8CD0-260441CCC696";
paths = (
{
closed = 1;
nodes = (
"1019 0 OFFCURVE",
"1241 158 OFFCURVE",
"1241 412 CURVE SMOOTH",
"1241 605 OFFCURVE",
"1104 741 OFFCURVE",
"882 763 CURVE",
"882 767 LINE",
"1070 818 OFFCURVE",
"1180 943 OFFCURVE",
"1180 1107 CURVE SMOOTH",
"1180 1316 OFFCURVE",
"986 1435 OFFCURVE",
"726 1435 CURVE SMOOTH",
"164 1435 LINE",
"164 1 LINE",
"736 0 LINE SMOOTH"
);
},
{
closed = 1;
nodes = (
"478 627 LINE",
"640 627 LINE SMOOTH",
"813 627 OFFCURVE",
"912 556 OFFCURVE",
"912 432 CURVE SMOOTH",
"912 303 OFFCURVE",
"826 229 OFFCURVE",
"676 229 CURVE SMOOTH",
"478 229 LINE"
);
},
{
closed = 1;
nodes = (
"477 1206 LINE",
"639 1206 LINE SMOOTH",
"773 1206 OFFCURVE",
"850 1140 OFFCURVE",
"850 1026 CURVE SMOOTH",
"850 913 OFFCURVE",
"765 847 OFFCURVE",
"619 847 CURVE SMOOTH",
"477 847 LINE"
);
}
);
width = 1313;
}
);
unicode = 0042;
},
{
color = 5;
glyphname = C;
lastChange = "2020-02-12 15:44:54 +0000";
layers = (
{
anchors = (
{
name = bottom;
position = "{665, 0}";
},
{
name = top;
position = "{771, 1434}";
}
);
background = {
anchors = (
{
name = bottom;
position = "{636, 0}";
},
{
name = top;
position = "{716, 1354}";
}
);
paths = (
{
closed = 1;
nodes = (
"888 -20 OFFCURVE",
"1065 20 OFFCURVE",
"1182 65 CURVE",
"1126 218 LINE",
"1018 181 OFFCURVE",
"884 142 OFFCURVE",
"754 142 CURVE SMOOTH",
"453 142 OFFCURVE",
"281 358 OFFCURVE",
"281 721 CURVE SMOOTH",
"281 1084 OFFCURVE",
"480 1309 OFFCURVE",
"825 1292 CURVE SMOOTH",
"885 1289 OFFCURVE",
"1044 1275 OFFCURVE",
"1102 1256 CURVE",
"1151 1416 LINE",
"1062 1439 OFFCURVE",
"954 1460 OFFCURVE",
"827 1460 CURVE SMOOTH",
"362 1460 OFFCURVE",
"95 1188 OFFCURVE",
"95 713 CURVE SMOOTH",
"95 247 OFFCURVE",
"327 -20 OFFCURVE",
"731 -20 CURVE SMOOTH"
);
}
);
};
layerId = "90678D68-BBCC-4545-9AE9-72D37A9CD052";
paths = (
{
closed = 1;
nodes = (
"888 -20 OFFCURVE",
"1065 20 OFFCURVE",
"1182 65 CURVE",
"1126 218 LINE",
"1018 181 OFFCURVE",
"884 142 OFFCURVE",
"754 142 CURVE SMOOTH",
"453 142 OFFCURVE",
"281 358 OFFCURVE",
"281 721 CURVE SMOOTH",
"281 1084 OFFCURVE",
"480 1309 OFFCURVE",
"825 1292 CURVE SMOOTH",
"885 1289 OFFCURVE",
"1044 1275 OFFCURVE",
"1102 1256 CURVE",
"1151 1416 LINE",
"1062 1439 OFFCURVE",
"954 1460 OFFCURVE",
"827 1460 CURVE SMOOTH",
"362 1460 OFFCURVE",
"95 1188 OFFCURVE",
"95 713 CURVE SMOOTH",
"95 247 OFFCURVE",
"327 -20 OFFCURVE",
"731 -20 CURVE SMOOTH"
);
}
);
width = 1270;
},
{
anchors = (
{
name = bottom;
position = "{686, 0}";
},
{
name = top;
position = "{774, 1434}";
}
);
background = {
anchors = (
{
name = bottom;
position = "{716, 0}";
},
{
name = top;
position = "{716, 1384}";
}
);
paths = (
{
closed = 1;
nodes = (
"886 -20 OFFCURVE",
"1063 20 OFFCURVE",
"1180 65 CURVE",
"1148 149 LINE",
"998 97 OFFCURVE",
"854 67 OFFCURVE",
"752 67 CURVE SMOOTH",
"406 67 OFFCURVE",
"209 311 OFFCURVE",
"209 721 CURVE SMOOTH",
"209 1132 OFFCURVE",
"433 1367 OFFCURVE",
"823 1367 CURVE SMOOTH",
"943 1367 OFFCURVE",
"1042 1352 OFFCURVE",
"1123 1321 CURVE",
"1149 1416 LINE",
"1060 1439 OFFCURVE",
"952 1460 OFFCURVE",
"825 1460 CURVE SMOOTH",
"370 1460 OFFCURVE",
"109 1188 OFFCURVE",
"109 713 CURVE SMOOTH",
"109 247 OFFCURVE",
"335 -20 OFFCURVE",
"729 -20 CURVE SMOOTH"
);
}
);
};
layerId = "4CDE908C-C807-45B0-BC73-FFDEB9F34183";
paths = (
{
closed = 1;
nodes = (
"886 -20 OFFCURVE",
"1063 20 OFFCURVE",
"1180 65 CURVE",
"1148 149 LINE",
"998 97 OFFCURVE",
"854 67 OFFCURVE",
"752 67 CURVE SMOOTH",
"406 67 OFFCURVE",
"209 311 OFFCURVE",
"209 721 CURVE SMOOTH",
"209 1132 OFFCURVE",
"433 1367 OFFCURVE",
"823 1367 CURVE SMOOTH",
"943 1367 OFFCURVE",
"1042 1352 OFFCURVE",
"1123 1321 CURVE",
"1149 1416 LINE",
"1060 1439 OFFCURVE",
"952 1460 OFFCURVE",
"825 1460 CURVE SMOOTH",
"370 1460 OFFCURVE",
"109 1188 OFFCURVE",
"109 713 CURVE SMOOTH",
"109 247 OFFCURVE",
"335 -20 OFFCURVE",
"729 -20 CURVE SMOOTH"
);
}
);
width = 1272;
},
{
anchors = (
{
name = bottom;
position = "{639, 0}";
},
{
name = top;
position = "{756, 1434}";
}
);
background = {
anchors = (
{
name = bottom;
position = "{639, 0}";
},
{
name = top;
position = "{719, 1384}";
}
);
paths = (
{
closed = 1;
nodes = (
"900 -20 OFFCURVE",
"1051 1 OFFCURVE",
"1191 55 CURVE",
"1125 343 LINE",
"994 301 OFFCURVE",
"870 277 OFFCURVE",
"783 277 CURVE SMOOTH",
"538 277 OFFCURVE",
"398 438 OFFCURVE",
"398 721 CURVE SMOOTH",
"398 1005 OFFCURVE",
"564 1167 OFFCURVE",
"854 1167 CURVE SMOOTH",
"948 1167 OFFCURVE",
"1038 1154 OFFCURVE",
"1101 1131 CURVE",
"1180 1416 LINE",
"1070 1444 OFFCURVE",
"952 1460 OFFCURVE",
"856 1460 CURVE SMOOTH",
"359 1460 OFFCURVE",
"74 1188 OFFCURVE",
"74 713 CURVE SMOOTH",
"74 247 OFFCURVE",
"324 -20 OFFCURVE",
"760 -20 CURVE SMOOTH"
);
}
);
};
layerId = "7FD739B0-27A2-4428-8CD0-260441CCC696";
paths = (
{
closed = 1;
nodes = (
"900 -20 OFFCURVE",
"1051 1 OFFCURVE",
"1191 55 CURVE",
"1125 343 LINE",
"994 301 OFFCURVE",
"870 277 OFFCURVE",
"783 277 CURVE SMOOTH",
"538 277 OFFCURVE",
"398 438 OFFCURVE",
"398 721 CURVE SMOOTH",
"398 1005 OFFCURVE",
"564 1167 OFFCURVE",
"854 1167 CURVE SMOOTH",
"948 1167 OFFCURVE",
"1038 1154 OFFCURVE",
"1101 1131 CURVE",
"1180 1416 LINE",
"1070 1444 OFFCURVE",
"952 1460 OFFCURVE",
"856 1460 CURVE SMOOTH",
"359 1460 OFFCURVE",
"74 1188 OFFCURVE",
"74 713 CURVE SMOOTH",
"74 247 OFFCURVE",
"324 -20 OFFCURVE",
"760 -20 CURVE SMOOTH"
);
}
);
width = 1278;
}
);
unicode = 0043;
},
{
color = 5;
glyphname = D;
lastChange = "2020-02-03 21:22:53 +0000";
layers = (
{
anchors = (
{
name = bottom;
position = "{668, 0}";
},
{
name = center;
position = "{717, 717}";
},
{
name = top;
position = "{668, 1434}";
}
);
background = {
anchors = (
{
name = bottom;
position = "{717, 0}";
},
{
name = center;
position = "{717, 717}";
},
{
name = top;
position = "{667, 1354}";
}
);
paths = (
{
closed = 1;
nodes = (
"567 0 LINE SMOOTH",
"1030 0 OFFCURVE",
"1340 280 OFFCURVE",
"1340 734 CURVE SMOOTH",
"1340 1212 OFFCURVE",
"1078 1432 OFFCURVE",
"582 1432 CURVE SMOOTH",
"186 1432 LINE",
"186 -2 LINE"
);
},
{
closed = 1;
nodes = (
"355 1278 LINE",
"578 1280 LINE SMOOTH",
"960 1280 OFFCURVE",
"1165 1104 OFFCURVE",
"1165 728 CURVE SMOOTH",
"1165 358 OFFCURVE",
"947 148 OFFCURVE",
"569 148 CURVE SMOOTH",
"355 148 LINE"
);
}
);
};
layerId = "90678D68-BBCC-4545-9AE9-72D37A9CD052";
paths = (
{
closed = 1;
nodes = (
"567 0 LINE SMOOTH",
"1030 0 OFFCURVE",
"1340 280 OFFCURVE",
"1340 734 CURVE SMOOTH",
"1340 1212 OFFCURVE",
"1078 1432 OFFCURVE",
"582 1432 CURVE SMOOTH",
"186 1432 LINE",
"186 -2 LINE"
);
},
{
closed = 1;
nodes = (
"355 1278 LINE",
"578 1280 LINE SMOOTH",
"960 1280 OFFCURVE",
"1165 1104 OFFCURVE",
"1165 728 CURVE SMOOTH",
"1165 358 OFFCURVE",
"947 148 OFFCURVE",
"569 148 CURVE SMOOTH",
"355 148 LINE"
);
}
);
width = 1435;
},
{
anchors = (
{
name = bottom;
position = "{640, 0}";
},
{
name = center;
position = "{690, 717}";
},
{
name = top;
position = "{640, 1434}";
}
);
background = {
anchors = (
{
name = bottom;
position = "{690, 0}";
},
{
name = center;
position = "{690, 717}";
},
{
name = top;
position = "{640, 1384}";
}
);
paths = (
{
closed = 1;
nodes = (
"568 0 LINE SMOOTH",
"989 2 OFFCURVE",
"1271 280 OFFCURVE",
"1271 734 CURVE SMOOTH",
"1271 1212 OFFCURVE",
"1033 1432 OFFCURVE",
"583 1432 CURVE SMOOTH",
"184 1432 LINE",
"184 -2 LINE"
);
},
{
closed = 1;
nodes = (
"283 1342 LINE",
"579 1344 LINE SMOOTH",
"961 1344 OFFCURVE",
"1166 1148 OFFCURVE",
"1166 728 CURVE SMOOTH",
"1166 321 OFFCURVE",
"948 90 OFFCURVE",
"570 90 CURVE SMOOTH",
"283 90 LINE"
);
}
);
};
layerId = "4CDE908C-C807-45B0-BC73-FFDEB9F34183";
paths = (
{
closed = 1;
nodes = (
"568 0 LINE SMOOTH",
"989 2 OFFCURVE",
"1271 280 OFFCURVE",
"1271 734 CURVE SMOOTH",
"1271 1212 OFFCURVE",
"1033 1432 OFFCURVE",
"583 1432 CURVE SMOOTH",
"184 1432 LINE",
"184 -2 LINE"
);
},
{
closed = 1;
nodes = (
"283 1342 LINE",
"579 1344 LINE SMOOTH",
"961 1344 OFFCURVE",
"1166 1148 OFFCURVE",
"1166 728 CURVE SMOOTH",
"1166 321 OFFCURVE",
"948 90 OFFCURVE",
"570 90 CURVE SMOOTH",
"283 90 LINE"
);
}
);
width = 1380;
},
{
anchors = (
{
name = bottom;
position = "{725, 0}";
},
{
name = center;
position = "{755, 717}";
},
{
name = top;
position = "{725, 1434}";
}
);
background = {
anchors = (
{
name = bottom;
position = "{755, 0}";
},
{
name = center;
position = "{755, 717}";
},
{
name = top;
position = "{725, 1384}";
}
);
paths = (
{
closed = 1;
nodes = (
"700 0 LINE SMOOTH",
"1140 2 OFFCURVE",
"1435 280 OFFCURVE",
"1435 734 CURVE SMOOTH",
"1435 1212 OFFCURVE",
"1186 1434 OFFCURVE",
"715 1434 CURVE SMOOTH",
"164 1434 LINE",
"164 -2 LINE"
);
},
{
closed = 1;
nodes = (
"478 1171 LINE",
"711 1173 LINE SMOOTH",
"974 1175 OFFCURVE",
"1115 1031 OFFCURVE",
"1115 728 CURVE SMOOTH",
"1115 432 OFFCURVE",
"964 263 OFFCURVE",
"702 263 CURVE SMOOTH",
"478 263 LINE"
);
}
);
};
layerId = "7FD739B0-27A2-4428-8CD0-260441CCC696";
paths = (
{
closed = 1;
nodes = (
"700 0 LINE SMOOTH",
"1140 2 OFFCURVE",
"1435 280 OFFCURVE",
"1435 734 CURVE SMOOTH",
"1435 1212 OFFCURVE",
"1186 1434 OFFCURVE",
"715 1434 CURVE SMOOTH",
"164 1434 LINE",
"164 -2 LINE"
);
},
{
closed = 1;
nodes = (
"478 1171 LINE",
"711 1173 LINE SMOOTH",
"974 1175 OFFCURVE",
"1115 1031 OFFCURVE",
"1115 728 CURVE SMOOTH",
"1115 432 OFFCURVE",
"964 263 OFFCURVE",
"702 263 CURVE SMOOTH",
"478 263 LINE"
);
}
);
width = 1510;
}
);
unicode = 0044;
},
{
color = 5;
glyphname = E;
lastChange = "2020-02-12 01:29:15 +0000";
layers = (
{
anchors = (
{
name = bottom;
position = "{552, 0}";
},
{
name = ogonek;
position = "{948, 0}";
},
{
name = top;
position = "{552, 1434}";
}
);
background = {
anchors = (
{
name = bottom;
position = "{508, 0}";
},
{
name = ogonek;
position = "{819, 10}";
},
{
name = top;
position = "{548, 1354}";
}
);
paths = (
{
closed = 1;
nodes = (
"948 0 LINE",
"948 152 LINE",
"356 152 LINE",
"356 654 LINE",
"854 654 LINE",
"854 805 LINE",
"356 805 LINE",
"356 1282 LINE",
"916 1282 LINE",
"916 1434 LINE",
"188 1434 LINE",
"188 0 LINE"
);
}
);
};
layerId = "90678D68-BBCC-4545-9AE9-72D37A9CD052";
paths = (
{
closed = 1;
nodes = (
"948 0 LINE",
"948 152 LINE",
"356 152 LINE",
"356 654 LINE",
"854 654 LINE",
"854 805 LINE",
"356 805 LINE",
"356 1282 LINE",
"916 1282 LINE",
"916 1434 LINE",
"188 1434 LINE",
"188 0 LINE"
);
}
);
width = 1036;
},
{
anchors = (
{
name = bottom;
position = "{520, 0}";
},
{
name = ogonek;
position = "{887, 0}";
},
{
name = top;
position = "{520, 1434}";
}
);
background = {
anchors = (
{
name = bottom;
position = "{512, 0}";
},
{
name = ogonek;
position = "{845, 10}";
},
{
name = top;
position = "{522, 1384}";
}
);
paths = (
{
closed = 1;
nodes = (
"887 0 LINE",
"887 90 LINE",
"283 90 LINE",
"283 678 LINE",
"793 678 LINE",
"793 768 LINE",
"283 768 LINE",
"283 1343 LINE",
"855 1343 LINE",
"855 1434 LINE",
"184 1434 LINE",
"184 0 LINE"
);
}
);
};
layerId = "4CDE908C-C807-45B0-BC73-FFDEB9F34183";
paths = (
{
closed = 1;
nodes = (
"887 0 LINE",
"887 90 LINE",
"283 90 LINE",
"283 678 LINE",
"793 678 LINE",
"793 768 LINE",
"283 768 LINE",
"283 1343 LINE",
"855 1343 LINE",
"855 1434 LINE",
"184 1434 LINE",
"184 0 LINE"
);
}
);
width = 1024;
},
{
anchors = (
{
name = bottom;
position = "{578, 0}";
},
{
name = ogonek;
position = "{1024, 0}";
},
{
name = top;
position = "{578, 1434}";
}
);
background = {
anchors = (
{
name = bottom;
position = "{545, 0}";
},
{
name = ogonek;
position = "{935, 10}";
},
{
name = top;
position = "{575, 1384}";
}
);
paths = (
{
closed = 1;
nodes = (
"1024 0 LINE",
"1024 252 LINE",
"478 252 LINE",
"478 597 LINE",
"930 597 LINE",
"930 853 LINE",
"478 853 LINE",
"478 1181 LINE",
"992 1181 LINE",
"992 1434 LINE",
"164 1434 LINE",
"164 0 LINE"
);
}
);
};
layerId = "7FD739B0-27A2-4428-8CD0-260441CCC696";
paths = (
{
closed = 1;
nodes = (
"1024 0 LINE",
"1024 252 LINE",
"478 252 LINE",
"478 597 LINE",
"930 597 LINE",
"930 853 LINE",
"478 853 LINE",
"478 1181 LINE",
"992 1181 LINE",
"992 1434 LINE",
"164 1434 LINE",
"164 0 LINE"
);
}
);
width = 1090;
}
);
unicode = 0045;
},
{
glyphname = F;
lastChange = "2020-02-04 01:21:01 +0000";
layers = (
{
anchors = (
{
name = bottom;
position = "{272, 0}";
},
{
name = top;
position = "{552, 1434}";
}
);
background = {
anchors = (
{
name = bottom;
position = "{500, 0}";
},
{
name = top;
position = "{500, 1434}";
}
);
paths = (
{
closed = 1;
nodes = (
"356 0 LINE",
"356 635 LINE",
"854 635 LINE",
"854 786 LINE",
"356 786 LINE",
"356 1282 LINE",
"916 1282 LINE",
"916 1434 LINE",
"188 1434 LINE",
"188 0 LINE"
);
}
);
};
layerId = "90678D68-BBCC-4545-9AE9-72D37A9CD052";
paths = (
{
closed = 1;
nodes = (
"356 0 LINE",
"356 635 LINE",
"854 635 LINE",
"854 786 LINE",
"356 786 LINE",
"356 1282 LINE",
"916 1282 LINE",
"916 1434 LINE",
"188 1434 LINE",
"188 0 LINE"
);
}
);
width = 1000;
},
{
anchors = (
{
name = bottom;
position = "{233, 0}";
},
{
name = top;
position = "{519, 1434}";
}
);
background = {
anchors = (
{
name = bottom;
position = "{476, 0}";
},
{
name = top;
position = "{476, 1434}";
}
);
paths = (
{
closed = 1;
nodes = (
"283 0 LINE",
"283 668 LINE",
"792 668 LINE",
"792 758 LINE",
"283 758 LINE",
"283 1343 LINE",
"854 1343 LINE",
"854 1434 LINE",
"184 1434 LINE",
"184 0 LINE"
);
}
);
};
layerId = "4CDE908C-C807-45B0-BC73-FFDEB9F34183";
paths = (
{
closed = 1;
nodes = (
"283 0 LINE",
"283 668 LINE",
"792 668 LINE",
"792 758 LINE",
"283 758 LINE",
"283 1343 LINE",
"854 1343 LINE",
"854 1434 LINE",
"184 1434 LINE",
"184 0 LINE"
);
}
);
width = 952;
},
{
anchors = (
{
name = bottom;
position = "{321, 0}";
},
{
name = top;
position = "{578, 1434}";
}
);
background = {
anchors = (
{
name = bottom;
position = "{533, 0}";
},
{
name = top;
position = "{533, 1434}";
}
);
paths = (
{
closed = 1;
nodes = (
"477 0 LINE",
"477 562 LINE",
"931 562 LINE",
"931 820 LINE",
"477 820 LINE",
"477 1181 LINE",
"993 1181 LINE",
"993 1434 LINE",
"164 1434 LINE",
"164 0 LINE"
);
}
);
};
layerId = "7FD739B0-27A2-4428-8CD0-260441CCC696";
paths = (
{
closed = 1;
nodes = (
"477 0 LINE",
"477 562 LINE",
"931 562 LINE",
"931 820 LINE",
"477 820 LINE",
"477 1181 LINE",
"993 1181 LINE",
"993 1434 LINE",
"159 1434 LINE",
"164 0 LINE"
);
}
);
width = 1065;
}
);
unicode = 0046;
},
{
color = 5;
glyphname = G;
lastChange = "2020-02-04 01:18:39 +0000";
layers = (
{
anchors = (
{
name = bottom;
position = "{763, 0}";
},
{
name = top;
position = "{788, 1434}";
}
);
background = {
anchors = (
{
name = bottom;
position = "{703, 0}";
},
{
name = top;
position = "{783, 1354}";
}
);
paths = (
{
closed = 1;
nodes = (
"950 -22 OFFCURVE",
"1125 22 OFFCURVE",
"1261 100 CURVE",
"1260 738 LINE",
"728 738 LINE",
"728 586 LINE",
"1092 586 LINE",
"1092 194 LINE",
"1013 151 OFFCURVE",
"907 127 OFFCURVE",
"800 127 CURVE SMOOTH",
"463 127 OFFCURVE",
"270 340 OFFCURVE",
"270 711 CURVE SMOOTH",
"270 1087 OFFCURVE",
"470 1302 OFFCURVE",
"820 1302 CURVE SMOOTH",
"956 1302 OFFCURVE",
"1116 1276 OFFCURVE",
"1177 1265 CURVE",
"1232 1413 LINE",
"1129 1434 OFFCURVE",
"973 1459 OFFCURVE",
"838 1459 CURVE SMOOTH",
"366 1459 OFFCURVE",
"95 1183 OFFCURVE",
"95 700 CURVE SMOOTH",
"95 241 OFFCURVE",
"345 -22 OFFCURVE",
"781 -22 CURVE SMOOTH"
);
}
);
};
layerId = "90678D68-BBCC-4545-9AE9-72D37A9CD052";
paths = (
{
closed = 1;
nodes = (
"950 -22 OFFCURVE",
"1125 22 OFFCURVE",
"1261 100 CURVE",
"1260 738 LINE",
"728 738 LINE",
"728 586 LINE",
"1092 586 LINE",
"1092 194 LINE",
"1013 151 OFFCURVE",
"907 127 OFFCURVE",
"800 127 CURVE SMOOTH",
"463 127 OFFCURVE",
"270 340 OFFCURVE",
"270 711 CURVE SMOOTH",
"270 1087 OFFCURVE",
"470 1302 OFFCURVE",
"820 1302 CURVE SMOOTH",
"956 1302 OFFCURVE",
"1116 1276 OFFCURVE",
"1177 1265 CURVE",
"1232 1413 LINE",
"1129 1434 OFFCURVE",
"973 1459 OFFCURVE",
"838 1459 CURVE SMOOTH",
"366 1459 OFFCURVE",
"95 1183 OFFCURVE",
"95 700 CURVE SMOOTH",
"95 241 OFFCURVE",
"345 -22 OFFCURVE",
"781 -22 CURVE SMOOTH"
);
}
);
width = 1405;
},
{
anchors = (
{
name = bottom;
position = "{765, 0}";
},
{
name = top;
position = "{786, 1434}";
}
);
background = {
anchors = (
{
name = bottom;
position = "{684, 0}";
},
{
name = top;
position = "{754, 1384}";
}
);
paths = (
{
closed = 1;
nodes = (
"936 -22 OFFCURVE",
"1097 22 OFFCURVE",
"1222 100 CURVE",
"1221 713 LINE",
"768 713 LINE",
"768 623 LINE",
"1124 623 LINE",
"1124 154 LINE",
"1036 97 OFFCURVE",
"919 65 OFFCURVE",
"800 65 CURVE SMOOTH",
"425 65 OFFCURVE",
"210 301 OFFCURVE",
"210 711 CURVE SMOOTH",
"210 1129 OFFCURVE",
"432 1367 OFFCURVE",
"820 1367 CURVE SMOOTH",
"925 1367 OFFCURVE",
"1066 1350 OFFCURVE",
"1207 1320 CURVE",
"1232 1413 LINE",
"1129 1434 OFFCURVE",
"973 1459 OFFCURVE",
"838 1459 CURVE SMOOTH",
"375 1459 OFFCURVE",
"109 1183 OFFCURVE",
"109 700 CURVE SMOOTH",
"109 241 OFFCURVE",
"354 -22 OFFCURVE",
"781 -22 CURVE SMOOTH"
);
}
);
};
layerId = "4CDE908C-C807-45B0-BC73-FFDEB9F34183";
paths = (
{
closed = 1;
nodes = (
"936 -22 OFFCURVE",
"1097 22 OFFCURVE",
"1222 100 CURVE",
"1221 713 LINE",
"768 713 LINE",
"768 623 LINE",
"1124 623 LINE",
"1124 154 LINE",
"1036 97 OFFCURVE",
"919 65 OFFCURVE",
"800 65 CURVE SMOOTH",
"425 65 OFFCURVE",
"210 301 OFFCURVE",
"210 711 CURVE SMOOTH",
"210 1129 OFFCURVE",
"432 1367 OFFCURVE",
"820 1367 CURVE SMOOTH",
"925 1367 OFFCURVE",
"1066 1350 OFFCURVE",
"1207 1320 CURVE",
"1232 1413 LINE",
"1129 1434 OFFCURVE",
"973 1459 OFFCURVE",
"838 1459 CURVE SMOOTH",
"375 1459 OFFCURVE",
"109 1183 OFFCURVE",
"109 700 CURVE SMOOTH",
"109 241 OFFCURVE",
"354 -22 OFFCURVE",
"781 -22 CURVE SMOOTH"
);
}
);
width = 1368;
},
{
anchors = (
{
name = bottom;
position = "{797, 0}";
},
{
name = top;
position = "{837, 1434}";
}
);
background = {
anchors = (
{
name = bottom;
position = "{728, 0}";
},
{
name = top;
position = "{798, 1384}";
}
);
paths = (
{
closed = 1;
nodes = (
"977 -22 OFFCURVE",
"1181 22 OFFCURVE",
"1340 100 CURVE",
"1339 819 LINE",
"787 819 LINE",
"787 569 LINE",
"1030 569 LINE",
"1030 304 LINE",
"982 266 OFFCURVE",
"909 247 OFFCURVE",
"829 247 CURVE SMOOTH",
"567 247 OFFCURVE",
"414 423 OFFCURVE",
"414 711 CURVE SMOOTH",
"414 1007 OFFCURVE",
"591 1177 OFFCURVE",
"899 1177 CURVE SMOOTH",
"1024 1177 OFFCURVE",
"1170 1151 OFFCURVE",
"1226 1140 CURVE",
"1311 1413 LINE",
"1198 1434 OFFCURVE",
"1026 1459 OFFCURVE",
"877 1459 CURVE SMOOTH",
"427 1459 OFFCURVE",
"74 1183 OFFCURVE",
"74 700 CURVE SMOOTH",
"74 241 OFFCURVE",
"388 -22 OFFCURVE",
"780 -22 CURVE SMOOTH"
);
}
);
};
layerId = "7FD739B0-27A2-4428-8CD0-260441CCC696";
paths = (
{
closed = 1;
nodes = (
"977 -22 OFFCURVE",
"1181 22 OFFCURVE",
"1340 100 CURVE",
"1339 819 LINE",
"787 819 LINE",
"787 569 LINE",
"1030 569 LINE",
"1030 304 LINE",
"982 266 OFFCURVE",
"909 247 OFFCURVE",
"829 247 CURVE SMOOTH",
"567 247 OFFCURVE",
"414 423 OFFCURVE",
"414 711 CURVE SMOOTH",
"414 1007 OFFCURVE",
"591 1177 OFFCURVE",
"899 1177 CURVE SMOOTH",
"1024 1177 OFFCURVE",
"1170 1151 OFFCURVE",
"1226 1140 CURVE",
"1311 1413 LINE",
"1198 1434 OFFCURVE",
"1026 1459 OFFCURVE",
"877 1459 CURVE SMOOTH",
"427 1459 OFFCURVE",
"74 1183 OFFCURVE",
"74 700 CURVE SMOOTH",
"74 241 OFFCURVE",
"388 -22 OFFCURVE",
"780 -22 CURVE SMOOTH"
);
}
);
width = 1456;
}
);
unicode = 0047;
},
{
color = 5;
glyphname = H;
lastChange = "2020-02-04 01:22:52 +0000";
layers = (
{
anchors = (
{
name = bottom;
position = "{727, 0}";
},
{
name = center;
position = "{727, 717}";
},
{
name = top;
position = "{727, 1434}";
}
);
background = {
anchors = (
{
name = bottom;
position = "{727, 0}";
},
{
name = center;
position = "{727, 717}";
},
{
name = top;
position = "{727, 1354}";
}
);
paths = (
{
closed = 1;
nodes = (
"356 0 LINE",
"356 634 LINE",
"1098 634 LINE",
"1098 0 LINE",
"1266 0 LINE",
"1266 1434 LINE",
"1098 1434 LINE",
"1098 785 LINE",
"356 785 LINE",
"356 1434 LINE",
"188 1434 LINE",
"188 0 LINE"
);
}
);
};
layerId = "90678D68-BBCC-4545-9AE9-72D37A9CD052";
paths = (
{
closed = 1;
nodes = (
"356 0 LINE",
"356 634 LINE",
"1098 634 LINE",
"1098 0 LINE",
"1266 0 LINE",
"1266 1434 LINE",
"1098 1434 LINE",
"1098 785 LINE",
"356 785 LINE",
"356 1434 LINE",
"188 1434 LINE",
"188 0 LINE"
);
}
);
width = 1454;
},
{
anchors = (
{
name = bottom;
position = "{693, 0}";
},
{
name = center;
position = "{693, 717}";
},
{
name = top;
position = "{693, 1434}";
}
);
background = {
anchors = (
{
name = bottom;
position = "{693, 0}";
},
{
name = center;
position = "{693, 717}";
},
{
name = top;
position = "{693, 1384}";
}
);
paths = (
{
closed = 1;
nodes = (
"283 0 LINE",
"283 674 LINE",
"1104 674 LINE",
"1104 0 LINE",
"1202 0 LINE",
"1202 1434 LINE",
"1104 1434 LINE",
"1104 763 LINE",
"283 763 LINE",
"283 1434 LINE",
"184 1434 LINE",
"184 0 LINE"
);
}
);
};
layerId = "4CDE908C-C807-45B0-BC73-FFDEB9F34183";
paths = (
{
closed = 1;
nodes = (
"283 0 LINE",
"283 674 LINE",
"1104 674 LINE",
"1104 0 LINE",
"1202 0 LINE",
"1202 1434 LINE",
"1104 1434 LINE",
"1104 763 LINE",
"283 763 LINE",
"283 1434 LINE",
"184 1434 LINE",
"184 0 LINE"
);
}
);
width = 1386;
},
{
anchors = (
{
name = bottom;
position = "{785, 0}";
},
{
name = center;
position = "{785, 717}";
},
{
name = top;
position = "{785, 1434}";
}
);
background = {
anchors = (
{
name = bottom;
position = "{785, 0}";
},
{
name = center;
position = "{785, 717}";
},
{
name = top;
position = "{785, 1384}";
}
);
paths = (
{
closed = 1;
nodes = (
"475 0 LINE",
"475 584 LINE",
"1089 584 LINE",
"1089 0 LINE",
"1405 0 LINE",
"1405 1434 LINE",
"1089 1434 LINE",
"1089 852 LINE",
"475 852 LINE",
"475 1434 LINE",
"163 1434 LINE",
"163 0 LINE"
);
}
);
};
layerId = "7FD739B0-27A2-4428-8CD0-260441CCC696";
paths = (
{
closed = 1;
nodes = (
"475 0 LINE",
"475 584 LINE",
"1089 584 LINE",
"1089 0 LINE",
"1405 0 LINE",
"1405 1434 LINE",
"1089 1434 LINE",
"1089 852 LINE",
"475 852 LINE",
"475 1434 LINE",
"163 1434 LINE",
"163 0 LINE"
);
}
);
width = 1569;
}
);
unicode = 0048;
},
{
glyphname = I;
lastChange = "2020-02-14 05:32:17 +0000";
layers = (
{
anchors = (
{
name = bottom;
position = "{272, 0}";
},
{
name = ogonek;
position = "{356, 0}";
},
{
name = top;
position = "{272, 1434}";
}
);
background = {
anchors = (
{
name = bottom;
position = "{273, 0}";
},
{
name = ogonek;
position = "{286, 10}";
},
{
name = top;
position = "{273, 1354}";
}
);
paths = (
{
closed = 1;
nodes = (
"356 0 LINE",
"356 1434 LINE",
"188 1434 LINE",
"188 0 LINE"
);
}
);
};
layerId = "90678D68-BBCC-4545-9AE9-72D37A9CD052";
paths = (
{
closed = 1;
nodes = (
"356 0 LINE",
"356 1434 LINE",
"188 1434 LINE",
"188 0 LINE"
);
}
);
width = 544;
},
{
anchors = (
{
name = bottom;
position = "{234, 0}";
},
{
name = ogonek;
position = "{283, 0}";
},
{
name = top;
position = "{234, 1434}";
}
);
background = {
anchors = (
{
name = bottom;
position = "{234, 0}";
},
{
name = ogonek;
position = "{238, 10}";
},
{
name = top;
position = "{235, 1374}";
}
);
paths = (
{
closed = 1;
nodes = (
"283 0 LINE",
"283 1434 LINE",
"188 1434 LINE",
"188 0 LINE"
);
}
);
};
layerId = "4CDE908C-C807-45B0-BC73-FFDEB9F34183";
paths = (
{
closed = 1;
nodes = (
"283 0 LINE",
"283 1434 LINE",
"188 1434 LINE",
"188 0 LINE"
);
}
);
width = 467;
},
{
anchors = (
{
name = bottom;
position = "{325, 0}";
},
{
name = ogonek;
position = "{481, 0}";
},
{
name = top;
position = "{325, 1434}";
}
);
background = {
anchors = (
{
name = bottom;
position = "{325, 0}";
},
{
name = ogonek;
position = "{398, 10}";
},
{
name = top;
position = "{325, 1384}";
}
);
paths = (
{
closed = 1;
nodes = (
"481 0 LINE",
"481 1434 LINE",
"169 1434 LINE",
"169 0 LINE"
);
}
);
};
layerId = "7FD739B0-27A2-4428-8CD0-260441CCC696";
paths = (
{
closed = 1;
nodes = (
"481 0 LINE",
"481 1434 LINE",
"169 1434 LINE",
"169 0 LINE"
);
}
);
width = 649;
}
);
unicode = 0049;
},
{
glyphname = J;
lastChange = "2020-02-13 16:49:58 +0000";
layers = (
{
anchors = (
{
name = bottom;
position = "{366, 0}";
},
{
name = top;
position = "{366, 1434}";
}
);
background = {
anchors = (
{
name = bottom;
position = "{366, 0}";
},
{
name = top;
position = "{366, 1434}";
}
);
paths = (
{
closed = 1;
nodes = (
"352 -469 OFFCURVE",
"555 -358 OFFCURVE",
"555 -20 CURVE SMOOTH",
"555 1434 LINE",
"391 1434 LINE",
"391 1434 OFFCURVE",
"391 -29 OFFCURVE",
"391 -29 CURVE",
"391 -274 OFFCURVE",
"257 -310 OFFCURVE",
"69 -332 CURVE",
"90 -482 LINE"
);
}
);
};
layerId = "90678D68-BBCC-4545-9AE9-72D37A9CD052";
paths = (
{
closed = 1;
nodes = (
"352 -469 OFFCURVE",
"555 -358 OFFCURVE",
"555 -20 CURVE SMOOTH",
"555 1434 LINE",
"391 1434 LINE",
"391 -29 LINE SMOOTH",
"391 -274 OFFCURVE",
"257 -310 OFFCURVE",
"69 -332 CURVE",
"90 -482 LINE"
);
}
);
width = 731;
},
{
anchors = (
{
name = bottom;
position = "{332, 0}";
},
{
name = top;
position = "{332, 1434}";
}
);
background = {
anchors = (
{
name = bottom;
position = "{332, 0}";
},
{
name = top;
position = "{332, 1434}";
}
);
paths = (
{
closed = 1;
nodes = (
"314 -469 OFFCURVE",
"487 -358 OFFCURVE",
"487 -20 CURVE SMOOTH",
"487 1434 LINE",
"392 1434 LINE",
"392 1434 OFFCURVE",
"392 -9 OFFCURVE",
"392 -9 CURVE",
"391 -311 OFFCURVE",
"261 -355 OFFCURVE",
"79 -382 CURVE",
"90 -482 LINE"
);
}
);
};
layerId = "4CDE908C-C807-45B0-BC73-FFDEB9F34183";
paths = (
{
closed = 1;
nodes = (
"314 -469 OFFCURVE",
"487 -358 OFFCURVE",
"487 -20 CURVE SMOOTH",
"487 1434 LINE",
"392 1434 LINE",
"392 -9 LINE SMOOTH",
"391 -311 OFFCURVE",
"261 -355 OFFCURVE",
"79 -382 CURVE",
"90 -482 LINE"
);
}
);
width = 664;
},
{
anchors = (
{
name = bottom;
position = "{456, 0}";
},
{
name = top;
position = "{456, 1434}";
}
);
background = {
anchors = (
{
name = bottom;
position = "{456, 0}";
},
{
name = top;
position = "{456, 1434}";
}
);
paths = (
{
closed = 1;
nodes = (
"469 -469 OFFCURVE",
"762 -358 OFFCURVE",
"762 -20 CURVE SMOOTH",
"762 1434 LINE",
"453 1434 LINE",
"453 1434 OFFCURVE",
"453 111 OFFCURVE",
"453 111 CURVE",
"453 -134 OFFCURVE",
"289 -170 OFFCURVE",
"49 -192 CURVE",
"90 -482 LINE"
);
}
);
};
layerId = "7FD739B0-27A2-4428-8CD0-260441CCC696";
paths = (
{
closed = 1;
nodes = (
"469 -469 OFFCURVE",
"762 -358 OFFCURVE",
"762 -20 CURVE SMOOTH",
"762 1434 LINE",
"453 1434 LINE",
"453 111 LINE SMOOTH",
"453 -134 OFFCURVE",
"289 -170 OFFCURVE",
"49 -192 CURVE",
"90 -482 LINE"
);
}
);
width = 912;
}
);
unicode = 004A;
},
{
color = 5;
glyphname = K;
lastChange = "2020-02-04 05:06:28 +0000";
layers = (
{
anchors = (
{
name = bottom;
position = "{646, 0}";
},
{
name = top;
position = "{646, 1434}";
}
);
background = {
anchors = (
{
name = bottom;
position = "{594, 0}";
},
{
name = top;
position = "{594, 1434}";
}
);
paths = (
{
closed = 1;
nodes = (
"1169 1459.34 LINE",
"984 1484 LINE",
"459 847 LINE",
"414 793 OFFCURVE",
"370 738 OFFCURVE",
"325 684 CURVE",
"338 443 LINE"
);
},
{
closed = 1;
nodes = (
"356 0 LINE",
"356 1434 LINE SMOOTH",
"188 1434 LINE",
"188 0 LINE"
);
},
{
closed = 1;
nodes = (
"1179 0 LINE",
"701 925 LINE",
"568 789 LINE",
"978 0 LINE"
);
}
);
};
layerId = "90678D68-BBCC-4545-9AE9-72D37A9CD052";
paths = (
{
closed = 1;
nodes = (
"1169 1459.34 LINE",
"984 1484 LINE",
"459 847 LINE",
"414 793 OFFCURVE",
"370 738 OFFCURVE",
"325 684 CURVE",
"338 443 LINE"
);
},
{
closed = 1;
nodes = (
"356 0 LINE",
"356 1434 LINE SMOOTH",
"188 1434 LINE",
"188 0 LINE"
);
},
{
closed = 1;
nodes = (
"1179 0 LINE",
"701 925 LINE",
"568 789 LINE",
"978 0 LINE"
);
}
);
width = 1188;
},
{
anchors = (
{
name = bottom;
position = "{570, 0}";
},
{
name = top;
position = "{570, 1434}";
}
);
background = {
anchors = (
{
name = bottom;
position = "{540, 0}";
},
{
name = top;
position = "{540, 1434}";
}
);
paths = (
{
closed = 1;
nodes = (
"1036 1459 LINE",
"921 1474 LINE",
"369 795 LINE",
"333 751 OFFCURVE",
"298 708 OFFCURVE",
"262 664 CURVE",
"205 443 LINE"
);
},
{
closed = 1;
nodes = (
"283 0 LINE",
"283 1434 LINE SMOOTH",
"185 1434 LINE",
"185 0 LINE"
);
},
{
closed = 1;
nodes = (
"1057 0 LINE",
"549 905 LINE",
"459 841 LINE",
"936 0 LINE"
);
}
);
};
layerId = "4CDE908C-C807-45B0-BC73-FFDEB9F34183";
paths = (
{
closed = 1;
nodes = (
"1036 1459 LINE",
"921 1474 LINE",
"369 795 LINE",
"333 751 OFFCURVE",
"298 708 OFFCURVE",
"262 664 CURVE",
"205 443 LINE"
);
},
{
closed = 1;
nodes = (
"283 0 LINE",
"283 1434 LINE SMOOTH",
"185 1434 LINE",
"185 0 LINE"
);
},
{
closed = 1;
nodes = (
"1057 0 LINE",
"549 905 LINE",
"459 841 LINE",
"936 0 LINE"
);
}
);
width = 1079;
},
{
anchors = (
{
name = bottom;
position = "{706, 0}";
},
{
name = top;
position = "{706, 1434}";
}
);
background = {
anchors = (
{
name = bottom;
position = "{665, 0}";
},
{
name = top;
position = "{665, 1434}";
}
);
paths = (
{
closed = 1;
nodes = (
"1321 1459 LINE",
"976 1484 LINE",
"559 966 LINE SMOOTH",
"513 909 OFFCURVE",
"487 865 OFFCURVE",
"460 786 CURVE",
"461 419 LINE"
);
},
{
closed = 1;
nodes = (
"478 0 LINE",
"478 1434 LINE SMOOTH",
"164 1434 LINE",
"164 0 LINE"
);
},
{
closed = 1;
nodes = (
"1341 0 LINE",
"853 925 LINE",
"600 759 LINE",
"970 0 LINE"
);
}
);
};
layerId = "7FD739B0-27A2-4428-8CD0-260441CCC696";
paths = (
{
closed = 1;
nodes = (
"1321 1459 LINE",
"976 1484 LINE",
"559 966 LINE SMOOTH",
"513 909 OFFCURVE",
"487 865 OFFCURVE",
"460 786 CURVE",
"461 419 LINE"
);
},
{
closed = 1;
nodes = (
"478 0 LINE",
"478 1434 LINE SMOOTH",
"164 1434 LINE",
"164 0 LINE"
);
},
{
closed = 1;
nodes = (
"1341 0 LINE",
"853 925 LINE",
"600 759 LINE",
"970 0 LINE"
);
}
);
width = 1329;
}
);
unicode = 004B;
},
{
color = 5;
glyphname = L;
lastChange = "2020-02-13 16:48:11 +0000";
layers = (
{
anchors = (
{
name = bottom;
position = "{560, 0}";
},
{
name = center;
position = "{730, 746}";
},
{
name = top;
position = "{272, 1434}";
},
{
name = topright;
position = "{742, 1461}";
}
);
background = {
anchors = (
{
name = bottom;
position = "{482, 0}";
},
{
name = center;
position = "{482, 717}";
},
{
name = top;
position = "{272, 1344}";
},
{
name = topright;
position = "{944, 1434}";
}
);
paths = (
{
closed = 1;
nodes = (
"932 0 LINE",
"932 152 LINE",
"356 152 LINE",
"356 1434 LINE",
"188 1434 LINE",
"188 0 LINE"
);
}
);
};
layerId = "90678D68-BBCC-4545-9AE9-72D37A9CD052";
paths = (
{
closed = 1;
nodes = (
"932 0 LINE",
"932 152 LINE",
"356 152 LINE",
"356 1434 LINE",
"188 1434 LINE",
"188 0 LINE"
);
}
);
width = 964;
},
{
anchors = (
{
name = bottom;
position = "{469, 0}";
},
{
name = center;
position = "{681, 707}";
},
{
name = top;
position = "{235, 1434}";
},
{
name = topright;
position = "{746, 1455}";
}
);
background = {
anchors = (
{
name = bottom;
position = "{469, 0}";
},
{
name = center;
position = "{469, 717}";
},
{
name = top;
position = "{229, 1364}";
},
{
name = topright;
position = "{918, 1434}";
}
);
paths = (
{
closed = 1;
nodes = (
"858 0 LINE",
"858 90 LINE",
"283 90 LINE",
"283 1434 LINE",
"184 1434 LINE",
"184 0 LINE"
);
}
);
};
layerId = "4CDE908C-C807-45B0-BC73-FFDEB9F34183";
paths = (
{
closed = 1;
nodes = (
"858 0 LINE",
"858 90 LINE",
"283 90 LINE",
"285 1434 LINE",
"184 1434 LINE",
"184 0 LINE"
);
}
);
width = 938;
},
{
anchors = (
{
name = bottom;
position = "{591, 0}";
},
{
name = center;
position = "{784, 782}";
},
{
name = top;
position = "{327, 1434}";
},
{
name = topright;
position = "{766, 1455}";
}
);
background = {
anchors = (
{
name = bottom;
position = "{524, 0}";
},
{
name = center;
position = "{534, 717}";
},
{
name = top;
position = "{324, 1384}";
},
{
name = topright;
position = "{1027, 1434}";
}
);
paths = (
{
closed = 1;
nodes = (
"1018 0 LINE",
"1018 292 LINE",
"478 292 LINE",
"478 1434 LINE",
"164 1434 LINE",
"164 0 LINE"
);
}
);
};
layerId = "7FD739B0-27A2-4428-8CD0-260441CCC696";
paths = (
{
closed = 1;
nodes = (
"1018 0 LINE",
"1018 292 LINE",
"478 292 LINE",
"478 1434 LINE",
"164 1434 LINE",
"164 0 LINE"
);
}
);
width = 1047;
}
);
unicode = 004C;
},
{
color = 5;
glyphname = M;
lastChange = "2020-02-05 18:53:06 +0000";
layers = (
{
anchors = (
{
name = bottom;
position = "{920, 0}";
},
{
name = top;
position = "{920, 1434}";
}
);
background = {
anchors = (
{
name = bottom;
position = "{920, 0}";
},
{
name = top;
position = "{920, 1434}";
}
);
paths = (
{
closed = 1;
nodes = (
"347 0 LINE",
"347 902 LINE SMOOTH",
"347 981 OFFCURVE",
"347 1151 OFFCURVE",
"342 1214 CURVE",
"346 1214 LINE",
"356 1170 OFFCURVE",
"368 1135 OFFCURVE",
"388 1096 CURVE SMOOTH",
"877 0 LINE",
"959 0 LINE",
"1449 1104 LINE SMOOTH",
"1467 1148 OFFCURVE",
"1480 1181 OFFCURVE",
"1493 1233 CURVE",
"1497 1233 LINE",
"1488 1139 OFFCURVE",
"1486 1014 OFFCURVE",
"1486 923 CURVE SMOOTH",
"1486 0 LINE",
"1650 0 LINE",
"1650 1434 LINE",
"1440 1434 LINE",
"991 443 LINE SMOOTH",
"971 399 OFFCURVE",
"941 311 OFFCURVE",
"922 259 CURVE",
"916 259 LINE",
"905 303 OFFCURVE",
"868 399 OFFCURVE",
"850 441 CURVE SMOOTH",
"410 1434 LINE",
"188 1434 LINE",
"188 0 LINE"
);
}
);
};
layerId = "90678D68-BBCC-4545-9AE9-72D37A9CD052";
paths = (
{
closed = 1;
nodes = (
"347 0 LINE",
"347 902 LINE SMOOTH",
"347 981 OFFCURVE",
"347 1151 OFFCURVE",
"342 1214 CURVE",
"346 1214 LINE",
"356 1170 OFFCURVE",
"368 1135 OFFCURVE",
"388 1096 CURVE SMOOTH",
"877 0 LINE",
"959 0 LINE",
"1449 1104 LINE SMOOTH",
"1467 1148 OFFCURVE",
"1480 1181 OFFCURVE",
"1493 1233 CURVE",
"1497 1233 LINE",
"1488 1139 OFFCURVE",
"1486 1014 OFFCURVE",
"1486 923 CURVE SMOOTH",
"1486 0 LINE",
"1650 0 LINE",
"1650 1434 LINE",
"1440 1434 LINE",
"991 443 LINE SMOOTH",
"971 399 OFFCURVE",
"941 311 OFFCURVE",
"922 259 CURVE",
"916 259 LINE",
"905 303 OFFCURVE",
"868 399 OFFCURVE",
"850 441 CURVE SMOOTH",
"410 1434 LINE",
"188 1434 LINE",
"188 0 LINE"
);
}
);
width = 1838;
},
{
anchors = (
{
name = bottom;
position = "{856, 0}";
},
{
name = top;
position = "{853, 1434}";
}
);
background = {
anchors = (
{
name = bottom;
position = "{853, 0}";
},
{
name = top;
position = "{853, 1434}";
}
);
paths = (
{
closed = 1;
nodes = (
"283 0 LINE",
"283 962 LINE SMOOTH",
"283 1044 OFFCURVE",
"283 1175 OFFCURVE",
"278 1234 CURVE",
"282 1234 LINE",
"287 1207 OFFCURVE",
"295 1175 OFFCURVE",
"304 1151 CURVE SMOOTH",
"840 0 LINE",
"872 0 LINE",
"1390 1119 LINE SMOOTH",
"1401 1143 OFFCURVE",
"1422 1190 OFFCURVE",
"1434 1229 CURVE",
"1438 1229 LINE",
"1429 1122 OFFCURVE",
"1427 1055 OFFCURVE",
"1427 983 CURVE SMOOTH",
"1427 0 LINE",
"1522 0 LINE",
"1522 1434 LINE",
"1434 1434 LINE",
"898 268 LINE SMOOTH",
"885 239 OFFCURVE",
"870 186 OFFCURVE",
"862 160 CURVE",
"856 160 LINE",
"848 179 OFFCURVE",
"835 228 OFFCURVE",
"815 268 CURVE SMOOTH",
"275 1434 LINE",
"184 1434 LINE",
"184 0 LINE"
);
}
);
};
layerId = "4CDE908C-C807-45B0-BC73-FFDEB9F34183";
paths = (
{
closed = 1;
nodes = (
"283 0 LINE",
"283 962 LINE SMOOTH",
"283 1044 OFFCURVE",
"283 1175 OFFCURVE",
"278 1234 CURVE",
"282 1234 LINE",
"287 1207 OFFCURVE",
"295 1175 OFFCURVE",
"304 1151 CURVE SMOOTH",
"840 0 LINE",
"872 0 LINE",
"1390 1119 LINE SMOOTH",
"1401 1143 OFFCURVE",
"1422 1190 OFFCURVE",
"1434 1229 CURVE",
"1438 1229 LINE",
"1429 1122 OFFCURVE",
"1427 1055 OFFCURVE",
"1427 983 CURVE SMOOTH",
"1427 0 LINE",
"1522 0 LINE",
"1522 1434 LINE",
"1434 1434 LINE",
"898 268 LINE SMOOTH",
"885 239 OFFCURVE",
"870 186 OFFCURVE",
"862 160 CURVE",
"856 160 LINE",
"843 197 OFFCURVE",
"832 234 OFFCURVE",
"815 268 CURVE SMOOTH",
"275 1434 LINE",
"184 1434 LINE",
"184 0 LINE"
);
}
);
width = 1706;
},
{
anchors = (
{
name = bottom;
position = "{979, 0}";
},
{
name = top;
position = "{980, 1434}";
}
);
background = {
anchors = (
{
name = bottom;
position = "{980, 0}";
},
{
name = top;
position = "{980, 1434}";
}
);
paths = (
{
closed = 1;
nodes = (
"445 0 LINE",
"445 832 LINE SMOOTH",
"445 932 OFFCURVE",
"445 1111 OFFCURVE",
"440 1164 CURVE",
"444 1164 LINE",
"454 1099 OFFCURVE",
"464 1047 OFFCURVE",
"473 1023 CURVE SMOOTH",
"837 0 LINE",
"1102 0 LINE",
"1459 1024 LINE SMOOTH",
"1476 1074 OFFCURVE",
"1483 1113 OFFCURVE",
"1493 1173 CURVE",
"1497 1173 LINE",
"1496 1050 OFFCURVE",
"1496 933 OFFCURVE",
"1496 833 CURVE SMOOTH",
"1496 0 LINE",
"1799 0 LINE",
"1799 1434 LINE",
"1317 1434 LINE",
"1051 663 LINE",
"1029 576 OFFCURVE",
"1007 488 OFFCURVE",
"985 401 CURVE",
"979 401 LINE",
"956 488 OFFCURVE",
"933 574 OFFCURVE",
"910 661 CURVE",
"657 1434 LINE",
"165 1434 LINE",
"165 0 LINE"
);
}
);
};
guideLines = (
{
position = "{982, 1015}";
}
);
layerId = "7FD739B0-27A2-4428-8CD0-260441CCC696";
paths = (
{
closed = 1;
nodes = (
"445 0 LINE",
"445 832 LINE SMOOTH",
"445 932 OFFCURVE",
"440 1074 OFFCURVE",
"440 1164 CURVE",
"444 1164 LINE",
"454 1099 OFFCURVE",
"464 1047 OFFCURVE",
"473 1023 CURVE SMOOTH",
"837 0 LINE",
"1102 0 LINE",
"1459 1024 LINE SMOOTH",
"1476 1074 OFFCURVE",
"1483 1113 OFFCURVE",
"1493 1173 CURVE",
"1497 1173 LINE",
"1496 1050 OFFCURVE",
"1496 933 OFFCURVE",
"1496 833 CURVE SMOOTH",
"1496 0 LINE",
"1799 0 LINE",
"1799 1434 LINE",
"1317 1434 LINE",
"1051 663 LINE SMOOTH",
"1029 576 OFFCURVE",
"1007 488 OFFCURVE",
"985 401 CURVE",
"979 401 LINE",
"956 488 OFFCURVE",
"933 574 OFFCURVE",
"910 661 CURVE SMOOTH",
"657 1434 LINE",
"165 1434 LINE",
"165 0 LINE"
);
}
);
width = 1960;
}
);
unicode = 004D;
},
{
color = 5;
glyphname = N;
lastChange = "2020-02-04 05:09:25 +0000";
layers = (
{
anchors = (
{
name = bottom;
position = "{767, 0}";
},
{
name = top;
position = "{797, 1434}";
}
);
background = {
anchors = (
{
name = bottom;
position = "{766, 0}";
},
{
name = top;
position = "{766, 1354}";
}
);
paths = (
{
closed = 1;
nodes = (
"354 0 LINE",
"354 1037 LINE SMOOTH",
"354 1101 OFFCURVE",
"352 1224 OFFCURVE",
"346 1255 CURVE",
"352 1255 LINE",
"363 1226 OFFCURVE",
"387 1171 OFFCURVE",
"404 1145 CURVE SMOOTH",
"1139 0 LINE",
"1345 0 LINE",
"1344 1434 LINE",
"1178 1434 LINE",
"1178 424 LINE SMOOTH",
"1178 351 OFFCURVE",
"1182 246 OFFCURVE",
"1189 194 CURVE",
"1185 194 LINE",
"1178 210 OFFCURVE",
"1142 281 OFFCURVE",
"1124 310 CURVE SMOOTH",
"406 1435 LINE",
"188 1435 LINE",
"188 0 LINE"
);
}
);
};
layerId = "90678D68-BBCC-4545-9AE9-72D37A9CD052";
paths = (
{
closed = 1;
nodes = (
"354 0 LINE",
"354 1037 LINE SMOOTH",
"354 1101 OFFCURVE",
"352 1224 OFFCURVE",
"346 1255 CURVE",
"352 1255 LINE",
"363 1226 OFFCURVE",
"387 1171 OFFCURVE",
"404 1145 CURVE SMOOTH",
"1139 0 LINE",
"1345 0 LINE",
"1344 1434 LINE",
"1178 1434 LINE",
"1178 424 LINE SMOOTH",
"1178 351 OFFCURVE",
"1182 246 OFFCURVE",
"1189 194 CURVE",
"1185 194 LINE",
"1178 210 OFFCURVE",
"1142 281 OFFCURVE",
"1124 310 CURVE SMOOTH",
"406 1435 LINE",
"188 1435 LINE",
"188 0 LINE"
);
}
);
width = 1533;
},
{
anchors = (
{
name = bottom;
position = "{726, 0}";
},
{
name = top;
position = "{762, 1434}";
}
);
background = {
anchors = (
{
name = bottom;
position = "{726, 0}";
},
{
name = top;
position = "{726, 1374}";
}
);
paths = (
{
closed = 1;
nodes = (
"284 0 LINE",
"284 1057 LINE SMOOTH",
"284 1121 OFFCURVE",
"282 1244 OFFCURVE",
"276 1275 CURVE",
"282 1275 LINE",
"293 1246 OFFCURVE",
"315 1191 OFFCURVE",
"334 1165 CURVE SMOOTH",
"1190 0 LINE",
"1268 0 LINE",
"1267 1434 LINE",
"1169 1434 LINE",
"1169 394 LINE SMOOTH",
"1169 321 OFFCURVE",
"1173 216 OFFCURVE",
"1180 164 CURVE",
"1176 164 LINE",
"1169 180 OFFCURVE",
"1136 251 OFFCURVE",
"1115 280 CURVE SMOOTH",
"258 1435 LINE",
"184 1435 LINE",
"184 0 LINE"
);
}
);
};
layerId = "4CDE908C-C807-45B0-BC73-FFDEB9F34183";
paths = (
{
closed = 1;
nodes = (
"284 0 LINE",
"284 1057 LINE SMOOTH",
"284 1121 OFFCURVE",
"282 1244 OFFCURVE",
"276 1275 CURVE",
"282 1275 LINE",
"293 1246 OFFCURVE",
"315 1191 OFFCURVE",
"334 1165 CURVE SMOOTH",
"1190 0 LINE",
"1268 0 LINE",
"1267 1434 LINE",
"1169 1434 LINE",
"1169 394 LINE SMOOTH",
"1169 321 OFFCURVE",
"1173 216 OFFCURVE",
"1180 164 CURVE",
"1176 164 LINE",
"1169 180 OFFCURVE",
"1136 251 OFFCURVE",
"1115 280 CURVE SMOOTH",
"258 1435 LINE",
"184 1435 LINE",
"184 0 LINE"
);
}
);
width = 1452;
},
{
anchors = (
{
name = bottom;
position = "{809, 0}";
},
{
name = top;
position = "{809, 1434}";
}
);
background = {
anchors = (
{
name = bottom;
position = "{809, 0}";
},
{
name = top;
position = "{809, 1384}";
}
);
paths = (
{
closed = 1;
nodes = (
"459 0 LINE",
"459 787 LINE SMOOTH",
"459 851 OFFCURVE",
"457 974 OFFCURVE",
"451 1005 CURVE",
"457 1005 LINE",
"468 976 OFFCURVE",
"493 919 OFFCURVE",
"509 895 CURVE SMOOTH",
"1110 0 LINE",
"1454 0 LINE",
"1453 1434 LINE",
"1159 1434 LINE",
"1159 684 LINE SMOOTH",
"1159 611 OFFCURVE",
"1163 506 OFFCURVE",
"1170 454 CURVE",
"1166 454 LINE",
"1159 470 OFFCURVE",
"1124 543 OFFCURVE",
"1105 570 CURVE SMOOTH",
"521 1435 LINE",
"164 1435 LINE",
"164 0 LINE"
);
}
);
};
layerId = "7FD739B0-27A2-4428-8CD0-260441CCC696";
paths = (
{
closed = 1;
nodes = (
"459 0 LINE",
"459 787 LINE SMOOTH",
"459 851 OFFCURVE",
"457 974 OFFCURVE",
"451 1005 CURVE",
"457 1005 LINE",
"468 976 OFFCURVE",
"493 919 OFFCURVE",
"509 895 CURVE SMOOTH",
"1110 0 LINE",
"1454 0 LINE",
"1453 1434 LINE",
"1159 1434 LINE",
"1159 684 LINE SMOOTH",
"1159 611 OFFCURVE",
"1163 506 OFFCURVE",
"1170 454 CURVE",
"1166 454 LINE",
"1159 470 OFFCURVE",
"1124 543 OFFCURVE",
"1105 570 CURVE SMOOTH",
"521 1435 LINE",
"164 1435 LINE",
"164 0 LINE"
);
}
);
width = 1618;
}
);
unicode = 004E;
},
{
color = 5;
glyphname = O;
lastChange = "2020-02-04 23:34:45 +0000";
layers = (
{
anchors = (
{
name = bottom;
position = "{773, 0}";
},
{
name = center;
position = "{773, 717}";
},
{
name = ogonek;
position = "{898, 0}";
},
{
name = top;
position = "{773, 1434}";
}
);
background = {
anchors = (
{
name = bottom;
position = "{775, 0}";
},
{
name = center;
position = "{775, 717}";
},
{
name = top;
position = "{775, 1354}";
},
{
name = topright;
position = "{1527, 1434}";
}
);
paths = (
{
closed = 1;
nodes = (
"1201 -25 OFFCURVE",
"1450 290 OFFCURVE",
"1450 712 CURVE",
"1453 1136 OFFCURVE",
"1201 1457 OFFCURVE",
"773 1457 CURVE SMOOTH",
"351 1457 OFFCURVE",
"95 1136 OFFCURVE",
"95 712 CURVE SMOOTH",
"95 290 OFFCURVE",
"351 -25 OFFCURVE",
"773 -25 CURVE SMOOTH"
);
},
{
closed = 1;
nodes = (
"452 135 OFFCURVE",
"279 364 OFFCURVE",
"279 712 CURVE SMOOTH",
"279 1063 OFFCURVE",
"452 1296 OFFCURVE",
"773 1296 CURVE SMOOTH",
"1092 1296 OFFCURVE",
"1263 1063 OFFCURVE",
"1263 712 CURVE",
"1264 364 OFFCURVE",
"1092 135 OFFCURVE",
"773 135 CURVE SMOOTH"
);
}
);
};
guideLines = (
{
position = "{719, 713}";
},
{
angle = 90;
position = "{766, 629}";
}
);
layerId = "90678D68-BBCC-4545-9AE9-72D37A9CD052";
paths = (
{
closed = 1;
nodes = (
"1201 -25 OFFCURVE",
"1450 290 OFFCURVE",
"1450 712 CURVE SMOOTH",
"1453 1136 OFFCURVE",
"1201 1457 OFFCURVE",
"773 1457 CURVE SMOOTH",
"351 1457 OFFCURVE",
"95 1136 OFFCURVE",
"95 712 CURVE SMOOTH",
"95 290 OFFCURVE",
"351 -25 OFFCURVE",
"773 -25 CURVE SMOOTH"
);
},
{
closed = 1;
nodes = (
"452 135 OFFCURVE",
"279 364 OFFCURVE",
"279 712 CURVE SMOOTH",
"279 1063 OFFCURVE",
"452 1296 OFFCURVE",
"773 1296 CURVE SMOOTH",
"1092 1296 OFFCURVE",
"1263 1063 OFFCURVE",
"1263 712 CURVE SMOOTH",
"1264 364 OFFCURVE",
"1092 135 OFFCURVE",
"773 135 CURVE SMOOTH"
);
}
);
width = 1545;
},
{
anchors = (
{
name = bottom;
position = "{780, 0}";
},
{
name = center;
position = "{780, 717}";
},
{
name = ogonek;
position = "{888, 0}";
},
{
name = top;
position = "{765, 1434}";
}
);
background = {
anchors = (
{
name = bottom;
position = "{780, 0}";
},
{
name = center;
position = "{780, 717}";
},
{
name = top;
position = "{780, 1384}";
},
{
name = topright;
position = "{1539, 1434}";
}
);
paths = (
{
closed = 1;
nodes = (
"1180 -25 OFFCURVE",
"1450 268 OFFCURVE",
"1450 712 CURVE",
"1453 1161 OFFCURVE",
"1183 1457 OFFCURVE",
"770 1457 CURVE SMOOTH",
"372 1457 OFFCURVE",
"109 1161 OFFCURVE",
"109 712 CURVE SMOOTH",
"109 268 OFFCURVE",
"372 -25 OFFCURVE",
"770 -25 CURVE SMOOTH"
);
},
{
closed = 1;
nodes = (
"433 65 OFFCURVE",
"211 322 OFFCURVE",
"211 712 CURVE SMOOTH",
"211 1107 OFFCURVE",
"433 1367 OFFCURVE",
"770 1367 CURVE SMOOTH",
"1117 1367 OFFCURVE",
"1346 1107 OFFCURVE",
"1346 713 CURVE",
"1347 322 OFFCURVE",
"1118 65 OFFCURVE",
"770 65 CURVE SMOOTH"
);
}
);
};
guideLines = (
{
position = "{716, 713}";
},
{
angle = 90;
position = "{763, 629}";
}
);
layerId = "4CDE908C-C807-45B0-BC73-FFDEB9F34183";
paths = (
{
closed = 1;
nodes = (
"1180 -25 OFFCURVE",
"1450 268 OFFCURVE",
"1450 712 CURVE SMOOTH",
"1453 1161 OFFCURVE",
"1183 1457 OFFCURVE",
"770 1457 CURVE SMOOTH",
"372 1457 OFFCURVE",
"109 1161 OFFCURVE",
"109 712 CURVE SMOOTH",
"109 268 OFFCURVE",
"372 -25 OFFCURVE",
"770 -25 CURVE SMOOTH"
);
},
{
closed = 1;
nodes = (
"433 65 OFFCURVE",
"211 322 OFFCURVE",
"211 712 CURVE SMOOTH",
"211 1107 OFFCURVE",
"433 1367 OFFCURVE",
"770 1367 CURVE SMOOTH",
"1117 1367 OFFCURVE",
"1346 1107 OFFCURVE",
"1346 713 CURVE SMOOTH",
"1347 322 OFFCURVE",
"1118 65 OFFCURVE",
"770 65 CURVE SMOOTH"
);
}
);
width = 1559;
},
{
anchors = (
{
name = bottom;
position = "{777, 0}";
},
{
name = center;
position = "{777, 717}";
},
{
name = ogonek;
position = "{933, 0}";
},
{
name = top;
position = "{777, 1434}";
}
);
background = {
anchors = (
{
name = bottom;
position = "{779, 0}";
},
{
name = center;
position = "{779, 717}";
},
{
name = top;
position = "{779, 1384}";
},
{
name = topright;
position = "{1535, 1434}";
}
);
paths = (
{
closed = 1;
nodes = (
"1198 -25 OFFCURVE",
"1479 268 OFFCURVE",
"1479 712 CURVE",
"1482 1161 OFFCURVE",
"1201 1457 OFFCURVE",
"772 1457 CURVE SMOOTH",
"351 1457 OFFCURVE",
"74 1161 OFFCURVE",
"74 712 CURVE SMOOTH",
"74 268 OFFCURVE",
"351 -25 OFFCURVE",
"772 -25 CURVE SMOOTH"
);
},
{
closed = 1;
nodes = (
"555 245 OFFCURVE",
"410 430 OFFCURVE",
"410 712 CURVE SMOOTH",
"410 998 OFFCURVE",
"555 1186 OFFCURVE",
"774 1186 CURVE SMOOTH",
"997 1186 OFFCURVE",
"1144 998 OFFCURVE",
"1144 712 CURVE",
"1145 430 OFFCURVE",
"998 245 OFFCURVE",
"774 245 CURVE SMOOTH"
);
}
);
};
guideLines = (
{
position = "{718, 713}";
showMeasurement = 1;
},
{
angle = 90;
position = "{765, 629}";
}
);
layerId = "7FD739B0-27A2-4428-8CD0-260441CCC696";
paths = (
{
closed = 1;
nodes = (
"1198 -25 OFFCURVE",
"1479 268 OFFCURVE",
"1479 712 CURVE SMOOTH",
"1482 1161 OFFCURVE",
"1201 1457 OFFCURVE",
"772 1457 CURVE SMOOTH",
"351 1457 OFFCURVE",
"74 1161 OFFCURVE",
"74 712 CURVE SMOOTH",
"74 268 OFFCURVE",
"351 -25 OFFCURVE",
"772 -25 CURVE SMOOTH"
);
},
{
closed = 1;
nodes = (
"555 245 OFFCURVE",
"410 430 OFFCURVE",
"410 712 CURVE SMOOTH",
"410 998 OFFCURVE",
"555 1186 OFFCURVE",
"774 1186 CURVE SMOOTH",
"997 1186 OFFCURVE",
"1144 998 OFFCURVE",
"1144 712 CURVE SMOOTH",
"1145 430 OFFCURVE",
"998 245 OFFCURVE",
"774 245 CURVE SMOOTH"
);
}
);
width = 1553;
}
);
unicode = 004F;
},
{
color = 5;
glyphname = P;
lastChange = "2020-02-05 17:12:20 +0000";
layers = (
{
background = {
anchors = (
{
name = bottom;
position = "{572, 0}";
},
{
name = top;
position = "{572, 1434}";
}
);
paths = (
{
closed = 1;
nodes = (
"356 0 LINE",
"356 542 LINE",
"543 542 LINE SMOOTH",
"846 542 OFFCURVE",
"1064 718 OFFCURVE",
"1064 1006 CURVE SMOOTH",
"1064 1286 OFFCURVE",
"879 1434 OFFCURVE",
"582 1434 CURVE SMOOTH",
"188 1434 LINE",
"188 0 LINE"
);
},
{
closed = 1;
nodes = (
"355 1281 LINE",
"553 1282 LINE SMOOTH",
"765 1282 OFFCURVE",
"889 1199 OFFCURVE",
"889 998 CURVE SMOOTH",
"889 792 OFFCURVE",
"749 693 OFFCURVE",
"531 693 CURVE SMOOTH",
"355 693 LINE"
);
}
);
};
layerId = "90678D68-BBCC-4545-9AE9-72D37A9CD052";
paths = (
{
closed = 1;
nodes = (
"356 0 LINE",
"356 542 LINE",
"543 542 LINE SMOOTH",
"846 542 OFFCURVE",
"1064 718 OFFCURVE",
"1064 1006 CURVE SMOOTH",
"1064 1286 OFFCURVE",
"879 1434 OFFCURVE",
"582 1434 CURVE SMOOTH",
"188 1434 LINE",
"188 0 LINE"
);
},
{
closed = 1;
nodes = (
"355 1281 LINE",
"553 1282 LINE SMOOTH",
"765 1282 OFFCURVE",
"889 1199 OFFCURVE",
"889 998 CURVE SMOOTH",
"889 792 OFFCURVE",
"749 693 OFFCURVE",
"531 693 CURVE SMOOTH",
"355 693 LINE"
);
}
);
width = 1144;
},
{
background = {
anchors = (
{
name = bottom;
position = "{557, 0}";
},
{
name = top;
position = "{557, 1434}";
}
);
paths = (
{
closed = 1;
nodes = (
"283 0 LINE",
"283 576 LINE",
"539 576 LINE SMOOTH",
"798 576 OFFCURVE",
"985 739 OFFCURVE",
"985 1006 CURVE SMOOTH",
"985 1286 OFFCURVE",
"829 1434 OFFCURVE",
"578 1434 CURVE SMOOTH",
"184 1434 LINE",
"184 0 LINE"
);
},
{
closed = 1;
nodes = (
"282 1344 LINE",
"549 1345 LINE SMOOTH",
"761 1346 OFFCURVE",
"885 1244 OFFCURVE",
"885 998 CURVE SMOOTH",
"885 774 OFFCURVE",
"745 666 OFFCURVE",
"527 666 CURVE SMOOTH",
"282 666 LINE"
);
}
);
};
layerId = "4CDE908C-C807-45B0-BC73-FFDEB9F34183";
paths = (
{
closed = 1;
nodes = (
"283 0 LINE",
"283 576 LINE",
"539 576 LINE SMOOTH",
"798 576 OFFCURVE",
"985 739 OFFCURVE",
"985 1006 CURVE SMOOTH",
"985 1286 OFFCURVE",
"829 1434 OFFCURVE",
"578 1434 CURVE SMOOTH",
"184 1434 LINE",
"184 0 LINE"
);
},
{
closed = 1;
nodes = (
"282 1344 LINE",
"549 1345 LINE SMOOTH",
"761 1346 OFFCURVE",
"885 1244 OFFCURVE",
"885 998 CURVE SMOOTH",
"885 774 OFFCURVE",
"745 666 OFFCURVE",
"527 666 CURVE SMOOTH",
"282 666 LINE"
);
}
);
width = 1114;
},
{
background = {
anchors = (
{
name = bottom;
position = "{629, 0}";
},
{
name = top;
position = "{629, 1434}";
}
);
paths = (
{
closed = 1;
nodes = (
"477 0 LINE",
"477 494 LINE",
"684 494 LINE SMOOTH",
"991 494 OFFCURVE",
"1212 670 OFFCURVE",
"1212 959 CURVE SMOOTH",
"1212 1270 OFFCURVE",
"1020 1434 OFFCURVE",
"713 1434 CURVE SMOOTH",
"164 1434 LINE",
"164 0 LINE"
);
},
{
closed = 1;
nodes = (
"476 1186 LINE",
"694 1187 LINE SMOOTH",
"811 1187 OFFCURVE",
"880 1118 OFFCURVE",
"880 951 CURVE SMOOTH",
"880 808 OFFCURVE",
"799 739 OFFCURVE",
"672 739 CURVE SMOOTH",
"476 739 LINE"
);
}
);
};
layerId = "7FD739B0-27A2-4428-8CD0-260441CCC696";
paths = (
{
closed = 1;
nodes = (
"477 0 LINE",
"477 494 LINE",
"684 494 LINE SMOOTH",
"991 494 OFFCURVE",
"1212 670 OFFCURVE",
"1212 959 CURVE SMOOTH",
"1212 1270 OFFCURVE",
"1020 1434 OFFCURVE",
"713 1434 CURVE SMOOTH",
"164 1434 LINE",
"164 0 LINE"
);
},
{
closed = 1;
nodes = (
"476 1186 LINE",
"694 1187 LINE SMOOTH",
"811 1187 OFFCURVE",
"880 1118 OFFCURVE",
"880 951 CURVE SMOOTH",
"880 808 OFFCURVE",
"799 739 OFFCURVE",
"672 739 CURVE SMOOTH",
"476 739 LINE"
);
}
);
width = 1258;
}
);
unicode = 0050;
},
{
color = 5;
glyphname = Q;
lastChange = "2020-01-31 06:17:10 +0000";
layers = (
{
anchors = (
{
name = bottom;
position = "{772, 0}";
},
{
name = top;
position = "{772, 1434}";
}
);
background = {
anchors = (
{
name = bottom;
position = "{772, 0}";
},
{
name = top;
position = "{772, 1434}";
}
);
components = (
{
name = O;
}
);
paths = (
{
closed = 1;
nodes = (
"1517 -203 LINE",
"1325 -159 OFFCURVE",
"1165 -34 OFFCURVE",
"1077 140 CURVE",
"932 20 LINE",
"1043 -170 OFFCURVE",
"1223 -309 OFFCURVE",
"1426 -361 CURVE"
);
}
);
};
components = (
{
name = O;
}
);
layerId = "90678D68-BBCC-4545-9AE9-72D37A9CD052";
paths = (
{
closed = 1;
nodes = (
"1517 -203 LINE",
"1325 -159 OFFCURVE",
"1165 -34 OFFCURVE",
"1077 140 CURVE",
"932 20 LINE",
"1043 -170 OFFCURVE",
"1223 -309 OFFCURVE",
"1426 -361 CURVE"
);
}
);
width = 1544;
},
{
anchors = (
{
name = bottom;
position = "{772, 0}";
},
{
name = top;
position = "{772, 1434}";
}
);
background = {
anchors = (
{
name = bottom;
position = "{772, 0}";
},
{
name = top;
position = "{772, 1434}";
}
);
components = (
{
name = O;
}
);
paths = (
{
closed = 1;
nodes = (
"1467 -253 LINE",
"1271 -236 OFFCURVE",
"1103 -164 OFFCURVE",
"1067 70 CURVE",
"972 20 LINE",
"1030 -230 OFFCURVE",
"1238 -336 OFFCURVE",
"1446 -341 CURVE"
);
}
);
};
components = (
{
name = O;
}
);
layerId = "4CDE908C-C807-45B0-BC73-FFDEB9F34183";
paths = (
{
closed = 1;
nodes = (
"1467 -253 LINE",
"1271 -236 OFFCURVE",
"1103 -164 OFFCURVE",
"1067 70 CURVE",
"972 20 LINE",
"1030 -230 OFFCURVE",
"1238 -336 OFFCURVE",
"1446 -341 CURVE"
);
}
);
width = 1544;
},
{
anchors = (
{
name = bottom;
position = "{777, 0}";
},
{
name = top;
position = "{777, 1434}";
}
);
background = {
anchors = (
{
name = bottom;
position = "{777, 0}";
},
{
name = top;
position = "{777, 1434}";
}
);
components = (
{
name = O;
}
);
paths = (
{
closed = 1;
nodes = (
"1537 -123 LINE",
"1376 -71 OFFCURVE",
"1241 43 OFFCURVE",
"1167 190 CURVE",
"932 20 LINE",
"1036 -175 OFFCURVE",
"1205 -318 OFFCURVE",
"1396 -371 CURVE"
);
}
);
};
components = (
{
name = O;
}
);
layerId = "7FD739B0-27A2-4428-8CD0-260441CCC696";
paths = (
{
closed = 1;
nodes = (
"1537 -123 LINE",
"1376 -71 OFFCURVE",
"1241 43 OFFCURVE",
"1167 190 CURVE",
"932 20 LINE",
"1036 -175 OFFCURVE",
"1205 -318 OFFCURVE",
"1396 -371 CURVE"
);
}
);
width = 1553;
}
);
unicode = 0051;
},
{
color = 5;
glyphname = R;
lastChange = "2020-02-05 17:18:37 +0000";
layers = (
{
anchors = (
{
name = bottom;
position = "{651, 0}";
},
{
name = top;
position = "{582, 1434}";
}
);
background = {
anchors = (
{
name = bottom;
position = "{611, 0}";
},
{
name = top;
position = "{571, 1344}";
}
);
paths = (
{
closed = 1;
nodes = (
"356 0 LINE",
"356 612 LINE",
"543 612 LINE SMOOTH",
"840 612 OFFCURVE",
"1054 776 OFFCURVE",
"1054 1046 CURVE SMOOTH",
"1054 1299 OFFCURVE",
"873 1434 OFFCURVE",
"582 1434 CURVE SMOOTH",
"188 1434 LINE",
"188 0 LINE"
);
},
{
closed = 1;
nodes = (
"1184 0 LINE",
"685 751 LINE",
"555 631 LINE",
"968 0 LINE"
);
},
{
closed = 1;
nodes = (
"355 1281 LINE",
"553 1282 LINE SMOOTH",
"759 1282 OFFCURVE",
"879 1211 OFFCURVE",
"879 1038 CURVE SMOOTH",
"879 853 OFFCURVE",
"743 763 OFFCURVE",
"531 763 CURVE SMOOTH",
"355 763 LINE"
);
}
);
};
layerId = "90678D68-BBCC-4545-9AE9-72D37A9CD052";
paths = (
{
closed = 1;
nodes = (
"356 0 LINE",
"356 612 LINE",
"543 612 LINE SMOOTH",
"840 612 OFFCURVE",
"1054 776 OFFCURVE",
"1054 1046 CURVE SMOOTH",
"1054 1299 OFFCURVE",
"873 1434 OFFCURVE",
"582 1434 CURVE SMOOTH",
"188 1434 LINE",
"188 0 LINE"
);
},
{
closed = 1;
nodes = (
"1184 0 LINE",
"697 733 LINE",
"549 639 LINE",
"968 0 LINE"
);
},
{
closed = 1;
nodes = (
"355 763 LINE",
"355 1281 LINE",
"553 1282 LINE SMOOTH",
"759 1282 OFFCURVE",
"879 1211 OFFCURVE",
"879 1038 CURVE SMOOTH",
"879 853 OFFCURVE",
"743 763 OFFCURVE",
"531 763 CURVE SMOOTH"
);
}
);
width = 1223;
},
{
anchors = (
{
name = bottom;
position = "{593, 0}";
},
{
name = top;
position = "{550, 1434}";
}
);
background = {
anchors = (
{
name = bottom;
position = "{569, 0}";
},
{
name = top;
position = "{529, 1374}";
}
);
paths = (
{
closed = 1;
nodes = (
"283 0 LINE",
"283 639 LINE",
"539 639 LINE SMOOTH",
"801 639 OFFCURVE",
"989 793 OFFCURVE",
"989 1046 CURVE SMOOTH",
"989 1299 OFFCURVE",
"831 1434 OFFCURVE",
"578 1434 CURVE SMOOTH",
"184 1434 LINE",
"184 0 LINE"
);
},
{
closed = 1;
nodes = (
"1056 0 LINE",
"588 704 LINE",
"498 661 LINE",
"930 0 LINE"
);
},
{
closed = 1;
nodes = (
"282 1344 LINE",
"549 1345 LINE SMOOTH",
"762 1346 OFFCURVE",
"886 1256 OFFCURVE",
"886 1038 CURVE SMOOTH",
"886 830 OFFCURVE",
"746 729 OFFCURVE",
"527 729 CURVE SMOOTH",
"282 729 LINE"
);
}
);
};
layerId = "4CDE908C-C807-45B0-BC73-FFDEB9F34183";
paths = (
{
closed = 1;
nodes = (
"283 0 LINE",
"283 639 LINE",
"539 639 LINE SMOOTH",
"801 639 OFFCURVE",
"989 793 OFFCURVE",
"989 1046 CURVE SMOOTH",
"989 1299 OFFCURVE",
"831 1434 OFFCURVE",
"578 1434 CURVE SMOOTH",
"184 1434 LINE",
"184 0 LINE"
);
},
{
closed = 1;
nodes = (
"1056 0 LINE",
"588 704 LINE",
"498 661 LINE",
"930 0 LINE"
);
},
{
closed = 1;
nodes = (
"282 729 LINE",
"282 1344 LINE",
"549 1345 LINE SMOOTH",
"762 1346 OFFCURVE",
"886 1256 OFFCURVE",
"886 1038 CURVE SMOOTH",
"886 830 OFFCURVE",
"746 729 OFFCURVE",
"527 729 CURVE SMOOTH"
);
}
);
width = 1137;
},
{
anchors = (
{
name = bottom;
position = "{729, 0}";
},
{
name = top;
position = "{659, 1434}";
}
);
background = {
anchors = (
{
name = bottom;
position = "{669, 0}";
},
{
name = top;
position = "{639, 1374}";
}
);
paths = (
{
closed = 1;
nodes = (
"479 0 LINE",
"479 612 LINE",
"687 612 LINE SMOOTH",
"972 612 OFFCURVE",
"1197 763 OFFCURVE",
"1198 1011 CURVE SMOOTH",
"1199 1287 OFFCURVE",
"1007 1434 OFFCURVE",
"726 1434 CURVE SMOOTH",
"164 1434 LINE",
"164 0 LINE"
);
},
{
closed = 1;
nodes = (
"1367 0 LINE",
"878 751 LINE",
"606 617 LINE",
"1000 0 LINE"
);
},
{
closed = 1;
nodes = (
"478 1201 LINE",
"625 1202 LINE SMOOTH",
"780 1206 OFFCURVE",
"870 1131 OFFCURVE",
"871 993 CURVE SMOOTH",
"872 860 OFFCURVE",
"774 783 OFFCURVE",
"603 783 CURVE SMOOTH",
"478 783 LINE"
);
}
);
};
layerId = "7FD739B0-27A2-4428-8CD0-260441CCC696";
paths = (
{
closed = 1;
nodes = (
"479 0 LINE",
"479 612 LINE",
"687 612 LINE SMOOTH",
"972 612 OFFCURVE",
"1197 763 OFFCURVE",
"1198 1011 CURVE SMOOTH",
"1199 1287 OFFCURVE",
"1007 1434 OFFCURVE",
"726 1434 CURVE SMOOTH",
"164 1434 LINE",
"164 0 LINE"
);
},
{
closed = 1;
nodes = (
"1367 0 LINE",
"878 751 LINE",
"597 632 LINE",
"1000 0 LINE"
);
},
{
closed = 1;
nodes = (
"478 783 LINE",
"478 1201 LINE",
"625 1202 LINE SMOOTH",
"780 1206 OFFCURVE",
"870 1131 OFFCURVE",
"871 993 CURVE SMOOTH",
"872 860 OFFCURVE",
"774 783 OFFCURVE",
"603 783 CURVE SMOOTH"
);
}
);
width = 1337;
}
);
unicode = 0052;
},
{
color = 5;
glyphname = S;
lastChange = "2020-02-13 16:49:03 +0000";
layers = (
{
anchors = (
{
name = bottom;
position = "{534, 0}";
},
{
name = top;
position = "{544, 1434}";
}
);
background = {
anchors = (
{
name = bottom;
position = "{544, 0}";
},
{
name = top;
position = "{544, 1354}";
}
);
paths = (
{
closed = 1;
nodes = (
"805 -10 OFFCURVE",
"979 141 OFFCURVE",
"980 384 CURVE SMOOTH",
"982 874 OFFCURVE",
"303 783 OFFCURVE",
"306 1090 CURVE SMOOTH",
"307 1234 OFFCURVE",
"449 1282 OFFCURVE",
"602 1282 CURVE SMOOTH",
"733 1282 OFFCURVE",
"807 1247 OFFCURVE",
"873 1223 CURVE",
"938 1380 LINE",
"840 1419 OFFCURVE",
"731 1447 OFFCURVE",
"599 1447 CURVE SMOOTH",
"336 1447 OFFCURVE",
"138 1340 OFFCURVE",
"136 1080 CURVE SMOOTH",
"134 602 OFFCURVE",
"801 749 OFFCURVE",
"801 386 CURVE SMOOTH",
"801 252 OFFCURVE",
"723 144 OFFCURVE",
"501 144 CURVE SMOOTH",
"399 144 OFFCURVE",
"302 167 OFFCURVE",
"145 247 CURVE",
"80 98 LINE",
"240 21 OFFCURVE",
"356 -12 OFFCURVE",
"501 -11 CURVE SMOOTH"
);
}
);
};
layerId = "90678D68-BBCC-4545-9AE9-72D37A9CD052";
paths = (
{
closed = 1;
nodes = (
"795 -10 OFFCURVE",
"979 138 OFFCURVE",
"980 384 CURVE SMOOTH",
"981 564 OFFCURVE",
"895 683 OFFCURVE",
"687 785 CURVE SMOOTH",
"622 816 OFFCURVE",
"556 844 OFFCURVE",
"497 871 CURVE SMOOTH",
"387 921 OFFCURVE",
"305 982 OFFCURVE",
"306 1090 CURVE SMOOTH",
"307 1207 OFFCURVE",
"403 1282 OFFCURVE",
"602 1282 CURVE SMOOTH",
"733 1282 OFFCURVE",
"807 1247 OFFCURVE",
"873 1223 CURVE",
"938 1380 LINE",
"840 1419 OFFCURVE",
"731 1447 OFFCURVE",
"599 1447 CURVE SMOOTH",
"295 1447 OFFCURVE",
"138 1309 OFFCURVE",
"136 1080 CURVE SMOOTH",
"135 882 OFFCURVE",
"251 789 OFFCURVE",
"384 727 CURVE SMOOTH",
"449 697 OFFCURVE",
"519 670 OFFCURVE",
"583 642 CURVE SMOOTH",
"741 573 OFFCURVE",
"801 499 OFFCURVE",
"801 386 CURVE SMOOTH",
"801 230 OFFCURVE",
"697 144 OFFCURVE",
"501 144 CURVE SMOOTH",
"399 144 OFFCURVE",
"302 167 OFFCURVE",
"145 247 CURVE",
"80 98 LINE",
"240 21 OFFCURVE",
"356 -12 OFFCURVE",
"521 -11 CURVE SMOOTH"
);
}
);
width = 1088;
},
{
anchors = (
{
name = bottom;
position = "{495, 0}";
},
{
name = top;
position = "{523, 1434}";
}
);
background = {
anchors = (
{
name = bottom;
position = "{489, 0}";
},
{
name = top;
position = "{509, 1384}";
}
);
paths = (
{
closed = 1;
nodes = (
"751 -10 OFFCURVE",
"894 141 OFFCURVE",
"895 384 CURVE SMOOTH",
"897 827 OFFCURVE",
"243 747 OFFCURVE",
"246 1080 CURVE SMOOTH",
"248 1295 OFFCURVE",
"418 1367 OFFCURVE",
"602 1367 CURVE SMOOTH",
"704 1367 OFFCURVE",
"762 1347 OFFCURVE",
"813 1334 CURVE",
"838 1420 LINE",
"769 1442 OFFCURVE",
"692 1457 OFFCURVE",
"599 1457 CURVE SMOOTH",
"342 1457 OFFCURVE",
"147 1344 OFFCURVE",
"146 1070 CURVE SMOOTH",
"144 669 OFFCURVE",
"801 734 OFFCURVE",
"801 386 CURVE SMOOTH",
"801 213 OFFCURVE",
"723 74 OFFCURVE",
"501 74 CURVE SMOOTH",
"397 74 OFFCURVE",
"297 95 OFFCURVE",
"135 167 CURVE",
"110 78 LINE",
"259 15 OFFCURVE",
"366 -12 OFFCURVE",
"501 -11 CURVE SMOOTH"
);
}
);
};
layerId = "4CDE908C-C807-45B0-BC73-FFDEB9F34183";
paths = (
{
closed = 1;
nodes = (
"751 -10 OFFCURVE",
"894 141 OFFCURVE",
"895 384 CURVE SMOOTH",
"896 556 OFFCURVE",
"800 652 OFFCURVE",
"674 719 CURVE SMOOTH",
"589 765 OFFCURVE",
"495 806 OFFCURVE",
"414 850 CURVE SMOOTH",
"316 903 OFFCURVE",
"245 969 OFFCURVE",
"246 1080 CURVE SMOOTH",
"248 1295 OFFCURVE",
"418 1367 OFFCURVE",
"602 1367 CURVE SMOOTH",
"704 1367 OFFCURVE",
"762 1347 OFFCURVE",
"813 1334 CURVE",
"838 1420 LINE",
"769 1442 OFFCURVE",
"692 1457 OFFCURVE",
"599 1457 CURVE SMOOTH",
"342 1457 OFFCURVE",
"147 1344 OFFCURVE",
"146 1070 CURVE SMOOTH",
"145 916 OFFCURVE",
"241 828 OFFCURVE",
"361 765 CURVE SMOOTH",
"446 720 OFFCURVE",
"538 679 OFFCURVE",
"621 635 CURVE SMOOTH",
"721 582 OFFCURVE",
"801 506 OFFCURVE",
"801 386 CURVE SMOOTH",
"801 213 OFFCURVE",
"723 74 OFFCURVE",
"501 74 CURVE SMOOTH",
"397 74 OFFCURVE",
"297 95 OFFCURVE",
"135 167 CURVE",
"110 78 LINE",
"259 15 OFFCURVE",
"366 -12 OFFCURVE",
"501 -11 CURVE SMOOTH"
);
}
);
width = 1018;
},
{
anchors = (
{
name = bottom;
position = "{555, 0}";
},
{
name = top;
position = "{617, 1434}";
}
);
background = {
anchors = (
{
name = bottom;
position = "{574, 0}";
},
{
name = top;
position = "{579, 1384}";
}
);
paths = (
{
closed = 1;
nodes = (
"890 -20 OFFCURVE",
"1079 154 OFFCURVE",
"1080 434 CURVE SMOOTH",
"1082 908 OFFCURVE",
"453 843 OFFCURVE",
"456 1030 CURVE SMOOTH",
"457 1137 OFFCURVE",
"568 1172 OFFCURVE",
"662 1172 CURVE SMOOTH",
"793 1172 OFFCURVE",
"867 1137 OFFCURVE",
"933 1113 CURVE",
"1028 1380 LINE",
"918 1425 OFFCURVE",
"797 1457 OFFCURVE",
"649 1457 CURVE SMOOTH",
"383 1457 OFFCURVE",
"117 1327 OFFCURVE",
"116 1010 CURVE SMOOTH",
"114 565 OFFCURVE",
"781 621 OFFCURVE",
"781 426 CURVE SMOOTH",
"781 341 OFFCURVE",
"720 274 OFFCURVE",
"551 274 CURVE SMOOTH",
"436 274 OFFCURVE",
"347 297 OFFCURVE",
"185 377 CURVE",
"80 98 LINE",
"263 14 OFFCURVE",
"395 -22 OFFCURVE",
"561 -21 CURVE SMOOTH"
);
}
);
};
layerId = "7FD739B0-27A2-4428-8CD0-260441CCC696";
paths = (
{
closed = 1;
nodes = (
"890 -20 OFFCURVE",
"1079 154 OFFCURVE",
"1080 434 CURVE SMOOTH",
"1081 614 OFFCURVE",
"996 730 OFFCURVE",
"825 810 CURVE SMOOTH",
"746 847 OFFCURVE",
"663 879 OFFCURVE",
"596 906 CURVE SMOOTH",
"501 944 OFFCURVE",
"455 979 OFFCURVE",
"456 1044 CURVE SMOOTH",
"457 1118 OFFCURVE",
"535 1172 OFFCURVE",
"662 1172 CURVE SMOOTH",
"793 1172 OFFCURVE",
"868 1137 OFFCURVE",
"933 1113 CURVE",
"1028 1380 LINE",
"918 1425 OFFCURVE",
"797 1457 OFFCURVE",
"649 1457 CURVE SMOOTH",
"334 1457 OFFCURVE",
"117 1291 OFFCURVE",
"116 1010 CURVE SMOOTH",
"115 835 OFFCURVE",
"227 725 OFFCURVE",
"349 668 CURVE SMOOTH",
"433 629 OFFCURVE",
"515 599 OFFCURVE",
"601 568 CURVE SMOOTH",
"743 517 OFFCURVE",
"781 478 OFFCURVE",
"781 410 CURVE SMOOTH",
"781 324 OFFCURVE",
"691 274 OFFCURVE",
"553 274 CURVE SMOOTH",
"436 274 OFFCURVE",
"347 297 OFFCURVE",
"185 377 CURVE",
"80 98 LINE",
"263 14 OFFCURVE",
"395 -22 OFFCURVE",
"561 -21 CURVE SMOOTH"
);
}
);
width = 1148;
}
);
unicode = 0053;
},
{
color = 5;
glyphname = T;
lastChange = "2020-02-05 18:15:34 +0000";
layers = (
{
anchors = (
{
name = bottom;
position = "{538, 0}";
},
{
name = center;
position = "{538, 717}";
},
{
name = top;
position = "{538, 1434}";
}
);
background = {
anchors = (
{
name = bottom;
position = "{536, 0}";
},
{
name = center;
position = "{536, 717}";
},
{
name = top;
position = "{536, 1354}";
}
);
paths = (
{
closed = 1;
nodes = (
"621 0 LINE",
"621 1282 LINE",
"1035 1282 LINE",
"1035 1434 LINE",
"40 1434 LINE",
"40 1282 LINE",
"453 1282 LINE",
"453 0 LINE"
);
}
);
};
layerId = "90678D68-BBCC-4545-9AE9-72D37A9CD052";
paths = (
{
closed = 1;
nodes = (
"621 0 LINE",
"621 1282 LINE",
"1035 1282 LINE",
"1035 1434 LINE",
"40 1434 LINE",
"40 1282 LINE",
"453 1282 LINE",
"453 0 LINE"
);
}
);
width = 1075;
},
{
anchors = (
{
name = bottom;
position = "{524, 0}";
},
{
name = center;
position = "{524, 717}";
},
{
name = top;
position = "{524, 1434}";
}
);
background = {
anchors = (
{
name = bottom;
position = "{524, 0}";
},
{
name = center;
position = "{524, 717}";
},
{
name = top;
position = "{524, 1384}";
}
);
paths = (
{
closed = 1;
nodes = (
"573 0 LINE",
"573 1343 LINE",
"987 1343 LINE",
"987 1434 LINE",
"61 1434 LINE",
"61 1343 LINE",
"475 1343 LINE",
"475 0 LINE"
);
}
);
};
layerId = "4CDE908C-C807-45B0-BC73-FFDEB9F34183";
paths = (
{
closed = 1;
nodes = (
"573 0 LINE",
"573 1343 LINE",
"987 1343 LINE",
"987 1434 LINE",
"61 1434 LINE",
"61 1343 LINE",
"475 1343 LINE",
"475 0 LINE"
);
}
);
width = 1047;
},
{
anchors = (
{
name = bottom;
position = "{600, 0}";
},
{
name = center;
position = "{600, 717}";
},
{
name = top;
position = "{600, 1434}";
}
);
background = {
anchors = (
{
name = bottom;
position = "{603, 0}";
},
{
name = center;
position = "{600, 717}";
},
{
name = top;
position = "{600, 1384}";
}
);
paths = (
{
closed = 1;
nodes = (
"757 0 LINE",
"757 1176 LINE",
"1171 1176 LINE",
"1171 1434 LINE",
"31 1434 LINE",
"31 1176 LINE",
"444 1176 LINE",
"444 0 LINE"
);
}
);
};
layerId = "7FD739B0-27A2-4428-8CD0-260441CCC696";
paths = (
{
closed = 1;
nodes = (
"757 0 LINE",
"757 1176 LINE",
"1171 1176 LINE",
"1171 1434 LINE",
"31 1434 LINE",
"31 1176 LINE",
"444 1176 LINE",
"444 0 LINE"
);
}
);
width = 1200;
}
);
unicode = 0054;
},
{
color = 5;
glyphname = U;
lastChange = "2020-02-14 15:59:15 +0000";
layers = (
{
anchors = (
{
name = bottom;
position = "{702, 0}";
},
{
name = ogonek;
position = "{842, 28}";
},
{
name = top;
position = "{702, 1434}";
}
);
background = {
anchors = (
{
name = bottom;
position = "{703, 0}";
},
{
name = ogonek;
position = "{701, 10}";
},
{
name = top;
position = "{703, 1354}";
},
{
name = topright;
position = "{1386, 1434}";
}
);
paths = (
{
closed = 1;
nodes = (
"1068 -24 OFFCURVE",
"1236 192 OFFCURVE",
"1236 580 CURVE SMOOTH",
"1236 1434 LINE",
"1068 1434 LINE",
"1068 553 LINE SMOOTH",
"1068 289 OFFCURVE",
"964 126 OFFCURVE",
"708 126 CURVE SMOOTH",
"446 126 OFFCURVE",
"336 292 OFFCURVE",
"336 568 CURVE SMOOTH",
"336 1434 LINE",
"168 1434 LINE",
"168 557 LINE SMOOTH",
"168 188 OFFCURVE",
"328 -24 OFFCURVE",
"691 -24 CURVE SMOOTH"
);
}
);
};
layerId = "90678D68-BBCC-4545-9AE9-72D37A9CD052";
paths = (
{
closed = 1;
nodes = (
"1068 -24 OFFCURVE",
"1236 192 OFFCURVE",
"1236 580 CURVE SMOOTH",
"1236 1434 LINE",
"1068 1434 LINE",
"1068 553 LINE SMOOTH",
"1068 289 OFFCURVE",
"964 126 OFFCURVE",
"708 126 CURVE SMOOTH",
"446 126 OFFCURVE",
"336 292 OFFCURVE",
"336 568 CURVE SMOOTH",
"336 1434 LINE",
"168 1434 LINE",
"168 557 LINE SMOOTH",
"168 188 OFFCURVE",
"328 -24 OFFCURVE",
"691 -24 CURVE SMOOTH"
);
}
);
width = 1404;
},
{
anchors = (
{
name = bottom;
position = "{664, 0}";
},
{
name = ogonek;
position = "{784, 15}";
},
{
name = top;
position = "{664, 1434}";
}
);
background = {
anchors = (
{
name = bottom;
position = "{664, 0}";
},
{
name = ogonek;
position = "{749, 10}";
},
{
name = top;
position = "{664, 1384}";
},
{
name = topright;
position = "{1307, 1434}";
}
);
paths = (
{
closed = 1;
nodes = (
"1009 -24 OFFCURVE",
"1161 192 OFFCURVE",
"1161 580 CURVE SMOOTH",
"1161 1434 LINE",
"1064 1434 LINE",
"1064 573 LINE SMOOTH",
"1064 259 OFFCURVE",
"950 65 OFFCURVE",
"668 65 CURVE SMOOTH",
"383 65 OFFCURVE",
"264 254 OFFCURVE",
"264 568 CURVE SMOOTH",
"264 1434 LINE",
"166 1434 LINE",
"166 557 LINE SMOOTH",
"166 188 OFFCURVE",
"320 -24 OFFCURVE",
"669 -24 CURVE SMOOTH"
);
}
);
};
layerId = "4CDE908C-C807-45B0-BC73-FFDEB9F34183";
paths = (
{
closed = 1;
nodes = (
"1009 -24 OFFCURVE",
"1161 192 OFFCURVE",
"1161 580 CURVE SMOOTH",
"1161 1434 LINE",
"1064 1434 LINE",
"1064 573 LINE SMOOTH",
"1064 259 OFFCURVE",
"950 65 OFFCURVE",
"668 65 CURVE SMOOTH",
"383 65 OFFCURVE",
"264 254 OFFCURVE",
"264 568 CURVE SMOOTH",
"264 1434 LINE",
"166 1434 LINE",
"166 557 LINE SMOOTH",
"166 188 OFFCURVE",
"320 -24 OFFCURVE",
"669 -24 CURVE SMOOTH"
);
}
);
width = 1327;
},
{
anchors = (
{
name = bottom;
position = "{741, 0}";
},
{
name = ogonek;
position = "{918, 23}";
},
{
name = top;
position = "{741, 1434}";
}
);
background = {
anchors = (
{
name = bottom;
position = "{741, 0}";
},
{
name = ogonek;
position = "{833, 10}";
},
{
name = top;
position = "{741, 1384}";
},
{
name = topright;
position = "{1461, 1434}";
}
);
paths = (
{
closed = 1;
nodes = (
"1148 -24 OFFCURVE",
"1333 192 OFFCURVE",
"1333 580 CURVE SMOOTH",
"1333 1434 LINE",
"1020 1434 LINE",
"1020 563 LINE SMOOTH",
"1020 373 OFFCURVE",
"942 256 OFFCURVE",
"749 256 CURVE SMOOTH",
"546 256 OFFCURVE",
"461 377 OFFCURVE",
"461 578 CURVE SMOOTH",
"461 1434 LINE",
"147 1434 LINE",
"147 557 LINE SMOOTH",
"147 188 OFFCURVE",
"326 -24 OFFCURVE",
"732 -24 CURVE SMOOTH"
);
}
);
};
layerId = "7FD739B0-27A2-4428-8CD0-260441CCC696";
paths = (
{
closed = 1;
nodes = (
"1148 -24 OFFCURVE",
"1333 192 OFFCURVE",
"1333 580 CURVE SMOOTH",
"1333 1434 LINE",
"1020 1434 LINE",
"1020 563 LINE SMOOTH",
"1020 373 OFFCURVE",
"942 256 OFFCURVE",
"749 256 CURVE SMOOTH",
"546 256 OFFCURVE",
"461 377 OFFCURVE",
"461 578 CURVE SMOOTH",
"461 1434 LINE",
"147 1434 LINE",
"147 557 LINE SMOOTH",
"147 188 OFFCURVE",
"326 -24 OFFCURVE",
"732 -24 CURVE SMOOTH"
);
}
);
width = 1481;
}
);
unicode = 0055;
},
{
color = 5;
glyphname = V;
lastChange = "2020-02-05 18:47:19 +0000";
layers = (
{
anchors = (
{
name = bottom;
position = "{633, 0}";
},
{
name = top;
position = "{636, 1434}";
}
);
background = {
anchors = (
{
name = bottom;
position = "{636, 0}";
},
{
name = top;
position = "{636, 1384}";
}
);
paths = (
{
closed = 1;
nodes = (
"721 -1 LINE",
"1252 1433 LINE",
"1076 1434 LINE",
"668 294 LINE SMOOTH",
"653 251 OFFCURVE",
"640 207 OFFCURVE",
"634 164 CURVE",
"630 164 LINE",
"625 206 OFFCURVE",
"614 255 OFFCURVE",
"600 291 CURVE",
"200 1433 LINE",
"16 1433 LINE",
"536 -1 LINE"
);
}
);
};
layerId = "90678D68-BBCC-4545-9AE9-72D37A9CD052";
paths = (
{
closed = 1;
nodes = (
"721 -1 LINE",
"1252 1433 LINE",
"1076 1434 LINE",
"668 294 LINE SMOOTH",
"653 251 OFFCURVE",
"640 207 OFFCURVE",
"634 164 CURVE",
"630 164 LINE",
"625 206 OFFCURVE",
"614 255 OFFCURVE",
"600 291 CURVE SMOOTH",
"200 1433 LINE",
"16 1433 LINE",
"536 -1 LINE"
);
}
);
width = 1272;
},
{
anchors = (
{
name = bottom;
position = "{606, 0}";
},
{
name = top;
position = "{619, 1434}";
}
);
background = {
anchors = (
{
name = bottom;
position = "{619, 0}";
},
{
name = top;
position = "{619, 1384}";
}
);
paths = (
{
closed = 1;
nodes = (
"639 0 LINE",
"1196 1434 LINE",
"1089 1435 LINE",
"641 264 LINE SMOOTH",
"625 221 OFFCURVE",
"613 177 OFFCURVE",
"607 134 CURVE",
"603 134 LINE",
"598 176 OFFCURVE",
"587 225 OFFCURVE",
"573 261 CURVE",
"152 1434 LINE",
"42 1434 LINE",
"564 0 LINE"
);
}
);
};
layerId = "4CDE908C-C807-45B0-BC73-FFDEB9F34183";
paths = (
{
closed = 1;
nodes = (
"639 0 LINE",
"1196 1434 LINE",
"1089 1435 LINE",
"641 264 LINE SMOOTH",
"625 221 OFFCURVE",
"613 177 OFFCURVE",
"607 134 CURVE",
"603 134 LINE",
"598 176 OFFCURVE",
"587 225 OFFCURVE",
"573 261 CURVE SMOOTH",
"152 1434 LINE",
"42 1434 LINE",
"564 0 LINE"
);
}
);
width = 1237;
},
{
anchors = (
{
name = bottom;
position = "{683, 0}";
},
{
name = top;
position = "{683, 1434}";
}
);
background = {
anchors = (
{
name = bottom;
position = "{683, 0}";
},
{
name = top;
position = "{683, 1384}";
}
);
paths = (
{
closed = 1;
nodes = (
"863 -1 LINE",
"1360 1433 LINE",
"1031 1434 LINE",
"719 427 LINE SMOOTH",
"705 383 OFFCURVE",
"691 340 OFFCURVE",
"685 297 CURVE",
"681 297 LINE",
"676 339 OFFCURVE",
"662 387 OFFCURVE",
"651 424 CURVE SMOOTH",
"350 1433 LINE",
"10 1433 LINE",
"501 -1 LINE"
);
}
);
};
layerId = "7FD739B0-27A2-4428-8CD0-260441CCC696";
paths = (
{
closed = 1;
nodes = (
"863 -1 LINE",
"1360 1433 LINE",
"1031 1434 LINE",
"719 427 LINE SMOOTH",
"705 383 OFFCURVE",
"691 340 OFFCURVE",
"685 297 CURVE",
"681 297 LINE",
"676 339 OFFCURVE",
"662 387 OFFCURVE",
"651 424 CURVE SMOOTH",
"350 1433 LINE",
"10 1433 LINE",
"501 -1 LINE"
);
}
);
width = 1366;
}
);
unicode = 0056;
},
{
color = 5;
glyphname = W;
lastChange = "2020-02-05 18:49:54 +0000";
layers = (
{
anchors = (
{
name = bottom;
position = "{957, 0}";
},
{
name = top;
position = "{975, 1434}";
}
);
background = {
anchors = (
{
name = bottom;
position = "{957, 0}";
},
{
name = top;
position = "{967, 1354}";
}
);
paths = (
{
closed = 1;
nodes = (
"640 0 LINE",
"937 1055 LINE SMOOTH",
"949 1099 OFFCURVE",
"959 1153 OFFCURVE",
"963 1199 CURVE",
"967 1199 LINE",
"969 1155 OFFCURVE",
"979 1093 OFFCURVE",
"990 1053 CURVE SMOOTH",
"1285 0 LINE",
"1482 0 LINE",
"1887 1434 LINE",
"1708 1434 LINE",
"1413 325 LINE SMOOTH",
"1402 282 OFFCURVE",
"1388 220 OFFCURVE",
"1386 187 CURVE",
"1382 187 LINE",
"1377 234 OFFCURVE",
"1369 280 OFFCURVE",
"1358 321 CURVE SMOOTH",
"1054 1434 LINE",
"893 1434 LINE",
"576 329 LINE SMOOTH",
"564 286 OFFCURVE",
"548 219 OFFCURVE",
"544 185 CURVE",
"539 185 LINE",
"537 228 OFFCURVE",
"526 289 OFFCURVE",
"515 329 CURVE SMOOTH",
"208 1434 LINE",
"25 1434 LINE",
"445 0 LINE"
);
}
);
};
layerId = "90678D68-BBCC-4545-9AE9-72D37A9CD052";
paths = (
{
closed = 1;
nodes = (
"640 0 LINE",
"937 1055 LINE SMOOTH",
"949 1099 OFFCURVE",
"959 1153 OFFCURVE",
"963 1199 CURVE",
"967 1199 LINE",
"969 1155 OFFCURVE",
"979 1093 OFFCURVE",
"990 1053 CURVE SMOOTH",
"1285 0 LINE",
"1482 0 LINE",
"1887 1434 LINE",
"1708 1434 LINE",
"1413 325 LINE SMOOTH",
"1402 282 OFFCURVE",
"1388 220 OFFCURVE",
"1386 187 CURVE",
"1382 187 LINE",
"1377 234 OFFCURVE",
"1369 280 OFFCURVE",
"1358 321 CURVE SMOOTH",
"1054 1434 LINE",
"893 1434 LINE",
"576 329 LINE SMOOTH",
"564 286 OFFCURVE",
"548 219 OFFCURVE",
"544 185 CURVE",
"539 185 LINE",
"537 228 OFFCURVE",
"526 289 OFFCURVE",
"515 329 CURVE SMOOTH",
"208 1434 LINE",
"25 1434 LINE",
"445 0 LINE"
);
}
);
width = 1913;
},
{
anchors = (
{
name = bottom;
position = "{917, 0}";
},
{
name = top;
position = "{935, 1434}";
}
);
background = {
anchors = (
{
name = bottom;
position = "{917, 0}";
},
{
name = top;
position = "{936, 1384}";
}
);
paths = (
{
closed = 1;
nodes = (
"560 0 LINE",
"904 1100 LINE SMOOTH",
"918 1144 OFFCURVE",
"926 1198 OFFCURVE",
"930 1244 CURVE",
"934 1244 LINE",
"936 1200 OFFCURVE",
"945 1138 OFFCURVE",
"957 1098 CURVE SMOOTH",
"1279 0 LINE",
"1362 0 LINE",
"1782 1434 LINE",
"1678 1434 LINE",
"1351 263 LINE SMOOTH",
"1339 220 OFFCURVE",
"1326 158 OFFCURVE",
"1324 125 CURVE",
"1320 125 LINE",
"1315 172 OFFCURVE",
"1308 218 OFFCURVE",
"1296 259 CURVE SMOOTH",
"960 1434 LINE",
"910 1434 LINE",
"554 269 LINE SMOOTH",
"541 226 OFFCURVE",
"526 159 OFFCURVE",
"522 125 CURVE",
"517 125 LINE",
"515 168 OFFCURVE",
"504 229 OFFCURVE",
"493 269 CURVE SMOOTH",
"158 1434 LINE",
"51 1434 LINE",
"476 0 LINE"
);
}
);
};
guideLines = (
{
position = "{835, 125}";
}
);
layerId = "4CDE908C-C807-45B0-BC73-FFDEB9F34183";
paths = (
{
closed = 1;
nodes = (
"560 0 LINE",
"904 1100 LINE SMOOTH",
"918 1144 OFFCURVE",
"926 1198 OFFCURVE",
"930 1244 CURVE",
"934 1244 LINE",
"936 1200 OFFCURVE",
"945 1138 OFFCURVE",
"957 1098 CURVE SMOOTH",
"1279 0 LINE",
"1362 0 LINE",
"1782 1434 LINE",
"1678 1434 LINE",
"1351 263 LINE SMOOTH",
"1339 220 OFFCURVE",
"1326 158 OFFCURVE",
"1324 125 CURVE",
"1320 125 LINE",
"1315 172 OFFCURVE",
"1308 218 OFFCURVE",
"1296 259 CURVE SMOOTH",
"960 1434 LINE",
"910 1434 LINE",
"554 269 LINE SMOOTH",
"541 226 OFFCURVE",
"526 159 OFFCURVE",
"522 125 CURVE",
"517 125 LINE",
"515 168 OFFCURVE",
"504 229 OFFCURVE",
"493 269 CURVE SMOOTH",
"158 1434 LINE",
"51 1434 LINE",
"476 0 LINE"
);
}
);
width = 1833;
},
{
anchors = (
{
name = bottom;
position = "{1029, 0}";
},
{
name = top;
position = "{1060, 1434}";
}
);
background = {
anchors = (
{
name = bottom;
position = "{1029, 0}";
},
{
name = top;
position = "{1049, 1384}";
}
);
paths = (
{
closed = 1;
nodes = (
"758 0 LINE",
"1017 945 LINE SMOOTH",
"1029 989 OFFCURVE",
"1039 1043 OFFCURVE",
"1043 1089 CURVE",
"1047 1089 LINE",
"1049 1045 OFFCURVE",
"1060 983 OFFCURVE",
"1070 943 CURVE SMOOTH",
"1314 0 LINE",
"1661 0 LINE",
"2040 1434 LINE",
"1724 1434 LINE",
"1521 475 LINE SMOOTH",
"1512 432 OFFCURVE",
"1496 370 OFFCURVE",
"1494 337 CURVE",
"1490 337 LINE",
"1485 384 OFFCURVE",
"1476 430 OFFCURVE",
"1466 471 CURVE SMOOTH",
"1224 1434 LINE",
"897 1434 LINE",
"628 479 LINE SMOOTH",
"616 436 OFFCURVE",
"600 369 OFFCURVE",
"596 335 CURVE",
"591 335 LINE",
"589 378 OFFCURVE",
"576 439 OFFCURVE",
"567 479 CURVE SMOOTH",
"361 1434 LINE",
"18 1434 LINE",
"395 0 LINE"
);
}
);
};
layerId = "7FD739B0-27A2-4428-8CD0-260441CCC696";
paths = (
{
closed = 1;
nodes = (
"758 0 LINE",
"1017 945 LINE SMOOTH",
"1029 989 OFFCURVE",
"1039 1043 OFFCURVE",
"1043 1089 CURVE",
"1047 1089 LINE",
"1049 1045 OFFCURVE",
"1060 983 OFFCURVE",
"1070 943 CURVE SMOOTH",
"1314 0 LINE",
"1661 0 LINE",
"2040 1434 LINE",
"1724 1434 LINE",
"1521 475 LINE SMOOTH",
"1512 432 OFFCURVE",
"1496 370 OFFCURVE",
"1494 337 CURVE",
"1490 337 LINE",
"1485 384 OFFCURVE",
"1476 430 OFFCURVE",
"1466 471 CURVE SMOOTH",
"1224 1434 LINE",
"897 1434 LINE",
"628 479 LINE SMOOTH",
"616 436 OFFCURVE",
"600 369 OFFCURVE",
"596 335 CURVE",
"591 335 LINE",
"589 378 OFFCURVE",
"576 439 OFFCURVE",
"567 479 CURVE SMOOTH",
"361 1434 LINE",
"18 1434 LINE",
"395 0 LINE"
);
}
);
width = 2058;
}
);
unicode = 0057;
},
{
color = 5;
glyphname = X;
lastChange = "2020-02-05 18:51:32 +0000";
layers = (
{
anchors = (
{
name = bottom;
position = "{604, 0}";
},
{
name = top;
position = "{604, 1434}";
}
);
background = {
anchors = (
{
name = bottom;
position = "{604, 0}";
},
{
name = top;
position = "{604, 1434}";
}
);
paths = (
{
closed = 1;
nodes = (
"231 0 LINE",
"573 553 LINE",
"581 569 OFFCURVE",
"605 617 OFFCURVE",
"608 624 CURVE",
"612 624 LINE",
"620 603 OFFCURVE",
"638 566 OFFCURVE",
"646 552 CURVE SMOOTH",
"978 0 LINE",
"1181 0 LINE",
"721 723 LINE",
"1172 1434 LINE",
"981 1434 LINE",
"674 932 LINE SMOOTH",
"657 905 OFFCURVE",
"636 863 OFFCURVE",
"618 828 CURVE",
"614 828 LINE",
"603 854 OFFCURVE",
"579 905 OFFCURVE",
"564 930 CURVE SMOOTH",
"269 1436 LINE",
"65 1436 LINE",
"507 723 LINE",
"27 0 LINE"
);
}
);
};
layerId = "90678D68-BBCC-4545-9AE9-72D37A9CD052";
paths = (
{
closed = 1;
nodes = (
"231 0 LINE",
"573 553 LINE SMOOTH",
"581 569 OFFCURVE",
"599 603 OFFCURVE",
"608 624 CURVE",
"612 624 LINE",
"620 603 OFFCURVE",
"635 570 OFFCURVE",
"646 552 CURVE SMOOTH",
"978 0 LINE",
"1181 0 LINE",
"721 723 LINE",
"1172 1434 LINE",
"981 1434 LINE",
"674 932 LINE SMOOTH",
"657 905 OFFCURVE",
"636 863 OFFCURVE",
"618 828 CURVE",
"614 828 LINE",
"600 862 OFFCURVE",
"579 905 OFFCURVE",
"564 930 CURVE SMOOTH",
"269 1436 LINE",
"65 1436 LINE",
"507 723 LINE",
"27 0 LINE"
);
}
);
width = 1208;
},
{
anchors = (
{
name = bottom;
position = "{577, 0}";
},
{
name = top;
position = "{577, 1434}";
}
);
background = {
anchors = (
{
name = bottom;
position = "{577, 0}";
},
{
name = top;
position = "{577, 1434}";
}
);
paths = (
{
closed = 1;
nodes = (
"176 0 LINE",
"534 588 LINE",
"542 604 OFFCURVE",
"566 652 OFFCURVE",
"569 659 CURVE",
"573 659 LINE",
"581 638 OFFCURVE",
"599 601 OFFCURVE",
"607 587 CURVE SMOOTH",
"959 0 LINE",
"1081 0 LINE",
"641 723 LINE",
"1072 1434 LINE",
"959 1434 LINE",
"638 887 LINE SMOOTH",
"622 860 OFFCURVE",
"600 818 OFFCURVE",
"582 783 CURVE",
"578 783 LINE",
"567 809 OFFCURVE",
"543 860 OFFCURVE",
"528 885 CURVE SMOOTH",
"200 1434 LINE",
"88 1434 LINE",
"517 723 LINE",
"59 0 LINE"
);
}
);
};
layerId = "4CDE908C-C807-45B0-BC73-FFDEB9F34183";
paths = (
{
closed = 1;
nodes = (
"176 0 LINE",
"534 588 LINE SMOOTH",
"542 604 OFFCURVE",
"560 638 OFFCURVE",
"569 659 CURVE",
"573 659 LINE",
"581 638 OFFCURVE",
"599 601 OFFCURVE",
"607 587 CURVE SMOOTH",
"959 0 LINE",
"1081 0 LINE",
"641 723 LINE",
"1072 1434 LINE",
"959 1434 LINE",
"638 887 LINE SMOOTH",
"622 860 OFFCURVE",
"600 818 OFFCURVE",
"582 783 CURVE",
"578 783 LINE",
"563 817 OFFCURVE",
"543 860 OFFCURVE",
"528 885 CURVE SMOOTH",
"200 1434 LINE",
"88 1434 LINE",
"517 723 LINE",
"59 0 LINE"
);
}
);
width = 1153;
},
{
anchors = (
{
name = bottom;
position = "{671, 0}";
},
{
name = top;
position = "{671, 1434}";
}
);
background = {
anchors = (
{
name = bottom;
position = "{671, 0}";
},
{
name = top;
position = "{671, 1434}";
}
);
paths = (
{
closed = 1;
nodes = (
"382 0 LINE",
"642 483 LINE",
"650 499 OFFCURVE",
"674 547 OFFCURVE",
"677 554 CURVE",
"681 554 LINE",
"689 533 OFFCURVE",
"708 496 OFFCURVE",
"715 482 CURVE SMOOTH",
"963 0 LINE",
"1337 0 LINE",
"894 723 LINE",
"1313 1434 LINE",
"961 1434 LINE",
"733 1012 LINE SMOOTH",
"714 977 OFFCURVE",
"695 933 OFFCURVE",
"677 898 CURVE",
"673 898 LINE",
"662 924 OFFCURVE",
"635 975 OFFCURVE",
"623 1000 CURVE SMOOTH",
"418 1434 LINE",
"34 1435 LINE",
"465 723 LINE",
"6 0 LINE"
);
}
);
};
layerId = "7FD739B0-27A2-4428-8CD0-260441CCC696";
paths = (
{
closed = 1;
nodes = (
"382 0 LINE",
"642 483 LINE SMOOTH",
"650 499 OFFCURVE",
"668 533 OFFCURVE",
"677 554 CURVE",
"681 554 LINE",
"689 533 OFFCURVE",
"708 496 OFFCURVE",
"715 482 CURVE SMOOTH",
"963 0 LINE",
"1337 0 LINE",
"894 723 LINE",
"1313 1434 LINE",
"961 1434 LINE",
"733 1012 LINE SMOOTH",
"714 977 OFFCURVE",
"695 933 OFFCURVE",
"677 898 CURVE",
"673 898 LINE",
"659 932 OFFCURVE",
"635 975 OFFCURVE",
"623 1000 CURVE SMOOTH",
"418 1434 LINE",
"34 1435 LINE",
"465 723 LINE",
"6 0 LINE"
);
}
);
width = 1342;
}
);
unicode = 0058;
},
{
color = 5;
glyphname = Y;
lastChange = "2020-02-05 18:55:43 +0000";
layers = (
{
anchors = (
{
name = bottom;
position = "{566, 0}";
},
{
name = top;
position = "{566, 1434}";
}
);
background = {
anchors = (
{
name = bottom;
position = "{566, 0}";
},
{
name = top;
position = "{566, 1354}";
}
);
paths = (
{
closed = 1;
nodes = (
"648 0 LINE",
"648 530 LINE",
"1121 1434 LINE",
"945 1434 LINE",
"606 781 LINE SMOOTH",
"593 755 OFFCURVE",
"575 714 OFFCURVE",
"569 693 CURVE",
"566 693 LINE",
"556 720 OFFCURVE",
"535 773 OFFCURVE",
"531 781 CURVE SMOOTH",
"207 1434 LINE",
"19 1434 LINE",
"480 526 LINE",
"480 0 LINE"
);
}
);
};
layerId = "90678D68-BBCC-4545-9AE9-72D37A9CD052";
paths = (
{
closed = 1;
nodes = (
"648 0 LINE",
"648 530 LINE",
"1121 1434 LINE",
"945 1434 LINE",
"606 781 LINE SMOOTH",
"593 755 OFFCURVE",
"577 719 OFFCURVE",
"569 693 CURVE",
"566 693 LINE",
"556 720 OFFCURVE",
"540 763 OFFCURVE",
"531 781 CURVE SMOOTH",
"207 1434 LINE",
"19 1434 LINE",
"480 526 LINE",
"480 0 LINE"
);
}
);
width = 1132;
},
{
anchors = (
{
name = bottom;
position = "{553, 0}";
},
{
name = top;
position = "{553, 1434}";
}
);
background = {
anchors = (
{
name = bottom;
position = "{553, 0}";
},
{
name = top;
position = "{553, 1384}";
}
);
paths = (
{
closed = 1;
nodes = (
"599 0 LINE",
"599 550 LINE",
"1061 1434 LINE",
"955 1434 LINE",
"593 718 LINE SMOOTH",
"580 692 OFFCURVE",
"562 651 OFFCURVE",
"556 630 CURVE",
"553 630 LINE",
"543 657 OFFCURVE",
"522 710 OFFCURVE",
"518 718 CURVE SMOOTH",
"173 1434 LINE",
"59 1434 LINE",
"500 546 LINE",
"500 0 LINE"
);
}
);
};
layerId = "4CDE908C-C807-45B0-BC73-FFDEB9F34183";
paths = (
{
closed = 1;
nodes = (
"599 0 LINE",
"599 550 LINE",
"1061 1434 LINE",
"955 1434 LINE",
"593 718 LINE SMOOTH",
"580 692 OFFCURVE",
"562 651 OFFCURVE",
"556 630 CURVE",
"553 630 LINE",
"543 657 OFFCURVE",
"527 700 OFFCURVE",
"518 718 CURVE SMOOTH",
"173 1434 LINE",
"59 1434 LINE",
"500 546 LINE",
"500 0 LINE"
);
}
);
width = 1106;
},
{
anchors = (
{
name = bottom;
position = "{622, 0}";
},
{
name = top;
position = "{622, 1434}";
}
);
background = {
anchors = (
{
name = bottom;
position = "{622, 0}";
},
{
name = top;
position = "{622, 1384}";
}
);
paths = (
{
closed = 1;
nodes = (
"774 0 LINE",
"774 490 LINE",
"1245 1434 LINE",
"888 1434 LINE",
"663 911 LINE SMOOTH",
"650 880 OFFCURVE",
"632 829 OFFCURVE",
"626 803 CURVE",
"623 803 LINE",
"613 836 OFFCURVE",
"592 901 OFFCURVE",
"588 911 CURVE SMOOTH",
"375 1434 LINE",
"0 1434 LINE",
"460 486 LINE",
"460 0 LINE"
);
}
);
};
layerId = "7FD739B0-27A2-4428-8CD0-260441CCC696";
paths = (
{
closed = 1;
nodes = (
"774 0 LINE",
"774 490 LINE",
"1245 1434 LINE",
"888 1434 LINE",
"663 911 LINE SMOOTH",
"650 880 OFFCURVE",
"634 833 OFFCURVE",
"626 803 CURVE",
"623 803 LINE",
"613 836 OFFCURVE",
"599 884 OFFCURVE",
"588 911 CURVE SMOOTH",
"375 1434 LINE",
"0 1434 LINE",
"460 486 LINE",
"460 0 LINE"
);
}
);
width = 1243;
}
);
unicode = 0059;
},
{
color = 5;
glyphname = Z;
lastChange = "2020-02-08 06:38:29 +0000";
layers = (
{
anchors = (
{
name = bottom;
position = "{584, 0}";
},
{
name = center;
position = "{584, 717}";
},
{
name = top;
position = "{584, 1434}";
}
);
background = {
anchors = (
{
name = bottom;
position = "{584, 0}";
},
{
name = top;
position = "{584, 1354}";
}
);
paths = (
{
closed = 1;
nodes = (
"1104 0 LINE",
"1104 152 LINE",
"314 152 LINE",
"1084 1394 LINE",
"1084 1434 LINE",
"80 1434 LINE",
"80 1282 LINE",
"816 1282 LINE",
"53 47 LINE",
"53 0 LINE"
);
}
);
};
layerId = "90678D68-BBCC-4545-9AE9-72D37A9CD052";
paths = (
{
closed = 1;
nodes = (
"1104 0 LINE",
"1104 152 LINE",
"314 152 LINE",
"1084 1394 LINE",
"1084 1434 LINE",
"80 1434 LINE",
"80 1282 LINE",
"816 1282 LINE",
"53 47 LINE",
"53 0 LINE"
);
}
);
width = 1168;
},
{
anchors = (
{
name = bottom;
position = "{584, 0}";
},
{
name = center;
position = "{584, 717}";
},
{
name = top;
position = "{584, 1434}";
}
);
background = {
anchors = (
{
name = bottom;
position = "{584, 0}";
},
{
name = top;
position = "{584, 1384}";
}
);
paths = (
{
closed = 1;
nodes = (
"1077 0 LINE",
"1077 90 LINE",
"214 90 LINE",
"1087 1394 LINE",
"1087 1434 LINE",
"93 1434 LINE",
"93 1343 LINE",
"946 1343 LINE",
"66 47 LINE",
"66 0 LINE"
);
}
);
};
layerId = "4CDE908C-C807-45B0-BC73-FFDEB9F34183";
paths = (
{
closed = 1;
nodes = (
"1077 0 LINE",
"1077 90 LINE",
"214 90 LINE",
"1087 1394 LINE",
"1087 1434 LINE",
"93 1434 LINE",
"93 1343 LINE",
"946 1343 LINE",
"66 47 LINE",
"66 0 LINE"
);
}
);
width = 1167;
},
{
anchors = (
{
name = bottom;
position = "{622, 0}";
},
{
name = center;
position = "{622, 717}";
},
{
name = top;
position = "{622, 1434}";
}
);
background = {
anchors = (
{
name = bottom;
position = "{622, 0}";
},
{
name = top;
position = "{622, 1384}";
}
);
paths = (
{
closed = 1;
nodes = (
"1196 0 LINE",
"1196 292 LINE",
"554 292 LINE",
"1196 1394 LINE",
"1196 1434 LINE",
"80 1434 LINE",
"80 1152 LINE",
"696 1152 LINE",
"43 47 LINE",
"43 0 LINE"
);
}
);
};
layerId = "7FD739B0-27A2-4428-8CD0-260441CCC696";
paths = (
{
closed = 1;
nodes = (
"1196 0 LINE",
"1196 292 LINE",
"554 292 LINE",
"1196 1394 LINE",
"1196 1434 LINE",
"80 1434 LINE",
"80 1152 LINE",
"696 1152 LINE",
"43 47 LINE",
"43 0 LINE"
);
}
);
width = 1243;
}
);
unicode = 005A;
},
{
color = 5;
glyphname = a;
lastChange = "2020-02-12 21:54:33 +0000";
layers = (
{
anchors = (
{
name = bottom;
position = "{521, 0}";
},
{
name = ogonek;
position = "{987, 28}";
},
{
name = top;
position = "{521, 974}";
}
);
background = {
anchors = (
{
name = bottom;
position = "{521, 0}";
},
{
name = ogonek;
position = "{938, 10}";
},
{
name = top;
position = "{521, 974}";
}
);
paths = (
{
closed = 1;
nodes = (
"987 28 LINE",
"935 122 OFFCURVE",
"901 223 OFFCURVE",
"900 330 CURVE SMOOTH",
"898 618 LINE SMOOTH",
"896 872 OFFCURVE",
"769 1000 OFFCURVE",
"527 1000 CURVE SMOOTH",
"459 1000 OFFCURVE",
"362 990 OFFCURVE",
"219 974 CURVE",
"247 810 LINE",
"343 825 OFFCURVE",
"463 834 OFFCURVE",
"514 834 CURVE SMOOTH",
"656 834 OFFCURVE",
"736 768 OFFCURVE",
"736 604 CURVE SMOOTH",
"736 328 LINE SMOOTH",
"736 198 OFFCURVE",
"778 75 OFFCURVE",
"842 -39 CURVE"
);
},
{
closed = 1;
nodes = (
"601 -23 OFFCURVE",
"767 81 OFFCURVE",
"767 206 CURVE",
"736 349 LINE",
"736 217 OFFCURVE",
"632 130 OFFCURVE",
"475 130 CURVE",
"349 130 OFFCURVE",
"264 189 OFFCURVE",
"263 275 CURVE SMOOTH",
"262 364 OFFCURVE",
"357 417 OFFCURVE",
"498 417 CURVE SMOOTH",
"617 417 OFFCURVE",
"725 377 OFFCURVE",
"793 318 CURVE",
"790 468 LINE",
"691 538 OFFCURVE",
"585 573 OFFCURVE",
"473 573 CURVE SMOOTH",
"242 573 OFFCURVE",
"91 457 OFFCURVE",
"91 266 CURVE SMOOTH",
"91 64 OFFCURVE",
"247 -23 OFFCURVE",
"438 -23 CURVE"
);
}
);
};
guideLines = (
{
angle = 90;
position = "{263, 275}";
}
);
layerId = "90678D68-BBCC-4545-9AE9-72D37A9CD052";
paths = (
{
closed = 1;
nodes = (
"987 28 LINE",
"935 122 OFFCURVE",
"901 223 OFFCURVE",
"900 330 CURVE SMOOTH",
"898 618 LINE SMOOTH",
"896 872 OFFCURVE",
"769 1000 OFFCURVE",
"527 1000 CURVE SMOOTH",
"459 1000 OFFCURVE",
"362 990 OFFCURVE",
"219 974 CURVE",
"247 810 LINE",
"343 825 OFFCURVE",
"463 834 OFFCURVE",
"514 834 CURVE SMOOTH",
"656 834 OFFCURVE",
"736 768 OFFCURVE",
"736 604 CURVE SMOOTH",
"736 328 LINE SMOOTH",
"736 198 OFFCURVE",
"778 75 OFFCURVE",
"842 -39 CURVE"
);
},
{
closed = 1;
nodes = (
"621 -23 OFFCURVE",
"739 84 OFFCURVE",
"781 210 CURVE",
"736 349 LINE",
"736 217 OFFCURVE",
"632 130 OFFCURVE",
"475 130 CURVE SMOOTH",
"349 130 OFFCURVE",
"264 189 OFFCURVE",
"263 275 CURVE SMOOTH",
"262 364 OFFCURVE",
"357 417 OFFCURVE",
"498 417 CURVE SMOOTH",
"617 417 OFFCURVE",
"725 377 OFFCURVE",
"793 318 CURVE",
"790 468 LINE",
"691 538 OFFCURVE",
"585 573 OFFCURVE",
"473 573 CURVE SMOOTH",
"242 573 OFFCURVE",
"91 457 OFFCURVE",
"91 266 CURVE SMOOTH",
"91 64 OFFCURVE",
"247 -23 OFFCURVE",
"438 -23 CURVE SMOOTH"
);
}
);
width = 1042;
},
{
anchors = (
{
name = bottom;
position = "{506, 0}";
},
{
name = ogonek;
position = "{963, 8}";
},
{
name = top;
position = "{506, 974}";
}
);
background = {
anchors = (
{
name = bottom;
position = "{506, 0}";
},
{
name = ogonek;
position = "{911, 10}";
},
{
name = top;
position = "{506, 974}";
}
);
paths = (
{
closed = 1;
nodes = (
"963 8 LINE",
"905 114 OFFCURVE",
"867 229 OFFCURVE",
"866 350 CURVE SMOOTH",
"864 618 LINE SMOOTH",
"862 872 OFFCURVE",
"745 1000 OFFCURVE",
"523 1000 CURVE SMOOTH",
"455 1000 OFFCURVE",
"358 990 OFFCURVE",
"215 974 CURVE",
"223 884 LINE",
"326 903 OFFCURVE",
"455 914 OFFCURVE",
"510 914 CURVE SMOOTH",
"674 914 OFFCURVE",
"782 825 OFFCURVE",
"782 604 CURVE SMOOTH",
"782 348 LINE SMOOTH",
"782 211 OFFCURVE",
"820 81 OFFCURVE",
"878 -39 CURVE"
);
},
{
closed = 1;
nodes = (
"667 -23 OFFCURVE",
"813 99 OFFCURVE",
"813 246 CURVE",
"782 369 LINE",
"782 186 OFFCURVE",
"629 66 OFFCURVE",
"475 66 CURVE SMOOTH",
"297 66 OFFCURVE",
"195 136 OFFCURVE",
"194 260 CURVE SMOOTH",
"193 413 OFFCURVE",
"299 487 OFFCURVE",
"484 487 CURVE SMOOTH",
"607 487 OFFCURVE",
"718 439 OFFCURVE",
"789 368 CURVE",
"786 468 LINE",
"690 538 OFFCURVE",
"587 573 OFFCURVE",
"479 573 CURVE SMOOTH",
"236 573 OFFCURVE",
"97 468 OFFCURVE",
"97 261 CURVE SMOOTH",
"97 80 OFFCURVE",
"223 -23 OFFCURVE",
"444 -23 CURVE"
);
},
{
closed = 1;
nodes = (
"963 8 LINE",
"905 114 OFFCURVE",
"867 229 OFFCURVE",
"866 350 CURVE SMOOTH",
"866 618 LINE SMOOTH",
"864 872 OFFCURVE",
"746 1000 OFFCURVE",
"523 1000 CURVE SMOOTH",
"455 1000 OFFCURVE",
"358 990 OFFCURVE",
"215 974 CURVE",
"223 884 LINE",
"326 903 OFFCURVE",
"455 914 OFFCURVE",
"510 914 CURVE SMOOTH",
"674 914 OFFCURVE",
"782 825 OFFCURVE",
"782 604 CURVE SMOOTH",
"782 348 LINE SMOOTH",
"782 211 OFFCURVE",
"820 81 OFFCURVE",
"878 -39 CURVE"
);
},
{
closed = 1;
nodes = (
"667 -23 OFFCURVE",
"781 108 OFFCURVE",
"821 256 CURVE",
"782 369 LINE",
"786 189 OFFCURVE",
"630 64 OFFCURVE",
"475 64 CURVE SMOOTH",
"297 64 OFFCURVE",
"195 135 OFFCURVE",
"194 260 CURVE SMOOTH",
"193 413 OFFCURVE",
"299 487 OFFCURVE",
"484 487 CURVE SMOOTH",
"607 487 OFFCURVE",
"718 439 OFFCURVE",
"789 368 CURVE",
"786 468 LINE",
"690 538 OFFCURVE",
"587 573 OFFCURVE",
"479 573 CURVE SMOOTH",
"236 573 OFFCURVE",
"97 468 OFFCURVE",
"97 261 CURVE SMOOTH",
"97 80 OFFCURVE",
"223 -23 OFFCURVE",
"444 -23 CURVE SMOOTH"
);
}
);
};
guideLines = (
{
angle = 90;
position = "{-129, 223}";
}
);
layerId = "4CDE908C-C807-45B0-BC73-FFDEB9F34183";
paths = (
{
closed = 1;
nodes = (
"963 8 LINE",
"905 114 OFFCURVE",
"867 229 OFFCURVE",
"866 350 CURVE SMOOTH",
"866 618 LINE SMOOTH",
"866 868 OFFCURVE",
"746 1000 OFFCURVE",
"523 1000 CURVE SMOOTH",
"455 1000 OFFCURVE",
"358 990 OFFCURVE",
"215 974 CURVE",
"223 884 LINE",
"326 903 OFFCURVE",
"455 914 OFFCURVE",
"510 914 CURVE SMOOTH",
"690 914 OFFCURVE",
"782 807 OFFCURVE",
"782 604 CURVE SMOOTH",
"782 348 LINE SMOOTH",
"782 211 OFFCURVE",
"820 81 OFFCURVE",
"878 -39 CURVE"
);
},
{
closed = 1;
nodes = (
"665 -23 OFFCURVE",
"807 129 OFFCURVE",
"829 291 CURVE",
"782 369 LINE",
"786 189 OFFCURVE",
"630 64 OFFCURVE",
"475 64 CURVE SMOOTH",
"297 64 OFFCURVE",
"195 135 OFFCURVE",
"194 260 CURVE SMOOTH",
"193 413 OFFCURVE",
"299 487 OFFCURVE",
"463 487 CURVE SMOOTH",
"611 487 OFFCURVE",
"726 435 OFFCURVE",
"799 358 CURVE",
"799 454 LINE",
"705 531 OFFCURVE",
"595 573 OFFCURVE",
"463 573 CURVE SMOOTH",
"246 573 OFFCURVE",
"97 466 OFFCURVE",
"97 261 CURVE SMOOTH",
"97 80 OFFCURVE",
"223 -23 OFFCURVE",
"444 -23 CURVE SMOOTH"
);
}
);
width = 1012;
},
{
anchors = (
{
name = bottom;
position = "{551, 0}";
},
{
name = ogonek;
position = "{1057, 28}";
},
{
name = top;
position = "{552, 974}";
}
);
background = {
anchors = (
{
name = bottom;
position = "{551, 0}";
},
{
name = ogonek;
position = "{992, 10}";
},
{
name = top;
position = "{551, 974}";
}
);
paths = (
{
closed = 1;
nodes = (
"1057 28 LINE",
"1017 122 OFFCURVE",
"991 223 OFFCURVE",
"990 330 CURVE SMOOTH",
"988 618 LINE SMOOTH",
"986 872 OFFCURVE",
"828 1000 OFFCURVE",
"527 1000 CURVE SMOOTH",
"444 1000 OFFCURVE",
"325 982 OFFCURVE",
"149 954 CURVE",
"177 710 LINE",
"298 738 OFFCURVE",
"450 754 OFFCURVE",
"514 754 CURVE SMOOTH",
"624 754 OFFCURVE",
"686 710 OFFCURVE",
"686 604 CURVE SMOOTH",
"686 328 LINE SMOOTH",
"686 198 OFFCURVE",
"720 75 OFFCURVE",
"772 -39 CURVE"
);
},
{
closed = 1;
nodes = (
"566 -23 OFFCURVE",
"717 101 OFFCURVE",
"717 226 CURVE",
"686 369 LINE",
"686 279 OFFCURVE",
"606 200 OFFCURVE",
"485 200 CURVE",
"407 200 OFFCURVE",
"353 231 OFFCURVE",
"353 275 CURVE SMOOTH",
"352 339 OFFCURVE",
"411 377 OFFCURVE",
"508 377 CURVE SMOOTH",
"617 377 OFFCURVE",
"725 357 OFFCURVE",
"793 328 CURVE",
"790 498 LINE",
"690 568 OFFCURVE",
"584 603 OFFCURVE",
"483 603 CURVE SMOOTH",
"221 603 OFFCURVE",
"56 476 OFFCURVE",
"56 266 CURVE SMOOTH",
"56 64 OFFCURVE",
"218 -23 OFFCURVE",
"418 -23 CURVE"
);
}
);
};
layerId = "7FD739B0-27A2-4428-8CD0-260441CCC696";
paths = (
{
closed = 1;
nodes = (
"1057 28 LINE",
"1017 122 OFFCURVE",
"991 223 OFFCURVE",
"990 330 CURVE SMOOTH",
"988 618 LINE SMOOTH",
"986 872 OFFCURVE",
"828 1000 OFFCURVE",
"527 1000 CURVE SMOOTH",
"444 1000 OFFCURVE",
"325 982 OFFCURVE",
"149 954 CURVE",
"177 710 LINE",
"298 738 OFFCURVE",
"450 754 OFFCURVE",
"514 754 CURVE SMOOTH",
"624 754 OFFCURVE",
"686 710 OFFCURVE",
"686 604 CURVE SMOOTH",
"686 328 LINE SMOOTH",
"686 198 OFFCURVE",
"720 75 OFFCURVE",
"772 -39 CURVE"
);
},
{
closed = 1;
nodes = (
"566 -31 OFFCURVE",
"717 97 OFFCURVE",
"717 226 CURVE",
"686 369 LINE",
"686 279 OFFCURVE",
"606 200 OFFCURVE",
"485 200 CURVE SMOOTH",
"407 200 OFFCURVE",
"353 231 OFFCURVE",
"353 275 CURVE SMOOTH",
"352 339 OFFCURVE",
"411 377 OFFCURVE",
"508 377 CURVE SMOOTH",
"617 377 OFFCURVE",
"725 357 OFFCURVE",
"793 328 CURVE",
"790 498 LINE",
"690 568 OFFCURVE",
"584 603 OFFCURVE",
"483 603 CURVE SMOOTH",
"221 603 OFFCURVE",
"56 476 OFFCURVE",
"56 266 CURVE SMOOTH",
"56 58 OFFCURVE",
"218 -31 OFFCURVE",
"396 -31 CURVE SMOOTH"
);
}
);
width = 1102;
}
);
unicode = 0061;
userData = {
com.typemytype.robofont.image = {
brightness = 0;
color = (
0,
0,
1,
0
);
contrast = 1;
path = "/var/folders/wx/r1w7d8f1373_lvr_cqc1lb000000gn/T/tmpZpqwYs";
saturation = 1;
sharpness = 0;
transform = (
0,
0,
"-0.02619345181206362",
0,
"-82.40388801708153",
"-225.9234934532614"
);
};
com.typemytype.robofont.layerData = {
SegoeUI = {
anchors = (
);
components = (
);
contours = (
{
points = (
{
segmentType = line;
smooth = 1;
x = 735;
y = 416;
},
{
smooth = 0;
x = 735;
y = 329;
},
{
smooth = 0;
x = 708;
y = 257;
},
{
segmentType = curve;
smooth = 1;
x = 655;
y = 200;
},
{
smooth = 0;
x = 602;
y = 143;
},
{
smooth = 0;
x = 535;
y = 114;
},
{
segmentType = curve;
smooth = 1;
x = 454;
y = 114;
},
{
smooth = 0;
x = 395;
y = 114;
},
{
smooth = 0;
x = 347;
y = 130;
},
{
segmentType = curve;
smooth = 1;
x = 311;
y = 162;
},
{
smooth = 0;
x = 275;
y = 194;
},
{
smooth = 0;
x = 257;
y = 235;
},
{
segmentType = curve;
smooth = 1;
x = 257;
y = 285;
},
{
smooth = 0;
x = 257;
y = 354;
},
{
smooth = 0;
x = 276;
y = 402;
},
{
segmentType = curve;
smooth = 1;
x = 315;
y = 429;
},
{
smooth = 0;
x = 354;
y = 456;
},
{
smooth = 0;
x = 411;
y = 475;
},
{
segmentType = curve;
smooth = 1;
x = 487;
y = 486;
},
{
segmentType = line;
smooth = 0;
x = 734;
y = 520;
}
);
},
{
points = (
{
segmentType = line;
smooth = 1;
x = 898;
y = 668;
},
{
smooth = 0;
x = 898;
y = 795;
},
{
smooth = 0;
x = 868;
y = 891;
},
{
segmentType = curve;
smooth = 1;
x = 808;
y = 955;
},
{
smooth = 0;
x = 748;
y = 1019;
},
{
smooth = 0;
x = 658;
y = 1051;
},
{
segmentType = curve;
smooth = 1;
x = 537;
y = 1051;
},
{
smooth = 0;
x = 472;
y = 1051;
},
{
smooth = 0;
x = 410;
y = 1043;
},
{
segmentType = curve;
smooth = 1;
x = 352;
y = 1027;
},
{
smooth = 0;
x = 294;
y = 1011;
},
{
smooth = 0;
x = 240;
y = 987;
},
{
segmentType = curve;
smooth = 0;
x = 189;
y = 955;
},
{
segmentType = line;
smooth = 0;
x = 189;
y = 787;
},
{
smooth = 0;
x = 239;
y = 829;
},
{
smooth = 0;
x = 292;
y = 861;
},
{
segmentType = curve;
smooth = 1;
x = 348;
y = 882;
},
{
smooth = 0;
x = 404;
y = 903;
},
{
smooth = 0;
x = 463;
y = 914;
},
{
segmentType = curve;
smooth = 1;
x = 524;
y = 914;
},
{
smooth = 0;
x = 595;
y = 914;
},
{
smooth = 0;
x = 648;
y = 892;
},
{
segmentType = curve;
smooth = 1;
x = 683;
y = 849;
},
{
smooth = 0;
x = 718;
y = 806;
},
{
smooth = 0;
x = 736;
y = 741;
},
{
segmentType = curve;
smooth = 0;
x = 736;
y = 654;
},
{
segmentType = line;
smooth = 1;
x = 429;
y = 611;
},
{
smooth = 0;
x = 316;
y = 596;
},
{
smooth = 0;
x = 231;
y = 560;
},
{
segmentType = curve;
smooth = 1;
x = 175;
y = 504;
},
{
smooth = 0;
x = 119;
y = 448;
},
{
smooth = 0;
x = 91;
y = 372;
},
{
segmentType = curve;
smooth = 1;
x = 91;
y = 276;
},
{
smooth = 0;
x = 91;
y = 187;
},
{
smooth = 0;
x = 120;
y = 115;
},
{
segmentType = curve;
smooth = 1;
x = 178;
y = 61;
},
{
smooth = 0;
x = 236;
y = 7;
},
{
smooth = 0;
x = 316;
y = "-20";
},
{
segmentType = curve;
smooth = 1;
x = 418;
y = "-20";
},
{
smooth = 0;
x = 487;
y = "-20";
},
{
smooth = 0;
x = 548;
y = "-5";
},
{
segmentType = curve;
smooth = 1;
x = 601;
y = 26;
},
{
smooth = 0;
x = 654;
y = 57;
},
{
smooth = 0;
x = 698;
y = 103;
},
{
segmentType = curve;
smooth = 0;
x = 733;
y = 164;
},
{
segmentType = line;
smooth = 0;
x = 737;
y = 164;
},
{
segmentType = line;
smooth = 0;
x = 737;
y = 4;
},
{
segmentType = line;
smooth = 0;
x = 901;
y = 4;
}
);
}
);
lib = {
};
name = a;
unicodes = (
);
width = 1042;
};
guidelines = {
anchors = (
);
components = (
);
contours = (
);
lib = {
};
name = a;
unicodes = (
);
width = 1042;
};
};
};
},
{
color = 5;
glyphname = b;
lastChange = "2020-02-04 20:37:10 +0000";
layers = (
{
anchors = (
{
name = bottom;
position = "{600, 0}";
},
{
name = top;
position = "{600, 974}";
}
);
background = {
anchors = (
{
name = bottom;
position = "{600, 0}";
},
{
name = top;
position = "{600, 974}";
}
);
paths = (
{
closed = 1;
nodes = (
"945 -23 OFFCURVE",
"1107 186 OFFCURVE",
"1107 509 CURVE SMOOTH",
"1107 803 OFFCURVE",
"961 1000 OFFCURVE",
"669 1000 CURVE",
"517 1000 OFFCURVE",
"394 940 OFFCURVE",
"300 820 CURVE",
"297 713 LINE",
"433 810 OFFCURVE",
"503 835 OFFCURVE",
"647 836 CURVE SMOOTH",
"831 837 OFFCURVE",
"931 700 OFFCURVE",
"931 511 CURVE SMOOTH",
"931 241 OFFCURVE",
"803 130 OFFCURVE",
"645 130 CURVE SMOOTH",
"534 130 OFFCURVE",
"331 179 OFFCURVE",
"331 418 CURVE",
"330 548 LINE",
"301 397 LINE",
"299 233 OFFCURVE",
"299 -23 OFFCURVE",
"633 -23 CURVE SMOOTH"
);
},
{
closed = 1;
nodes = (
"286 0 LINE",
"335 152 LINE",
"330 231 LINE",
"330 1516 LINE",
"165 1516 LINE",
"167 0 LINE"
);
}
);
};
guideLines = (
{
position = "{576, 1516}";
}
);
layerId = "90678D68-BBCC-4545-9AE9-72D37A9CD052";
paths = (
{
closed = 1;
nodes = (
"945 -23 OFFCURVE",
"1107 186 OFFCURVE",
"1107 509 CURVE SMOOTH",
"1107 803 OFFCURVE",
"961 1000 OFFCURVE",
"669 1000 CURVE SMOOTH",
"517 1000 OFFCURVE",
"394 940 OFFCURVE",
"300 820 CURVE",
"297 713 LINE",
"425 815 OFFCURVE",
"503 841 OFFCURVE",
"646 842 CURVE SMOOTH",
"831 843 OFFCURVE",
"931 703 OFFCURVE",
"931 511 CURVE SMOOTH",
"931 241 OFFCURVE",
"803 130 OFFCURVE",
"645 130 CURVE SMOOTH",
"534 130 OFFCURVE",
"331 179 OFFCURVE",
"331 418 CURVE SMOOTH",
"330 548 LINE",
"320 498 OFFCURVE",
"311 447 OFFCURVE",
"301 397 CURVE",
"299 233 OFFCURVE",
"299 -23 OFFCURVE",
"633 -23 CURVE SMOOTH"
);
},
{
closed = 1;
nodes = (
"286 0 LINE",
"335 152 LINE",
"330 231 LINE",
"330 1516 LINE",
"165 1516 LINE",
"167 0 LINE"
);
}
);
width = 1202;
},
{
anchors = (
{
name = bottom;
position = "{574, 0}";
},
{
name = top;
position = "{574, 974}";
}
);
background = {
anchors = (
{
name = bottom;
position = "{574, 0}";
},
{
name = top;
position = "{574, 974}";
}
);
paths = (
{
closed = 1;
nodes = (
"905 -23 OFFCURVE",
"1057 186 OFFCURVE",
"1057 509 CURVE SMOOTH",
"1057 803 OFFCURVE",
"914 1000 OFFCURVE",
"629 1000 CURVE SMOOTH",
"469 1000 OFFCURVE",
"339 943 OFFCURVE",
"240 830 CURVE",
"227 713 LINE",
"386 865 OFFCURVE",
"468 904 OFFCURVE",
"637 906 CURVE SMOOTH",
"847 907 OFFCURVE",
"961 740 OFFCURVE",
"961 511 CURVE SMOOTH",
"961 190 OFFCURVE",
"797 58 OFFCURVE",
"615 58 CURVE SMOOTH",
"387 58 OFFCURVE",
"254 167 OFFCURVE",
"254 358 CURVE",
"253 448 LINE",
"235 337 LINE",
"231 84 OFFCURVE",
"345 -23 OFFCURVE",
"613 -23 CURVE SMOOTH"
);
},
{
closed = 1;
nodes = (
"210 0 LINE SMOOTH",
"264 167 LINE",
"254 231 LINE",
"254 1516 LINE",
"164 1516 LINE",
"166 0 LINE"
);
},
{
closed = 1;
nodes = (
"869 -25 OFFCURVE",
"1059 177 OFFCURVE",
"1059 483 CURVE SMOOTH",
"1059 793 OFFCURVE",
"873 998 OFFCURVE",
"580 998 CURVE SMOOTH",
"285 998 OFFCURVE",
"90 793 OFFCURVE",
"90 483 CURVE SMOOTH",
"90 177 OFFCURVE",
"285 -25 OFFCURVE",
"580 -25 CURVE SMOOTH"
);
},
{
closed = 1;
nodes = (
"343 63 OFFCURVE",
"189 230 OFFCURVE",
"189 483 CURVE SMOOTH",
"189 740 OFFCURVE",
"345 910 OFFCURVE",
"580 910 CURVE SMOOTH",
"797 910 OFFCURVE",
"960 740 OFFCURVE",
"960 483 CURVE SMOOTH",
"960 230 OFFCURVE",
"799 63 OFFCURVE",
"580 63 CURVE SMOOTH"
);
}
);
};
guideLines = (
{
position = "{575, 1516}";
}
);
layerId = "4CDE908C-C807-45B0-BC73-FFDEB9F34183";
paths = (
{
closed = 1;
nodes = (
"906 -23 OFFCURVE",
"1058 186 OFFCURVE",
"1058 509 CURVE SMOOTH",
"1058 803 OFFCURVE",
"915 1000 OFFCURVE",
"629 1000 CURVE SMOOTH",
"469 1000 OFFCURVE",
"339 943 OFFCURVE",
"228 820 CURVE",
"227 713 LINE",
"359 869 OFFCURVE",
"471 904 OFFCURVE",
"625 905 CURVE SMOOTH",
"846 906 OFFCURVE",
"959 740 OFFCURVE",
"959 511 CURVE SMOOTH",
"959 195 OFFCURVE",
"796 65 OFFCURVE",
"615 65 CURVE SMOOTH",
"387 65 OFFCURVE",
"254 171 OFFCURVE",
"254 358 CURVE SMOOTH",
"253 448 LINE",
"247 411 OFFCURVE",
"241 374 OFFCURVE",
"235 337 CURVE",
"231 84 OFFCURVE",
"345 -23 OFFCURVE",
"613 -23 CURVE SMOOTH"
);
},
{
closed = 1;
nodes = (
"210 0 LINE SMOOTH",
"264 167 LINE",
"254 231 LINE",
"254 1516 LINE",
"164 1516 LINE",
"166 0 LINE"
);
}
);
width = 1147;
},
{
anchors = (
{
name = bottom;
position = "{635, 0}";
},
{
name = top;
position = "{635, 974}";
}
);
background = {
anchors = (
{
name = bottom;
position = "{635, 0}";
},
{
name = top;
position = "{635, 974}";
}
);
paths = (
{
closed = 1;
nodes = (
"1033 -23 OFFCURVE",
"1198 186 OFFCURVE",
"1198 509 CURVE SMOOTH",
"1198 803 OFFCURVE",
"1022 1000 OFFCURVE",
"746 1000 CURVE",
"581 1000 OFFCURVE",
"454 893 OFFCURVE",
"419 820 CURVE",
"416 633 LINE",
"475 710 OFFCURVE",
"553 755 OFFCURVE",
"649 756 CURVE SMOOTH",
"791 757 OFFCURVE",
"873 668 OFFCURVE",
"873 511 CURVE SMOOTH",
"873 326 OFFCURVE",
"802 220 OFFCURVE",
"677 220 CURVE SMOOTH",
"533 220 OFFCURVE",
"450 325 OFFCURVE",
"450 508 CURVE",
"449 618 LINE",
"430 397 LINE",
"427 233 OFFCURVE",
"428 -23 OFFCURVE",
"715 -23 CURVE SMOOTH"
);
},
{
closed = 1;
nodes = (
"405 0 LINE",
"454 152 LINE",
"449 231 LINE",
"449 1516 LINE",
"133 1516 LINE",
"135 0 LINE"
);
}
);
};
guideLines = (
{
position = "{578, 1516}";
}
);
layerId = "7FD739B0-27A2-4428-8CD0-260441CCC696";
paths = (
{
closed = 1;
nodes = (
"1033 -23 OFFCURVE",
"1198 186 OFFCURVE",
"1198 509 CURVE SMOOTH",
"1198 803 OFFCURVE",
"1022 1000 OFFCURVE",
"746 1000 CURVE SMOOTH",
"581 1000 OFFCURVE",
"454 893 OFFCURVE",
"419 820 CURVE",
"416 633 LINE",
"475 710 OFFCURVE",
"553 755 OFFCURVE",
"649 756 CURVE SMOOTH",
"791 757 OFFCURVE",
"873 668 OFFCURVE",
"873 511 CURVE SMOOTH",
"873 326 OFFCURVE",
"802 220 OFFCURVE",
"677 220 CURVE SMOOTH",
"533 220 OFFCURVE",
"450 325 OFFCURVE",
"450 508 CURVE SMOOTH",
"449 618 LINE",
"442 544 OFFCURVE",
"428 471 OFFCURVE",
"428 347 CURVE SMOOTH",
"428 61 OFFCURVE",
"544 -23 OFFCURVE",
"715 -23 CURVE SMOOTH"
);
},
{
closed = 1;
nodes = (
"405 0 LINE",
"454 152 LINE",
"449 231 LINE",
"449 1516 LINE",
"133 1516 LINE",
"135 0 LINE"
);
}
);
width = 1270;
}
);
unicode = 0062;
userData = {
com.typemytype.robofont.layerData = {
SegoeUI = {
anchors = (
);
components = (
);
contours = (
{
points = (
{
segmentType = line;
smooth = 0;
x = 641;
y = "-24";
},
{
smooth = 0;
x = 786;
y = "-24";
},
{
smooth = 0;
x = 900;
y = 28;
},
{
segmentType = curve;
smooth = 1;
x = 983;
y = 131;
},
{
smooth = 0;
x = 1066;
y = 234;
},
{
smooth = 0;
x = 1108;
y = 371;
},
{
segmentType = curve;
smooth = 1;
x = 1108;
y = 542;
},
{
smooth = 0;
x = 1108;
y = 696;
},
{
smooth = 0;
x = 1071;
y = 819;
},
{
segmentType = curve;
smooth = 1;
x = 997;
y = 911;
},
{
smooth = 0;
x = 923;
y = 1003;
},
{
smooth = 0;
x = 820;
y = 1049;
},
{
segmentType = curve;
smooth = 1;
x = 689;
y = 1049;
},
{
smooth = 0;
x = 612;
y = 1049;
},
{
smooth = 0;
x = 544;
y = 1032;
},
{
segmentType = curve;
smooth = 1;
x = 485;
y = 998;
},
{
smooth = 0;
x = 426;
y = 964;
},
{
smooth = 0;
x = 376;
y = 913;
},
{
segmentType = curve;
smooth = 0;
x = 335;
y = 845;
},
{
segmentType = line;
smooth = 0;
x = 331;
y = 845;
},
{
segmentType = line;
smooth = 0;
x = 331;
y = 1517;
},
{
segmentType = line;
smooth = 0;
x = 167;
y = 1517;
},
{
segmentType = line;
smooth = 0;
x = 167;
y = 1;
},
{
segmentType = line;
smooth = 0;
x = 331;
y = 1;
},
{
segmentType = line;
smooth = 0;
x = 331;
y = 149;
},
{
segmentType = line;
smooth = 0;
x = 335;
y = 149;
},
{
smooth = 0;
x = 370;
y = 92;
},
{
smooth = 0;
x = 413;
y = 49;
},
{
segmentType = curve;
smooth = 1;
x = 464;
y = 20;
},
{
smooth = 0;
x = 515;
y = "-9";
},
{
smooth = 0;
x = 574;
y = "-23";
},
{
segmentType = curve;
smooth = 0;
x = 641;
y = "-23";
}
);
},
{
points = (
{
segmentType = curve;
smooth = 1;
x = 647;
y = 911;
},
{
smooth = 0;
x = 737;
y = 911;
},
{
smooth = 0;
x = 808;
y = 879;
},
{
segmentType = curve;
smooth = 1;
x = 861;
y = 814;
},
{
smooth = 0;
x = 914;
y = 749;
},
{
smooth = 0;
x = 940;
y = 660;
},
{
segmentType = curve;
smooth = 1;
x = 940;
y = 546;
},
{
smooth = 0;
x = 940;
y = 411;
},
{
smooth = 0;
x = 912;
y = 305;
},
{
segmentType = curve;
smooth = 1;
x = 856;
y = 229;
},
{
smooth = 0;
x = 800;
y = 153;
},
{
smooth = 0;
x = 722;
y = 115;
},
{
segmentType = curve;
smooth = 1;
x = 623;
y = 115;
},
{
smooth = 0;
x = 538;
y = 115;
},
{
smooth = 0;
x = 468;
y = 145;
},
{
segmentType = curve;
smooth = 1;
x = 413;
y = 204;
},
{
smooth = 0;
x = 358;
y = 263;
},
{
smooth = 0;
x = 330;
y = 335;
},
{
segmentType = curve;
smooth = 1;
x = 330;
y = 420;
},
{
segmentType = line;
smooth = 1;
x = 330;
y = 563;
},
{
smooth = 0;
x = 330;
y = 663;
},
{
smooth = 0;
x = 359;
y = 746;
},
{
segmentType = curve;
smooth = 1;
x = 417;
y = 812;
},
{
smooth = 0;
x = 475;
y = 878;
},
{
smooth = 0;
x = 552;
y = 911;
}
);
}
);
lib = {
};
name = b;
unicodes = (
);
width = 1204;
};
guidelines = {
anchors = (
);
components = (
);
contours = (
);
lib = {
};
name = b;
unicodes = (
);
width = 1204;
};
};
};
},
{
color = 5;
glyphname = c;
lastChange = "2020-02-17 04:47:57 +0000";
layers = (
{
anchors = (
{
name = bottom;
position = "{558, 0}";
},
{
name = top;
position = "{563, 974}";
}
);
background = {
anchors = (
{
name = bottom;
position = "{553, 0}";
},
{
name = top;
position = "{523, 974}";
}
);
paths = (
{
closed = 1;
nodes = (
"688 -23 OFFCURVE",
"811 4 OFFCURVE",
"920 45 CURVE",
"869 197 LINE",
"775 162 OFFCURVE",
"710 138 OFFCURVE",
"611 138 CURVE SMOOTH",
"397 138 OFFCURVE",
"276 248 OFFCURVE",
"276 490 CURVE SMOOTH",
"276 709 OFFCURVE",
"364 831 OFFCURVE",
"593 831 CURVE SMOOTH",
"701 831 OFFCURVE",
"787 803 OFFCURVE",
"847 776 CURVE",
"887 942 LINE",
"816 976 OFFCURVE",
"704 1000 OFFCURVE",
"592 998 CURVE SMOOTH",
"273 1000 OFFCURVE",
"95 795 OFFCURVE",
"95 485 CURVE SMOOTH",
"95 170 OFFCURVE",
"273 -23 OFFCURVE",
"578 -23 CURVE SMOOTH"
);
}
);
};
layerId = "90678D68-BBCC-4545-9AE9-72D37A9CD052";
paths = (
{
closed = 1;
nodes = (
"688 -23 OFFCURVE",
"811 4 OFFCURVE",
"920 45 CURVE",
"869 197 LINE",
"775 162 OFFCURVE",
"710 138 OFFCURVE",
"611 138 CURVE SMOOTH",
"397 138 OFFCURVE",
"276 248 OFFCURVE",
"276 490 CURVE SMOOTH",
"276 709 OFFCURVE",
"364 831 OFFCURVE",
"593 831 CURVE SMOOTH",
"701 831 OFFCURVE",
"787 803 OFFCURVE",
"847 776 CURVE",
"887 942 LINE",
"816 976 OFFCURVE",
"704 1000 OFFCURVE",
"592 998 CURVE SMOOTH",
"273 1000 OFFCURVE",
"95 795 OFFCURVE",
"95 485 CURVE SMOOTH",
"95 170 OFFCURVE",
"273 -23 OFFCURVE",
"578 -23 CURVE SMOOTH"
);
}
);
width = 946;
},
{
anchors = (
{
name = bottom;
position = "{515, 0}";
},
{
name = top;
position = "{563, 974}";
}
);
background = {
anchors = (
{
name = bottom;
position = "{495, 0}";
},
{
name = top;
position = "{455, 974}";
}
);
paths = (
{
closed = 1;
nodes = (
"679 -23 OFFCURVE",
"790 7 OFFCURVE",
"878 60 CURVE",
"844 147 LINE",
"750 97 OFFCURVE",
"663 68 OFFCURVE",
"606 68 CURVE SMOOTH",
"342 68 OFFCURVE",
"191 222 OFFCURVE",
"191 490 CURVE SMOOTH",
"191 753 OFFCURVE",
"336 906 OFFCURVE",
"588 910 CURVE SMOOTH",
"667 912 OFFCURVE",
"748 893 OFFCURVE",
"812 857 CURVE",
"852 942 LINE",
"786 980 OFFCURVE",
"690 1000 OFFCURVE",
"587 998 CURVE SMOOTH",
"271 1000 OFFCURVE",
"90 813 OFFCURVE",
"90 485 CURVE SMOOTH",
"90 162 OFFCURVE",
"266 -23 OFFCURVE",
"573 -23 CURVE SMOOTH"
);
}
);
};
layerId = "4CDE908C-C807-45B0-BC73-FFDEB9F34183";
paths = (
{
closed = 1;
nodes = (
"679 -23 OFFCURVE",
"790 7 OFFCURVE",
"878 60 CURVE",
"844 147 LINE",
"750 97 OFFCURVE",
"663 68 OFFCURVE",
"606 68 CURVE SMOOTH",
"342 68 OFFCURVE",
"191 222 OFFCURVE",
"191 490 CURVE SMOOTH",
"191 753 OFFCURVE",
"336 906 OFFCURVE",
"588 910 CURVE SMOOTH",
"667 912 OFFCURVE",
"748 893 OFFCURVE",
"812 857 CURVE",
"852 942 LINE",
"786 980 OFFCURVE",
"690 1000 OFFCURVE",
"587 998 CURVE SMOOTH",
"271 1000 OFFCURVE",
"90 813 OFFCURVE",
"90 485 CURVE SMOOTH",
"90 162 OFFCURVE",
"266 -23 OFFCURVE",
"573 -23 CURVE SMOOTH"
);
}
);
width = 909;
},
{
anchors = (
{
name = bottom;
position = "{542, 0}";
},
{
name = top;
position = "{580, 974}";
}
);
background = {
anchors = (
{
name = bottom;
position = "{542, 0}";
},
{
name = top;
position = "{582, 974}";
}
);
paths = (
{
closed = 1;
nodes = (
"682 -23 OFFCURVE",
"814 0 OFFCURVE",
"930 35 CURVE",
"859 277 LINE",
"784 254 OFFCURVE",
"732 238 OFFCURVE",
"653 238 CURVE SMOOTH",
"489 238 OFFCURVE",
"396 317 OFFCURVE",
"396 490 CURVE",
"396 645 OFFCURVE",
"470 731 OFFCURVE",
"665 731 CURVE SMOOTH",
"755 731 OFFCURVE",
"827 713 OFFCURVE",
"877 696 CURVE",
"927 942 LINE",
"844 976 OFFCURVE",
"713 1000 OFFCURVE",
"582 998 CURVE SMOOTH",
"256 1000 OFFCURVE",
"74 795 OFFCURVE",
"74 485 CURVE SMOOTH",
"74 170 OFFCURVE",
"256 -23 OFFCURVE",
"568 -23 CURVE SMOOTH"
);
}
);
};
layerId = "7FD739B0-27A2-4428-8CD0-260441CCC696";
paths = (
{
closed = 1;
nodes = (
"682 -23 OFFCURVE",
"814 0 OFFCURVE",
"930 35 CURVE",
"859 277 LINE",
"784 254 OFFCURVE",
"732 238 OFFCURVE",
"653 238 CURVE SMOOTH",
"489 238 OFFCURVE",
"396 317 OFFCURVE",
"396 490 CURVE SMOOTH",
"396 645 OFFCURVE",
"470 731 OFFCURVE",
"665 731 CURVE SMOOTH",
"755 731 OFFCURVE",
"827 713 OFFCURVE",
"877 696 CURVE",
"927 942 LINE",
"844 976 OFFCURVE",
"713 1000 OFFCURVE",
"582 998 CURVE SMOOTH",
"256 1000 OFFCURVE",
"74 795 OFFCURVE",
"74 485 CURVE SMOOTH",
"74 170 OFFCURVE",
"256 -23 OFFCURVE",
"568 -23 CURVE SMOOTH"
);
}
);
width = 983;
}
);
unicode = 0063;
userData = {
com.typemytype.robofont.layerData = {
SegoeUI = {
anchors = (
);
components = (
);
contours = (
{
points = (
{
segmentType = line;
smooth = 0;
x = 864;
y = 203;
},
{
smooth = 0;
x = 825;
y = 174;
},
{
smooth = 0;
x = 784;
y = 152;
},
{
segmentType = curve;
smooth = 1;
x = 742;
y = 137;
},
{
smooth = 0;
x = 700;
y = 122;
},
{
smooth = 0;
x = 657;
y = 114;
},
{
segmentType = curve;
smooth = 1;
x = 612;
y = 114;
},
{
smooth = 0;
x = 506;
y = 114;
},
{
smooth = 0;
x = 421;
y = 149;
},
{
segmentType = curve;
smooth = 1;
x = 358;
y = 218;
},
{
smooth = 0;
x = 295;
y = 287;
},
{
smooth = 0;
x = 263;
y = 382;
},
{
segmentType = curve;
smooth = 1;
x = 263;
y = 502;
},
{
smooth = 0;
x = 263;
y = 624;
},
{
smooth = 0;
x = 297;
y = 723;
},
{
segmentType = curve;
smooth = 1;
x = 364;
y = 798;
},
{
smooth = 0;
x = 431;
y = 873;
},
{
smooth = 0;
x = 517;
y = 911;
},
{
segmentType = curve;
smooth = 1;
x = 622;
y = 911;
},
{
smooth = 0;
x = 665;
y = 911;
},
{
smooth = 0;
x = 707;
y = 904;
},
{
segmentType = curve;
smooth = 1;
x = 748;
y = 891;
},
{
smooth = 0;
x = 789;
y = 878;
},
{
smooth = 0;
x = 828;
y = 858;
},
{
segmentType = curve;
smooth = 0;
x = 866;
y = 831;
},
{
segmentType = line;
smooth = 0;
x = 866;
y = 999;
},
{
smooth = 0;
x = 832;
y = 1016;
},
{
smooth = 0;
x = 795;
y = 1029;
},
{
segmentType = curve;
smooth = 1;
x = 755;
y = 1037;
},
{
smooth = 0;
x = 715;
y = 1045;
},
{
smooth = 0;
x = 672;
y = 1049;
},
{
segmentType = curve;
smooth = 1;
x = 627;
y = 1049;
},
{
smooth = 0;
x = 466;
y = 1049;
},
{
smooth = 0;
x = 337;
y = 998;
},
{
segmentType = curve;
smooth = 1;
x = 240;
y = 896;
},
{
smooth = 0;
x = 143;
y = 794;
},
{
smooth = 0;
x = 95;
y = 658;
},
{
segmentType = curve;
smooth = 1;
x = 95;
y = 489;
},
{
smooth = 0;
x = 95;
y = 338;
},
{
smooth = 0;
x = 140;
y = 215;
},
{
segmentType = curve;
smooth = 1;
x = 230;
y = 120;
},
{
smooth = 0;
x = 320;
y = 25;
},
{
smooth = 0;
x = 438;
y = "-23";
},
{
segmentType = curve;
smooth = 1;
x = 584;
y = "-23";
},
{
smooth = 0;
x = 638;
y = "-23";
},
{
smooth = 0;
x = 688;
y = "-17";
},
{
segmentType = curve;
smooth = 1;
x = 735;
y = "-5";
},
{
smooth = 0;
x = 782;
y = 7;
},
{
smooth = 0;
x = 825;
y = 25;
},
{
segmentType = curve;
smooth = 0;
x = 864;
y = 48;
}
);
}
);
lib = {
};
name = c;
unicodes = (
);
width = 946;
};
guidelines = {
anchors = (
);
components = (
);
contours = (
);
lib = {
};
name = c;
unicodes = (
);
width = 946;
};
};
};
},
{
color = 5;
glyphname = d;
lastChange = "2020-02-11 23:03:17 +0000";
layers = (
{
anchors = (
{
name = bottom;
position = "{603, 0}";
},
{
name = center;
position = "{603, 487}";
},
{
name = top;
position = "{603, 974}";
},
{
name = topright;
position = "{1121, 1526}";
}
);
background = {
anchors = (
{
name = bottom;
position = "{603, 0}";
},
{
name = center;
position = "{603, 487}";
},
{
name = top;
position = "{603, 974}";
},
{
name = topright;
position = "{1186, 974}";
}
);
paths = (
{
closed = 1;
nodes = (
"802 -23 OFFCURVE",
"936 110 OFFCURVE",
"936 360 CURVE",
"876 453 LINE",
"876 252 OFFCURVE",
"773 134 OFFCURVE",
"577 134 CURVE SMOOTH",
"361 134 OFFCURVE",
"275 323 OFFCURVE",
"275 483 CURVE SMOOTH",
"275 712 OFFCURVE",
"401 851 OFFCURVE",
"604 851 CURVE SMOOTH",
"686 851 OFFCURVE",
"816 826 OFFCURVE",
"912 717 CURVE",
"929 850 LINE",
"825 950 OFFCURVE",
"713 1000 OFFCURVE",
"591 1000 CURVE SMOOTH",
"294 1000 OFFCURVE",
"99 789 OFFCURVE",
"99 472 CURVE SMOOTH",
"99 173 OFFCURVE",
"273 -22.994 OFFCURVE",
"537 -23 CURVE"
);
},
{
closed = 1;
nodes = (
"1127 28 LINE",
"1075 122 OFFCURVE",
"1041 223 OFFCURVE",
"1040 330 CURVE",
"876 328 LINE",
"876 198 OFFCURVE",
"918 75 OFFCURVE",
"982 -39 CURVE"
);
},
{
closed = 1;
nodes = (
"1040 1517 LINE",
"876 1517 LINE",
"876 214 LINE",
"1040 211 LINE"
);
}
);
};
guideLines = (
{
position = "{222, 158}";
}
);
layerId = "90678D68-BBCC-4545-9AE9-72D37A9CD052";
paths = (
{
closed = 1;
nodes = (
"802 -23 OFFCURVE",
"936 110 OFFCURVE",
"936 360 CURVE",
"876 453 LINE SMOOTH",
"876 252 OFFCURVE",
"773 134 OFFCURVE",
"577 134 CURVE SMOOTH",
"361 134 OFFCURVE",
"275 323 OFFCURVE",
"275 483 CURVE SMOOTH",
"275 712 OFFCURVE",
"401 851 OFFCURVE",
"604 851 CURVE SMOOTH",
"686 851 OFFCURVE",
"816 826 OFFCURVE",
"912 717 CURVE",
"929 850 LINE",
"825 950 OFFCURVE",
"713 1000 OFFCURVE",
"591 1000 CURVE SMOOTH",
"294 1000 OFFCURVE",
"99 789 OFFCURVE",
"99 472 CURVE SMOOTH",
"99 173 OFFCURVE",
"273 -22.994 OFFCURVE",
"537 -23 CURVE SMOOTH"
);
},
{
closed = 1;
nodes = (
"1127 28 LINE",
"1075 122 OFFCURVE",
"1041 223 OFFCURVE",
"1040 330 CURVE SMOOTH",
"1040 1517 LINE",
"876 1517 LINE",
"876 347 LINE",
"876 188 OFFCURVE",
"914 83 OFFCURVE",
"982 -39 CURVE"
);
}
);
width = 1206;
},
{
anchors = (
{
name = bottom;
position = "{574, 0}";
},
{
name = center;
position = "{574, 487}";
},
{
name = top;
position = "{574, 974}";
},
{
name = topright;
position = "{1095, 1520}";
}
);
background = {
anchors = (
{
name = bottom;
position = "{574, 0}";
},
{
name = center;
position = "{574, 487}";
},
{
name = top;
position = "{574, 974}";
},
{
name = topright;
position = "{1137, 974}";
}
);
paths = (
{
closed = 1;
nodes = (
"784 -23 OFFCURVE",
"926 99 OFFCURVE",
"926 310 CURVE",
"889 413 LINE",
"889 201 OFFCURVE",
"763 64 OFFCURVE",
"575 64 CURVE SMOOTH",
"327 64 OFFCURVE",
"186 213 OFFCURVE",
"186 473 CURVE SMOOTH",
"186 751 OFFCURVE",
"338 911 OFFCURVE",
"602 911 CURVE SMOOTH",
"705 911 OFFCURVE",
"815 855 OFFCURVE",
"903 757 CURVE",
"910 850 LINE",
"810 945 OFFCURVE",
"693 1000 OFFCURVE",
"589 1000 CURVE SMOOTH",
"272 1000 OFFCURVE",
"90 804 OFFCURVE",
"90 462 CURVE SMOOTH",
"90 154 OFFCURVE",
"252 -23 OFFCURVE",
"535 -23 CURVE SMOOTH"
);
},
{
closed = 1;
nodes = (
"1070 28 LINE",
"1018 122 OFFCURVE",
"984 223 OFFCURVE",
"983 330 CURVE",
"889 328 LINE",
"889 198 OFFCURVE",
"931 75 OFFCURVE",
"995 -39 CURVE"
);
},
{
closed = 1;
nodes = (
"983 1517 LINE",
"889 1517 LINE",
"889 328 LINE",
"983 211 LINE"
);
}
);
};
guideLines = (
{
position = "{222, 158}";
}
);
layerId = "4CDE908C-C807-45B0-BC73-FFDEB9F34183";
paths = (
{
closed = 1;
nodes = (
"771 -23 OFFCURVE",
"935 124 OFFCURVE",
"935 335 CURVE",
"889 413 LINE",
"889 201 OFFCURVE",
"763 64 OFFCURVE",
"556 64 CURVE SMOOTH",
"327 64 OFFCURVE",
"186 213 OFFCURVE",
"186 473 CURVE SMOOTH",
"186 751 OFFCURVE",
"354 911 OFFCURVE",
"570 911 CURVE SMOOTH",
"705 911 OFFCURVE",
"815 855 OFFCURVE",
"903 757 CURVE",
"910 850 LINE",
"810 945 OFFCURVE",
"693 1000 OFFCURVE",
"556 1000 CURVE SMOOTH",
"293 1000 OFFCURVE",
"90 804 OFFCURVE",
"90 462 CURVE SMOOTH",
"90 154 OFFCURVE",
"252 -23 OFFCURVE",
"535 -23 CURVE SMOOTH"
);
},
{
closed = 1;
nodes = (
"1070 28 LINE",
"1018 122 OFFCURVE",
"984 203 OFFCURVE",
"983 330 CURVE SMOOTH",
"983 1517 LINE",
"889 1517 LINE",
"889 328 LINE SMOOTH",
"889 198 OFFCURVE",
"928 66 OFFCURVE",
"995 -39 CURVE"
);
}
);
width = 1147;
},
{
anchors = (
{
name = bottom;
position = "{634, 0}";
},
{
name = center;
position = "{634, 487}";
},
{
name = top;
position = "{634, 974}";
},
{
name = topright;
position = "{1189, 1522}";
}
);
background = {
anchors = (
{
name = bottom;
position = "{634, 0}";
},
{
name = center;
position = "{634, 487}";
},
{
name = top;
position = "{634, 974}";
},
{
name = topright;
position = "{1248, 974}";
}
);
paths = (
{
closed = 1;
nodes = (
"769 -23 OFFCURVE",
"885 124 OFFCURVE",
"885 400 CURVE",
"825 493 LINE",
"825 324 OFFCURVE",
"740 224 OFFCURVE",
"577 224 CURVE SMOOTH",
"461 224 OFFCURVE",
"395 318 OFFCURVE",
"395 483 CURVE SMOOTH",
"395 656 OFFCURVE",
"471 755 OFFCURVE",
"604 755 CURVE SMOOTH",
"725 755 OFFCURVE",
"837 706 OFFCURVE",
"912 621 CURVE",
"929 849 LINE",
"825 949 OFFCURVE",
"713 999 OFFCURVE",
"591 999 CURVE SMOOTH",
"278 999 OFFCURVE",
"72 788 OFFCURVE",
"72 472 CURVE SMOOTH",
"72 173 OFFCURVE",
"217 -23 OFFCURVE",
"537 -23 CURVE"
);
},
{
closed = 1;
nodes = (
"1232 38 LINE",
"1177 151 OFFCURVE",
"1135 229 OFFCURVE",
"1135 450 CURVE",
"826 328 LINE",
"826 198 OFFCURVE",
"860 75 OFFCURVE",
"912 -39 CURVE"
);
},
{
closed = 1;
nodes = (
"1135 1517 LINE",
"826 1517 LINE",
"826 328 LINE",
"1135 211 LINE"
);
}
);
};
guideLines = (
{
position = "{222, 158}";
}
);
layerId = "7FD739B0-27A2-4428-8CD0-260441CCC696";
paths = (
{
closed = 1;
nodes = (
"769 -23 OFFCURVE",
"885 124 OFFCURVE",
"885 400 CURVE",
"825 493 LINE",
"825 324 OFFCURVE",
"740 224 OFFCURVE",
"577 224 CURVE SMOOTH",
"461 224 OFFCURVE",
"395 318 OFFCURVE",
"395 483 CURVE SMOOTH",
"395 656 OFFCURVE",
"471 755 OFFCURVE",
"604 755 CURVE SMOOTH",
"725 755 OFFCURVE",
"837 706 OFFCURVE",
"912 621 CURVE",
"929 849 LINE",
"825 949 OFFCURVE",
"713 999 OFFCURVE",
"591 999 CURVE SMOOTH",
"278 999 OFFCURVE",
"72 788 OFFCURVE",
"72 472 CURVE SMOOTH",
"72 173 OFFCURVE",
"217 -23 OFFCURVE",
"537 -23 CURVE SMOOTH"
);
},
{
closed = 1;
nodes = (
"1232 38 LINE",
"1177 151 OFFCURVE",
"1135 229 OFFCURVE",
"1135 450 CURVE SMOOTH",
"1135 1517 LINE",
"826 1517 LINE",
"826 328 LINE SMOOTH",
"826 198 OFFCURVE",
"860 75 OFFCURVE",
"912 -39 CURVE"
);
}
);
width = 1268;
}
);
unicode = 0064;
userData = {
com.typemytype.robofont.image = {
brightness = 0;
color = (
0,
0,
1,
0
);
contrast = 1;
path = "/var/folders/wx/r1w7d8f1373_lvr_cqc1lb000000gn/T/tmpc1bjSu";
saturation = 1;
sharpness = 0;
transform = (
0,
"-0.01364737406170884",
0,
0,
"-0.02897395686034088",
"-246.116230043448"
);
};
com.typemytype.robofont.layerData = {
SegoeUI = {
anchors = (
);
components = (
);
contours = (
{
points = (
{
segmentType = line;
smooth = 0;
x = 568;
y = 114;
},
{
smooth = 0;
x = 475;
y = 114;
},
{
smooth = 0;
x = 401;
y = 148;
},
{
segmentType = curve;
smooth = 1;
x = 346;
y = 216;
},
{
smooth = 0;
x = 291;
y = 284;
},
{
smooth = 0;
x = 263;
y = 377;
},
{
segmentType = curve;
smooth = 1;
x = 263;
y = 495;
},
{
smooth = 0;
x = 263;
y = 624;
},
{
smooth = 0;
x = 292;
y = 725;
},
{
segmentType = curve;
smooth = 1;
x = 349;
y = 798;
},
{
smooth = 0;
x = 406;
y = 871;
},
{
smooth = 0;
x = 485;
y = 908;
},
{
segmentType = curve;
smooth = 1;
x = 585;
y = 908;
},
{
smooth = 0;
x = 669;
y = 908;
},
{
smooth = 0;
x = 738;
y = 879;
},
{
segmentType = curve;
smooth = 1;
x = 793;
y = 822;
},
{
smooth = 0;
x = 848;
y = 765;
},
{
smooth = 0;
x = 875;
y = 695;
},
{
segmentType = curve;
smooth = 1;
x = 875;
y = 612;
},
{
segmentType = line;
smooth = 1;
x = 875;
y = 461;
},
{
smooth = 0;
x = 875;
y = 360;
},
{
smooth = 0;
x = 846;
y = 277;
},
{
segmentType = curve;
smooth = 1;
x = 789;
y = 211;
},
{
smooth = 0;
x = 732;
y = 145;
},
{
smooth = 0;
x = 658;
y = 112;
},
{
segmentType = curve;
smooth = 0;
x = 567;
y = 112;
}
);
},
{
points = (
{
segmentType = line;
smooth = 0;
x = 1039;
y = 1514;
},
{
segmentType = line;
smooth = 0;
x = 875;
y = 1514;
},
{
segmentType = line;
smooth = 0;
x = 875;
y = 880;
},
{
segmentType = line;
smooth = 0;
x = 871;
y = 880;
},
{
smooth = 0;
x = 839;
y = 935;
},
{
smooth = 0;
x = 797;
y = 977;
},
{
segmentType = curve;
smooth = 1;
x = 746;
y = 1005;
},
{
smooth = 0;
x = 695;
y = 1033;
},
{
smooth = 0;
x = 634;
y = 1047;
},
{
segmentType = curve;
smooth = 1;
x = 563;
y = 1047;
},
{
smooth = 0;
x = 421;
y = 1047;
},
{
smooth = 0;
x = 307;
y = 996;
},
{
segmentType = curve;
smooth = 1;
x = 222;
y = 894;
},
{
smooth = 0;
x = 137;
y = 792;
},
{
smooth = 0;
x = 94;
y = 656;
},
{
segmentType = curve;
smooth = 1;
x = 94;
y = 487;
},
{
smooth = 0;
x = 94;
y = 329;
},
{
smooth = 0;
x = 133;
y = 204;
},
{
segmentType = curve;
smooth = 1;
x = 210;
y = 112;
},
{
smooth = 0;
x = 287;
y = 20;
},
{
smooth = 0;
x = 390;
y = "-26";
},
{
segmentType = curve;
smooth = 1;
x = 519;
y = "-26";
},
{
smooth = 0;
x = 598;
y = "-26";
},
{
smooth = 0;
x = 667;
y = "-9";
},
{
segmentType = curve;
smooth = 1;
x = 726;
y = 24;
},
{
smooth = 0;
x = 785;
y = 57;
},
{
smooth = 0;
x = 833;
y = 107;
},
{
segmentType = curve;
smooth = 0;
x = 871;
y = 173;
},
{
segmentType = line;
smooth = 0;
x = 875;
y = 173;
},
{
segmentType = line;
smooth = 0;
x = 875;
y = "-1";
},
{
segmentType = line;
smooth = 0;
x = 1039;
y = "-1";
}
);
}
);
lib = {
};
name = d;
unicodes = (
);
width = 1206;
};
guidelines = {
anchors = (
);
components = (
);
contours = (
);
lib = {
};
name = d;
unicodes = (
);
width = 1206;
};
};
};
},
{
color = 5;
glyphname = e;
lastChange = "2020-02-17 04:51:42 +0000";
layers = (
{
anchors = (
{
name = bottom;
position = "{536, 0}";
},
{
name = ogonek;
position = "{964, 10}";
},
{
name = top;
position = "{562, 974}";
}
);
background = {
anchors = (
{
name = bottom;
position = "{536, 0}";
},
{
name = ogonek;
position = "{964, 10}";
},
{
name = top;
position = "{536, 974}";
}
);
paths = (
{
closed = 1;
nodes = (
"710 -23 OFFCURVE",
"875 7 OFFCURVE",
"970 47 CURVE",
"919 187 LINE",
"817 147 OFFCURVE",
"714 128 OFFCURVE",
"627 128 CURVE SMOOTH",
"386 128 OFFCURVE",
"262 252 OFFCURVE",
"262 492 CURVE SMOOTH",
"262 692 OFFCURVE",
"342 849 OFFCURVE",
"565 847 CURVE SMOOTH",
"761 845 OFFCURVE",
"818 682 OFFCURVE",
"805 549 CURVE",
"195 543 LINE",
"186 399 LINE",
"965 405 LINE",
"1036 656 OFFCURVE",
"937 1004 OFFCURVE",
"582 1004 CURVE SMOOTH",
"277 1004 OFFCURVE",
"96 825 OFFCURVE",
"96 493 CURVE SMOOTH",
"96 132 OFFCURVE",
"289 -23 OFFCURVE",
"592 -23 CURVE SMOOTH"
);
}
);
};
layerId = "90678D68-BBCC-4545-9AE9-72D37A9CD052";
paths = (
{
closed = 1;
nodes = (
"710 -23 OFFCURVE",
"875 7 OFFCURVE",
"970 47 CURVE",
"919 187 LINE",
"817 147 OFFCURVE",
"714 128 OFFCURVE",
"627 128 CURVE SMOOTH",
"386 128 OFFCURVE",
"262 252 OFFCURVE",
"262 492 CURVE SMOOTH",
"262 692 OFFCURVE",
"342 849 OFFCURVE",
"565 847 CURVE SMOOTH",
"744 845 OFFCURVE",
"807 710 OFFCURVE",
"807 585 CURVE SMOOTH",
"807 573 OFFCURVE",
"806 561 OFFCURVE",
"805 549 CURVE",
"195 543 LINE",
"186 399 LINE",
"965 405 LINE",
"979 455 OFFCURVE",
"987 509 OFFCURVE",
"987 563 CURVE SMOOTH",
"987 781 OFFCURVE",
"866 1004 OFFCURVE",
"582 1004 CURVE SMOOTH",
"275 1004 OFFCURVE",
"96 809 OFFCURVE",
"96 493 CURVE SMOOTH",
"96 132 OFFCURVE",
"289 -23 OFFCURVE",
"592 -23 CURVE SMOOTH"
);
}
);
width = 1071;
},
{
anchors = (
{
name = bottom;
position = "{517, 0}";
},
{
name = ogonek;
position = "{861, 10}";
},
{
name = top;
position = "{551, 974}";
}
);
background = {
anchors = (
{
name = bottom;
position = "{517, 0}";
},
{
name = ogonek;
position = "{861, 10}";
},
{
name = top;
position = "{545, 974}";
}
);
paths = (
{
closed = 1;
nodes = (
"692 -23 OFFCURVE",
"837 7 OFFCURVE",
"932 47 CURVE",
"901 137 LINE",
"792 88 OFFCURVE",
"703 64 OFFCURVE",
"621 64 CURVE SMOOTH",
"334 64 OFFCURVE",
"186 210 OFFCURVE",
"186 492 CURVE SMOOTH",
"186 731 OFFCURVE",
"282 919 OFFCURVE",
"549 917 CURVE SMOOTH",
"803 914 OFFCURVE",
"906 700 OFFCURVE",
"867 524 CURVE",
"149 518 LINE",
"140 429 LINE",
"947 435 LINE",
"1016 673 OFFCURVE",
"912 1004 OFFCURVE",
"556 1004 CURVE SMOOTH",
"264 1004 OFFCURVE",
"90 825 OFFCURVE",
"90 493 CURVE SMOOTH",
"90 132 OFFCURVE",
"283 -23 OFFCURVE",
"586 -23 CURVE SMOOTH"
);
}
);
};
layerId = "4CDE908C-C807-45B0-BC73-FFDEB9F34183";
paths = (
{
closed = 1;
nodes = (
"692 -23 OFFCURVE",
"837 7 OFFCURVE",
"932 47 CURVE",
"901 137 LINE",
"792 88 OFFCURVE",
"703 64 OFFCURVE",
"621 64 CURVE SMOOTH",
"334 64 OFFCURVE",
"186 210 OFFCURVE",
"186 492 CURVE SMOOTH",
"186 731 OFFCURVE",
"282 919 OFFCURVE",
"549 917 CURVE SMOOTH",
"768 914 OFFCURVE",
"875 755 OFFCURVE",
"875 598 CURVE SMOOTH",
"875 573 OFFCURVE",
"872 548 OFFCURVE",
"867 524 CURVE",
"149 518 LINE",
"140 429 LINE",
"947 435 LINE",
"960 480 OFFCURVE",
"967 529 OFFCURVE",
"967 579 CURVE SMOOTH",
"967 787 OFFCURVE",
"844 1004 OFFCURVE",
"556 1004 CURVE SMOOTH",
"271 1004 OFFCURVE",
"90 818 OFFCURVE",
"90 493 CURVE SMOOTH",
"90 132 OFFCURVE",
"283 -23 OFFCURVE",
"586 -23 CURVE SMOOTH"
);
}
);
width = 1034;
},
{
anchors = (
{
name = bottom;
position = "{554, 0}";
},
{
name = ogonek;
position = "{997, 10}";
},
{
name = top;
position = "{586, 974}";
}
);
background = {
anchors = (
{
name = bottom;
position = "{554, 0}";
},
{
name = ogonek;
position = "{997, 10}";
},
{
name = top;
position = "{574, 974}";
}
);
paths = (
{
closed = 1;
nodes = (
"710 -23 OFFCURVE",
"875 7 OFFCURVE",
"970 47 CURVE",
"919 287 LINE",
"817 247 OFFCURVE",
"714 228 OFFCURVE",
"627 228 CURVE SMOOTH",
"458 228 OFFCURVE",
"372 343 OFFCURVE",
"372 492 CURVE SMOOTH",
"372 641 OFFCURVE",
"429 759 OFFCURVE",
"585 757 CURVE SMOOTH",
"724 756 OFFCURVE",
"764 670 OFFCURVE",
"755 584 CURVE",
"195 578 LINE",
"186 384 LINE",
"1025 390 LINE",
"1107 660 OFFCURVE",
"993 1003 OFFCURVE",
"582 1003 CURVE SMOOTH",
"262 1003 OFFCURVE",
"72 824 OFFCURVE",
"72 493 CURVE SMOOTH",
"72 132 OFFCURVE",
"274 -23 OFFCURVE",
"592 -23 CURVE SMOOTH"
);
}
);
};
layerId = "7FD739B0-27A2-4428-8CD0-260441CCC696";
paths = (
{
closed = 1;
nodes = (
"710 -23 OFFCURVE",
"875 7 OFFCURVE",
"970 47 CURVE",
"919 287 LINE",
"817 247 OFFCURVE",
"714 228 OFFCURVE",
"627 228 CURVE SMOOTH",
"458 228 OFFCURVE",
"372 343 OFFCURVE",
"372 492 CURVE SMOOTH",
"372 641 OFFCURVE",
"429 759 OFFCURVE",
"585 757 CURVE SMOOTH",
"712 756 OFFCURVE",
"756 684 OFFCURVE",
"756 607 CURVE SMOOTH",
"756 599 OFFCURVE",
"756 592 OFFCURVE",
"755 584 CURVE",
"195 578 LINE",
"186 384 LINE",
"1025 390 LINE",
"1041 444 OFFCURVE",
"1050 500 OFFCURVE",
"1050 557 CURVE SMOOTH",
"1050 783 OFFCURVE",
"911 1003 OFFCURVE",
"582 1003 CURVE SMOOTH",
"262 1003 OFFCURVE",
"72 824 OFFCURVE",
"72 493 CURVE SMOOTH",
"72 132 OFFCURVE",
"274 -23 OFFCURVE",
"592 -23 CURVE SMOOTH"
);
}
);
width = 1108;
}
);
unicode = 0065;
userData = {
com.typemytype.robofont.image = {
brightness = 0;
color = (
0,
0,
1,
0
);
contrast = 1;
path = "/var/folders/wx/r1w7d8f1373_lvr_cqc1lb000000gn/T/tmpVAOiTg";
saturation = 1;
sharpness = 0;
transform = (
0,
0,
0,
0,
"-78.18672537225467",
"-178.148503180849"
);
};
com.typemytype.robofont.layerData = {
SegoeUI = {
anchors = (
);
components = (
);
contours = (
{
points = (
{
segmentType = line;
smooth = 1;
x = 989;
y = 557;
},
{
smooth = 0;
x = 989;
y = 711;
},
{
smooth = 0;
x = 952;
y = 831;
},
{
segmentType = curve;
smooth = 1;
x = 879;
y = 918;
},
{
smooth = 0;
x = 806;
y = 1005;
},
{
smooth = 0;
x = 702;
y = 1048;
},
{
segmentType = curve;
smooth = 1;
x = 568;
y = 1048;
},
{
smooth = 0;
x = 434;
y = 1048;
},
{
smooth = 0;
x = 322;
y = 998;
},
{
segmentType = curve;
smooth = 1;
x = 232;
y = 898;
},
{
smooth = 0;
x = 142;
y = 798;
},
{
smooth = 0;
x = 97;
y = 668;
},
{
segmentType = curve;
smooth = 1;
x = 97;
y = 509;
},
{
smooth = 0;
x = 97;
y = 340;
},
{
smooth = 0;
x = 138;
y = 209;
},
{
segmentType = curve;
smooth = 1;
x = 221;
y = 116;
},
{
smooth = 0;
x = 304;
y = 23;
},
{
smooth = 0;
x = 418;
y = "-24";
},
{
segmentType = curve;
smooth = 1;
x = 563;
y = "-24";
},
{
smooth = 0;
x = 637;
y = "-24";
},
{
smooth = 0;
x = 704;
y = "-16";
},
{
segmentType = curve;
smooth = 1;
x = 764;
y = 0;
},
{
smooth = 0;
x = 824;
y = 16;
},
{
smooth = 0;
x = 876;
y = 41;
},
{
segmentType = curve;
smooth = 0;
x = 921;
y = 74;
},
{
segmentType = line;
smooth = 0;
x = 921;
y = 228;
},
{
smooth = 0;
x = 873;
y = 190;
},
{
smooth = 0;
x = 822;
y = 161;
},
{
segmentType = curve;
smooth = 1;
x = 769;
y = 142;
},
{
smooth = 0;
x = 716;
y = 123;
},
{
smooth = 0;
x = 660;
y = 113;
},
{
segmentType = curve;
smooth = 1;
x = 602;
y = 113;
},
{
smooth = 0;
x = 499;
y = 113;
},
{
smooth = 0;
x = 418;
y = 144;
},
{
segmentType = curve;
smooth = 1;
x = 359;
y = 206;
},
{
smooth = 0;
x = 300;
y = 268;
},
{
smooth = 0;
x = 269;
y = 356;
},
{
segmentType = curve;
smooth = 0;
x = 266;
y = 470;
},
{
segmentType = line;
smooth = 0;
x = 989;
y = 470;
}
);
},
{
points = (
{
segmentType = line;
smooth = 0;
x = 268;
y = 609;
},
{
smooth = 0;
x = 281;
y = 698;
},
{
smooth = 0;
x = 314;
y = 770;
},
{
segmentType = curve;
smooth = 1;
x = 368;
y = 825;
},
{
smooth = 0;
x = 422;
y = 880;
},
{
smooth = 0;
x = 488;
y = 908;
},
{
segmentType = curve;
smooth = 1;
x = 565;
y = 908;
},
{
smooth = 0;
x = 645;
y = 908;
},
{
smooth = 0;
x = 708;
y = 882;
},
{
segmentType = curve;
smooth = 1;
x = 753;
y = 829;
},
{
smooth = 0;
x = 798;
y = 776;
},
{
smooth = 0;
x = 821;
y = 702;
},
{
segmentType = curve;
smooth = 0;
x = 822;
y = 607;
}
);
}
);
lib = {
};
name = e;
unicodes = (
);
width = 1071;
};
guidelines = {
anchors = (
);
components = (
);
contours = (
);
lib = {
};
name = e;
unicodes = (
);
width = 1071;
};
};
};
},
{
color = 5;
glyphname = f;
lastChange = "2020-02-04 20:16:52 +0000";
layers = (
{
anchors = (
{
name = bottom;
position = "{321, 0}";
},
{
name = top;
position = "{321, 974}";
}
);
background = {
anchors = (
{
name = bottom;
position = "{321, 0}";
},
{
name = top;
position = "{321, 974}";
}
);
paths = (
{
closed = 1;
nodes = (
"391 2 LINE",
"391 1141 LINE SMOOTH",
"391 1291 OFFCURVE",
"415 1371 OFFCURVE",
"527 1371 CURVE SMOOTH",
"559 1371 OFFCURVE",
"599 1364 OFFCURVE",
"648 1359 CURVE",
"684 1519 LINE",
"619 1526 OFFCURVE",
"563 1534 OFFCURVE",
"514 1534 CURVE SMOOTH",
"283 1534 OFFCURVE",
"227 1353 OFFCURVE",
"227 1131 CURVE SMOOTH",
"227 2 LINE"
);
},
{
closed = 1;
nodes = (
"52 831 OFFCURVE",
"630 831 OFFCURVE",
"630 831 CURVE",
"630 976 LINE",
"52 974 LINE",
"52 831 LINE"
);
}
);
};
layerId = "90678D68-BBCC-4545-9AE9-72D37A9CD052";
paths = (
{
closed = 1;
nodes = (
"391 2 LINE",
"391 1141 LINE SMOOTH",
"391 1291 OFFCURVE",
"415 1371 OFFCURVE",
"527 1371 CURVE SMOOTH",
"559 1371 OFFCURVE",
"599 1364 OFFCURVE",
"648 1359 CURVE",
"684 1519 LINE",
"619 1526 OFFCURVE",
"563 1534 OFFCURVE",
"514 1534 CURVE SMOOTH",
"283 1534 OFFCURVE",
"227 1353 OFFCURVE",
"227 1131 CURVE SMOOTH",
"227 2 LINE"
);
},
{
closed = 1;
nodes = (
"52 831 OFFCURVE",
"630 831 OFFCURVE",
"630 831 CURVE",
"630 976 LINE",
"52 974 LINE",
"52 831 LINE"
);
}
);
width = 641;
},
{
anchors = (
{
name = bottom;
position = "{283, 0}";
},
{
name = top;
position = "{283, 974}";
}
);
background = {
anchors = (
{
name = bottom;
position = "{283, 0}";
},
{
name = top;
position = "{283, 974}";
}
);
paths = (
{
closed = 1;
nodes = (
"316 2 LINE",
"316 1141 LINE SMOOTH",
"316 1340 OFFCURVE",
"352 1446 OFFCURVE",
"522 1446 CURVE SMOOTH",
"546 1446 OFFCURVE",
"576 1439 OFFCURVE",
"613 1434 CURVE",
"629 1519 LINE",
"583 1526 OFFCURVE",
"544 1534 OFFCURVE",
"509 1534 CURVE SMOOTH",
"278 1534 OFFCURVE",
"222 1353 OFFCURVE",
"222 1131 CURVE SMOOTH",
"222 2 LINE"
);
},
{
closed = 1;
nodes = (
"35 901 OFFCURVE",
"581 901 OFFCURVE",
"581 901 CURVE",
"581 976 LINE",
"35 974 LINE",
"35 901 LINE"
);
}
);
};
layerId = "4CDE908C-C807-45B0-BC73-FFDEB9F34183";
paths = (
{
closed = 1;
nodes = (
"316 2 LINE",
"316 1141 LINE SMOOTH",
"316 1340 OFFCURVE",
"352 1446 OFFCURVE",
"522 1446 CURVE SMOOTH",
"546 1446 OFFCURVE",
"576 1439 OFFCURVE",
"613 1434 CURVE",
"629 1519 LINE",
"583 1526 OFFCURVE",
"544 1534 OFFCURVE",
"509 1534 CURVE SMOOTH",
"278 1534 OFFCURVE",
"222 1353 OFFCURVE",
"222 1131 CURVE SMOOTH",
"222 2 LINE"
);
},
{
closed = 1;
nodes = (
"35 901 OFFCURVE",
"581 901 OFFCURVE",
"581 901 CURVE",
"581 976 LINE",
"35 974 LINE",
"35 901 LINE"
);
}
);
width = 565;
},
{
anchors = (
{
name = bottom;
position = "{393, 0}";
},
{
name = top;
position = "{393, 974}";
}
);
background = {
anchors = (
{
name = bottom;
position = "{393, 0}";
},
{
name = top;
position = "{393, 974}";
}
);
paths = (
{
closed = 1;
nodes = (
"532 2 LINE",
"532 1141 LINE SMOOTH",
"532 1226 OFFCURVE",
"556 1271 OFFCURVE",
"668 1271 CURVE SMOOTH",
"698 1271 OFFCURVE",
"736 1267 OFFCURVE",
"782 1265 CURVE",
"825 1519 LINE",
"760 1526 OFFCURVE",
"704 1534 OFFCURVE",
"655 1534 CURVE SMOOTH",
"303 1534 OFFCURVE",
"218 1353 OFFCURVE",
"218 1131 CURVE SMOOTH",
"218 2 LINE"
);
},
{
closed = 1;
nodes = (
"48 742 OFFCURVE",
"765 742 OFFCURVE",
"765 742 CURVE",
"765 976 LINE",
"48 974 LINE",
"48 742 LINE"
);
}
);
};
layerId = "7FD739B0-27A2-4428-8CD0-260441CCC696";
paths = (
{
closed = 1;
nodes = (
"532 2 LINE",
"532 1141 LINE SMOOTH",
"532 1235 OFFCURVE",
"566 1271 OFFCURVE",
"668 1271 CURVE SMOOTH",
"698 1271 OFFCURVE",
"737 1268 OFFCURVE",
"782 1265 CURVE",
"825 1519 LINE",
"784 1524 OFFCURVE",
"716 1534 OFFCURVE",
"655 1534 CURVE SMOOTH",
"341 1534 OFFCURVE",
"218 1394 OFFCURVE",
"218 1131 CURVE SMOOTH",
"218 2 LINE"
);
},
{
closed = 1;
nodes = (
"48 742 OFFCURVE",
"765 742 OFFCURVE",
"765 742 CURVE",
"765 976 LINE",
"48 974 LINE",
"48 742 LINE"
);
}
);
width = 785;
}
);
unicode = 0066;
userData = {
com.typemytype.robofont.layerData = {
SegoeUI = {
anchors = (
);
components = (
);
contours = (
{
points = (
{
segmentType = line;
smooth = 0;
x = 672;
y = 1520;
},
{
smooth = 0;
x = 657;
y = 1526;
},
{
smooth = 0;
x = 640;
y = 1531;
},
{
segmentType = curve;
smooth = 1;
x = 620;
y = 1534;
},
{
smooth = 0;
x = 600;
y = 1537;
},
{
smooth = 0;
x = 577;
y = 1539;
},
{
segmentType = curve;
smooth = 1;
x = 552;
y = 1539;
},
{
smooth = 0;
x = 459;
y = 1539;
},
{
smooth = 0;
x = 382;
y = 1508;
},
{
segmentType = curve;
smooth = 1;
x = 320;
y = 1446;
},
{
smooth = 0;
x = 258;
y = 1384;
},
{
smooth = 0;
x = 227;
y = 1299;
},
{
segmentType = curve;
smooth = 1;
x = 227;
y = 1192;
},
{
segmentType = line;
smooth = 0;
x = 227;
y = 1026;
},
{
segmentType = line;
smooth = 0;
x = 52;
y = 1026;
},
{
segmentType = line;
smooth = 0;
x = 52;
y = 886;
},
{
segmentType = line;
smooth = 0;
x = 227;
y = 886;
},
{
segmentType = line;
smooth = 0;
x = 227;
y = 2;
},
{
segmentType = line;
smooth = 0;
x = 390;
y = 2;
},
{
segmentType = line;
smooth = 0;
x = 390;
y = 886;
},
{
segmentType = line;
smooth = 0;
x = 630;
y = 886;
},
{
segmentType = line;
smooth = 0;
x = 630;
y = 1026;
},
{
segmentType = line;
smooth = 0;
x = 390;
y = 1026;
},
{
segmentType = line;
smooth = 1;
x = 390;
y = 1184;
},
{
smooth = 0;
x = 390;
y = 1257;
},
{
smooth = 0;
x = 404;
y = 1311;
},
{
segmentType = curve;
smooth = 1;
x = 433;
y = 1347;
},
{
smooth = 0;
x = 462;
y = 1383;
},
{
smooth = 0;
x = 505;
y = 1401;
},
{
segmentType = curve;
smooth = 1;
x = 562;
y = 1401;
},
{
smooth = 0;
x = 583;
y = 1401;
},
{
smooth = 0;
x = 602;
y = 1399;
},
{
segmentType = curve;
smooth = 1;
x = 620;
y = 1395;
},
{
smooth = 0;
x = 638;
y = 1391;
},
{
smooth = 0;
x = 655;
y = 1384;
},
{
segmentType = curve;
smooth = 0;
x = 671;
y = 1375;
}
);
}
);
lib = {
};
name = f;
unicodes = (
);
width = 641;
};
guidelines = {
anchors = (
);
components = (
);
contours = (
);
lib = {
};
name = f;
unicodes = (
);
width = 641;
};
};
};
},
{
color = 5;
glyphname = g;
lastChange = "2020-02-12 21:12:25 +0000";
layers = (
{
anchors = (
{
name = bottom;
position = "{603, 0}";
},
{
name = top;
position = "{578, 974}";
}
);
background = {
anchors = (
{
name = bottom;
position = "{603, 0}";
},
{
name = top;
position = "{603, 974}";
}
);
paths = (
{
closed = 1;
nodes = (
"-1221 -480 OFFCURVE",
"-960 -340 OFFCURVE",
"-960 0 CURVE SMOOTH",
"-960 974 LINE",
"-1083 974 LINE",
"-1123 804 LINE",
"-1123 804 OFFCURVE",
"-1124 93 OFFCURVE",
"-1124 55 CURVE",
"-1124 -193 OFFCURVE",
"-1262 -309 OFFCURVE",
"-1644 -328 CURVE",
"-1625 -482 LINE"
);
},
{
closed = 1;
nodes = (
"-1198 -23 OFFCURVE",
"-1064 110 OFFCURVE",
"-1064 360 CURVE",
"-1124 453 LINE",
"-1124 252 OFFCURVE",
"-1227 134 OFFCURVE",
"-1423 134 CURVE SMOOTH",
"-1639 134 OFFCURVE",
"-1725 323 OFFCURVE",
"-1725 483 CURVE SMOOTH",
"-1725 712 OFFCURVE",
"-1599 851 OFFCURVE",
"-1396 851 CURVE SMOOTH",
"-1314 851 OFFCURVE",
"-1184 826 OFFCURVE",
"-1088 717 CURVE",
"-1071 850 LINE",
"-1177 950 OFFCURVE",
"-1289 1000 OFFCURVE",
"-1409 1000 CURVE SMOOTH",
"-1706 1000 OFFCURVE",
"-1901 789 OFFCURVE",
"-1901 472 CURVE SMOOTH",
"-1901 173 OFFCURVE",
"-1727 -23 OFFCURVE",
"-1463 -23 CURVE"
);
},
{
closed = 1;
nodes = (
"779 -480 OFFCURVE",
"1040 -340 OFFCURVE",
"1040 0 CURVE SMOOTH",
"1040 974 LINE",
"917 974 LINE",
"876 804 LINE",
"876 55 LINE SMOOTH",
"876 -193 OFFCURVE",
"737 -316 OFFCURVE",
"356 -328 CURVE",
"375 -482 LINE"
);
},
{
closed = 1;
nodes = (
"802 -23 OFFCURVE",
"936 129 OFFCURVE",
"936 360 CURVE",
"876 453 LINE",
"876 252 OFFCURVE",
"773 134 OFFCURVE",
"577 134 CURVE SMOOTH",
"407 134 OFFCURVE",
"273 263 OFFCURVE",
"273 483 CURVE SMOOTH",
"273 712 OFFCURVE",
"400 851 OFFCURVE",
"604 851 CURVE SMOOTH",
"724 851 OFFCURVE",
"826 808 OFFCURVE",
"912 717 CURVE",
"929 850 LINE",
"823 950 OFFCURVE",
"711 1000 OFFCURVE",
"591 1000 CURVE SMOOTH",
"294 1000 OFFCURVE",
"99 789 OFFCURVE",
"99 472 CURVE SMOOTH",
"99 173 OFFCURVE",
"273 -22.994 OFFCURVE",
"535 -23 CURVE SMOOTH"
);
}
);
};
layerId = "90678D68-BBCC-4545-9AE9-72D37A9CD052";
paths = (
{
closed = 1;
nodes = (
"779 -480 OFFCURVE",
"1040 -340 OFFCURVE",
"1040 0 CURVE SMOOTH",
"1040 974 LINE",
"917 974 LINE",
"876 803 LINE",
"876 54 LINE SMOOTH",
"876 -193 OFFCURVE",
"737 -316 OFFCURVE",
"356 -328 CURVE",
"375 -482 LINE"
);
},
{
closed = 1;
nodes = (
"802 -23 OFFCURVE",
"936 129 OFFCURVE",
"936 360 CURVE",
"876 453 LINE",
"876 252 OFFCURVE",
"773 134 OFFCURVE",
"577 134 CURVE SMOOTH",
"407 134 OFFCURVE",
"273 263 OFFCURVE",
"273 483 CURVE SMOOTH",
"273 706 OFFCURVE",
"400 842 OFFCURVE",
"604 842 CURVE SMOOTH",
"724 842 OFFCURVE",
"826 802 OFFCURVE",
"912 716 CURVE",
"929 849 LINE",
"823 949 OFFCURVE",
"711 999 OFFCURVE",
"591 999 CURVE SMOOTH",
"294 999 OFFCURVE",
"99 788 OFFCURVE",
"99 472 CURVE SMOOTH",
"99 173 OFFCURVE",
"273 -22.994 OFFCURVE",
"535 -23 CURVE SMOOTH"
);
}
);
width = 1205;
},
{
anchors = (
{
name = bottom;
position = "{574, 0}";
},
{
name = top;
position = "{565, 974}";
}
);
background = {
anchors = (
{
name = bottom;
position = "{574, 0}";
},
{
name = top;
position = "{574, 974}";
}
);
paths = (
{
closed = 1;
nodes = (
"746 -480 OFFCURVE",
"985 -340 OFFCURVE",
"985 0 CURVE SMOOTH",
"986 974 LINE",
"932 974 LINE",
"892 804 LINE",
"892 804 OFFCURVE",
"891 55 OFFCURVE",
"891 15 CURVE",
"891 -252 OFFCURVE",
"751 -378 OFFCURVE",
"362 -398 CURVE",
"375 -482 LINE"
);
},
{
closed = 1;
nodes = (
"786 -23 OFFCURVE",
"928 99 OFFCURVE",
"928 310 CURVE",
"891 413 LINE",
"891 201 OFFCURVE",
"765 64 OFFCURVE",
"577 64 CURVE SMOOTH",
"328 64 OFFCURVE",
"186 213 OFFCURVE",
"186 473 CURVE SMOOTH",
"186 751 OFFCURVE",
"338 911 OFFCURVE",
"604 911 CURVE SMOOTH",
"708 911 OFFCURVE",
"817 855 OFFCURVE",
"905 757 CURVE",
"912 850 LINE",
"822 936 OFFCURVE",
"739 1000 OFFCURVE",
"591 1000 CURVE SMOOTH",
"273 1000 OFFCURVE",
"90 804 OFFCURVE",
"90 462 CURVE SMOOTH",
"90 154 OFFCURVE",
"253 -23 OFFCURVE",
"537 -23 CURVE"
);
}
);
};
layerId = "4CDE908C-C807-45B0-BC73-FFDEB9F34183";
paths = (
{
closed = 1;
nodes = (
"746 -480 OFFCURVE",
"985 -340 OFFCURVE",
"985 0 CURVE SMOOTH",
"986 974 LINE",
"932 974 LINE",
"891 804 LINE",
"891 15 LINE SMOOTH",
"891 -249 OFFCURVE",
"742 -388 OFFCURVE",
"362 -393 CURVE",
"375 -482 LINE"
);
},
{
closed = 1;
nodes = (
"787 -23 OFFCURVE",
"930 154 OFFCURVE",
"930 341 CURVE",
"891 413 LINE",
"891 202 OFFCURVE",
"764 65 OFFCURVE",
"563 65 CURVE SMOOTH",
"337 65 OFFCURVE",
"186 188 OFFCURVE",
"186 473 CURVE SMOOTH",
"186 747 OFFCURVE",
"333 912 OFFCURVE",
"564 912 CURVE SMOOTH",
"702 912 OFFCURVE",
"817 856 OFFCURVE",
"905 757 CURVE",
"912 850 LINE",
"834 928 OFFCURVE",
"723 1000 OFFCURVE",
"561 1000 CURVE SMOOTH",
"281 1000 OFFCURVE",
"90 799 OFFCURVE",
"90 462 CURVE SMOOTH",
"90 154 OFFCURVE",
"253 -23 OFFCURVE",
"534 -23 CURVE SMOOTH"
);
}
);
width = 1146;
},
{
anchors = (
{
name = bottom;
position = "{634, 0}";
},
{
name = top;
position = "{591, 974}";
}
);
background = {
anchors = (
{
name = bottom;
position = "{634, 0}";
},
{
name = top;
position = "{634, 974}";
}
);
paths = (
{
closed = 1;
nodes = (
"837 -480 OFFCURVE",
"1136 -340 OFFCURVE",
"1136 0 CURVE SMOOTH",
"1137 974 LINE",
"867 974 LINE",
"827 804 LINE",
"827 804 OFFCURVE",
"826 93 OFFCURVE",
"826 55 CURVE",
"826 -119 OFFCURVE",
"701 -200 OFFCURVE",
"356 -213 CURVE",
"375 -482 LINE"
);
},
{
closed = 1;
nodes = (
"769 -23 OFFCURVE",
"886 110 OFFCURVE",
"886 360 CURVE",
"826 453 LINE",
"826 309 OFFCURVE",
"747 224 OFFCURVE",
"597 224 CURVE SMOOTH",
"453 224 OFFCURVE",
"395 364 OFFCURVE",
"395 483 CURVE SMOOTH",
"395 656 OFFCURVE",
"483 761 OFFCURVE",
"624 761 CURVE SMOOTH",
"701 761 OFFCURVE",
"822 742 OFFCURVE",
"912 657 CURVE",
"929 850 LINE",
"823 950 OFFCURVE",
"711 1000 OFFCURVE",
"591 1000 CURVE SMOOTH",
"276 1000 OFFCURVE",
"69 789 OFFCURVE",
"69 472 CURVE SMOOTH",
"69 173 OFFCURVE",
"255 -23 OFFCURVE",
"537 -23 CURVE"
);
}
);
};
layerId = "7FD739B0-27A2-4428-8CD0-260441CCC696";
paths = (
{
closed = 1;
nodes = (
"837 -480 OFFCURVE",
"1136 -340 OFFCURVE",
"1136 0 CURVE SMOOTH",
"1137 974 LINE",
"867 974 LINE",
"826 804 LINE",
"826 55 LINE SMOOTH",
"826 -119 OFFCURVE",
"701 -200 OFFCURVE",
"356 -213 CURVE",
"375 -482 LINE"
);
},
{
closed = 1;
nodes = (
"769 -23 OFFCURVE",
"886 110 OFFCURVE",
"886 360 CURVE",
"826 453 LINE",
"826 309 OFFCURVE",
"747 224 OFFCURVE",
"597 224 CURVE SMOOTH",
"483 224 OFFCURVE",
"395 322 OFFCURVE",
"395 483 CURVE SMOOTH",
"395 655 OFFCURVE",
"483 760 OFFCURVE",
"624 760 CURVE SMOOTH",
"737 760 OFFCURVE",
"842 722 OFFCURVE",
"912 656 CURVE",
"929 850 LINE",
"823 950 OFFCURVE",
"711 1000 OFFCURVE",
"591 1000 CURVE SMOOTH",
"276 1000 OFFCURVE",
"69 789 OFFCURVE",
"69 472 CURVE SMOOTH",
"69 173 OFFCURVE",
"255 -23 OFFCURVE",
"537 -23 CURVE SMOOTH"
);
}
);
width = 1268;
}
);
unicode = 0067;
userData = {
com.typemytype.robofont.image = {
brightness = 0;
color = (
0,
0,
1,
0
);
contrast = 1;
path = "/var/folders/wx/r1w7d8f1373_lvr_cqc1lb000000gn/T/tmpogWB6x";
saturation = 1;
sharpness = 0;
transform = (
0,
"-0.02622487819446277",
0,
0,
0,
"-745.0118736706065"
);
};
com.typemytype.robofont.layerData = {
SegoeUI = {
anchors = (
);
components = (
);
contours = (
{
points = (
{
segmentType = line;
smooth = 0;
x = 565;
y = 114;
},
{
smooth = 0;
x = 474;
y = 114;
},
{
smooth = 0;
x = 401;
y = 148;
},
{
segmentType = curve;
smooth = 1;
x = 346;
y = 216;
},
{
smooth = 0;
x = 291;
y = 284;
},
{
smooth = 0;
x = 263;
y = 375;
},
{
segmentType = curve;
smooth = 1;
x = 263;
y = 489;
},
{
smooth = 0;
x = 263;
y = 622;
},
{
smooth = 0;
x = 292;
y = 725;
},
{
segmentType = curve;
smooth = 1;
x = 349;
y = 799;
},
{
smooth = 0;
x = 406;
y = 873;
},
{
smooth = 0;
x = 485;
y = 910;
},
{
segmentType = curve;
smooth = 1;
x = 586;
y = 910;
},
{
smooth = 0;
x = 668;
y = 910;
},
{
smooth = 0;
x = 737;
y = 881;
},
{
segmentType = curve;
smooth = 1;
x = 792;
y = 823;
},
{
smooth = 0;
x = 847;
y = 765;
},
{
smooth = 0;
x = 875;
y = 695;
},
{
segmentType = curve;
smooth = 1;
x = 875;
y = 614;
},
{
segmentType = line;
smooth = 1;
x = 875;
y = 463;
},
{
smooth = 0;
x = 875;
y = 361;
},
{
smooth = 0;
x = 846;
y = 277;
},
{
segmentType = curve;
smooth = 1;
x = 788;
y = 212;
},
{
smooth = 0;
x = 730;
y = 147;
},
{
smooth = 0;
x = 655;
y = 114;
},
{
segmentType = curve;
smooth = 0;
x = 563;
y = 114;
}
);
},
{
points = (
{
segmentType = line;
smooth = 0;
x = 1038;
y = 1024;
},
{
segmentType = line;
smooth = 0;
x = 874;
y = 1024;
},
{
segmentType = line;
smooth = 0;
x = 874;
y = 882;
},
{
segmentType = line;
smooth = 0;
x = 870;
y = 882;
},
{
smooth = 0;
x = 837;
y = 937;
},
{
smooth = 0;
x = 795;
y = 979;
},
{
segmentType = curve;
smooth = 1;
x = 744;
y = 1007;
},
{
smooth = 0;
x = 693;
y = 1035;
},
{
smooth = 0;
x = 633;
y = 1049;
},
{
segmentType = curve;
smooth = 1;
x = 564;
y = 1049;
},
{
smooth = 0;
x = 419;
y = 1049;
},
{
smooth = 0;
x = 304;
y = 998;
},
{
segmentType = curve;
smooth = 1;
x = 220;
y = 895;
},
{
smooth = 0;
x = 136;
y = 792;
},
{
smooth = 0;
x = 94;
y = 654;
},
{
segmentType = curve;
smooth = 1;
x = 94;
y = 480;
},
{
smooth = 0;
x = 94;
y = 327;
},
{
smooth = 0;
x = 133;
y = 205;
},
{
segmentType = curve;
smooth = 1;
x = 211;
y = 114;
},
{
smooth = 0;
x = 289;
y = 23;
},
{
smooth = 0;
x = 392;
y = "-23";
},
{
segmentType = curve;
smooth = 1;
x = 519;
y = "-23";
},
{
smooth = 0;
x = 598;
y = "-23";
},
{
smooth = 0;
x = 667;
y = "-7";
},
{
segmentType = curve;
smooth = 1;
x = 726;
y = 26;
},
{
smooth = 0;
x = 785;
y = 59;
},
{
smooth = 0;
x = 834;
y = 108;
},
{
segmentType = curve;
smooth = 0;
x = 873;
y = 173;
},
{
segmentType = line;
smooth = 0;
x = 877;
y = 173;
},
{
segmentType = line;
smooth = 1;
x = 877;
y = 61;
},
{
smooth = 0;
x = 877;
y = "-73";
},
{
smooth = 0;
x = 845;
y = "-174";
},
{
segmentType = curve;
smooth = 1;
x = 782;
y = "-241";
},
{
smooth = 0;
x = 719;
y = "-308";
},
{
smooth = 0;
x = 624;
y = "-342";
},
{
segmentType = curve;
smooth = 1;
x = 498;
y = "-342";
},
{
smooth = 0;
x = 446;
y = "-342";
},
{
smooth = 0;
x = 392;
y = "-334";
},
{
segmentType = curve;
smooth = 1;
x = 337;
y = "-318";
},
{
smooth = 0;
x = 282;
y = "-302";
},
{
smooth = 0;
x = 225;
y = "-278";
},
{
segmentType = curve;
smooth = 0;
x = 167;
y = "-246";
},
{
segmentType = line;
smooth = 0;
x = 167;
y = "-410";
},
{
smooth = 0;
x = 214;
y = "-434";
},
{
smooth = 0;
x = 265;
y = "-452";
},
{
segmentType = curve;
smooth = 1;
x = 320;
y = "-464";
},
{
smooth = 0;
x = 375;
y = "-476";
},
{
smooth = 0;
x = 434;
y = "-482";
},
{
segmentType = curve;
smooth = 1;
x = 497;
y = "-482";
},
{
smooth = 0;
x = 677;
y = "-482";
},
{
smooth = 0;
x = 812;
y = "-435";
},
{
segmentType = curve;
smooth = 1;
x = 902;
y = "-341";
},
{
smooth = 0;
x = 992;
y = "-247";
},
{
smooth = 0;
x = 1037;
y = "-106";
},
{
segmentType = curve;
smooth = 1;
x = 1037;
y = 82;
}
);
}
);
lib = {
};
name = g;
unicodes = (
);
width = 1206;
};
guidelines = {
anchors = (
);
components = (
);
contours = (
);
lib = {
};
name = g;
unicodes = (
);
width = 1206;
};
};
};
},
{
color = 5;
glyphname = h;
lastChange = "2020-02-04 22:56:35 +0000";
layers = (
{
anchors = (
{
name = bottom;
position = "{580, 0}";
},
{
name = center;
position = "{580, 487}";
},
{
name = top;
position = "{580, 974}";
}
);
background = {
anchors = (
{
name = bottom;
position = "{580, 0}";
},
{
name = center;
position = "{580, 487}";
},
{
name = top;
position = "{580, 974}";
}
);
paths = (
{
closed = 1;
nodes = (
"1016 0 LINE",
"1016 610 LINE",
"1016 833 OFFCURVE",
"890 1000 OFFCURVE",
"627 1000 CURVE",
"469 1000 OFFCURVE",
"351 938 OFFCURVE",
"270 814 CURVE",
"270 661 LINE",
"346 767 OFFCURVE",
"474 843 OFFCURVE",
"626 843 CURVE",
"799 843 OFFCURVE",
"852 710 OFFCURVE",
"852 564 CURVE",
"852 0 LINE"
);
},
{
closed = 1;
nodes = (
"329 0 LINE",
"329 1517 LINE",
"165 1517 LINE",
"165 0 LINE"
);
}
);
};
layerId = "90678D68-BBCC-4545-9AE9-72D37A9CD052";
paths = (
{
closed = 1;
nodes = (
"1016 0 LINE",
"1016 610 LINE SMOOTH",
"1016 833 OFFCURVE",
"890 1000 OFFCURVE",
"627 1000 CURVE SMOOTH",
"460 1000 OFFCURVE",
"334 913 OFFCURVE",
"270 814 CURVE",
"270 661 LINE",
"346 767 OFFCURVE",
"474 843 OFFCURVE",
"626 843 CURVE SMOOTH",
"778 843 OFFCURVE",
"852 739 OFFCURVE",
"852 564 CURVE SMOOTH",
"852 0 LINE"
);
},
{
closed = 1;
nodes = (
"329 0 LINE",
"329 1517 LINE",
"165 1517 LINE",
"165 0 LINE"
);
}
);
width = 1160;
},
{
anchors = (
{
name = bottom;
position = "{548, 0}";
},
{
name = center;
position = "{548, 487}";
},
{
name = top;
position = "{548, 974}";
}
);
background = {
anchors = (
{
name = bottom;
position = "{548, 0}";
},
{
name = center;
position = "{548, 487}";
},
{
name = top;
position = "{548, 974}";
}
);
paths = (
{
closed = 1;
nodes = (
"952 0 LINE",
"952 610 LINE",
"952 833 OFFCURVE",
"843 1000 OFFCURVE",
"616 1000 CURVE",
"449 1000 OFFCURVE",
"325 938 OFFCURVE",
"239 814 CURVE",
"239 701 LINE",
"319 824 OFFCURVE",
"454 913 OFFCURVE",
"615 913 CURVE",
"801 913 OFFCURVE",
"858 746 OFFCURVE",
"858 564 CURVE",
"858 0 LINE"
);
},
{
closed = 1;
nodes = (
"258 0 LINE",
"258 1517 LINE",
"164 1517 LINE",
"164 0 LINE"
);
}
);
};
layerId = "4CDE908C-C807-45B0-BC73-FFDEB9F34183";
paths = (
{
closed = 1;
nodes = (
"952 0 LINE",
"952 610 LINE SMOOTH",
"952 849 OFFCURVE",
"829 1000 OFFCURVE",
"616 1000 CURVE SMOOTH",
"451 1000 OFFCURVE",
"322 925 OFFCURVE",
"239 804 CURVE",
"239 701 LINE",
"319 824 OFFCURVE",
"454 913 OFFCURVE",
"615 913 CURVE SMOOTH",
"773 913 OFFCURVE",
"858 791 OFFCURVE",
"858 564 CURVE SMOOTH",
"858 0 LINE"
);
},
{
closed = 1;
nodes = (
"258 0 LINE",
"258 1517 LINE",
"164 1517 LINE",
"164 0 LINE"
);
}
);
width = 1096;
},
{
anchors = (
{
name = bottom;
position = "{617, 0}";
},
{
name = center;
position = "{617, 487}";
},
{
name = top;
position = "{617, 974}";
}
);
background = {
anchors = (
{
name = bottom;
position = "{617, 0}";
},
{
name = center;
position = "{617, 487}";
},
{
name = top;
position = "{617, 974}";
}
);
paths = (
{
closed = 1;
nodes = (
"1116 0 LINE",
"1116 610 LINE",
"1116 833 OFFCURVE",
"993 1000 OFFCURVE",
"737 1000 CURVE",
"579 1000 OFFCURVE",
"461 938 OFFCURVE",
"380 814 CURVE",
"370 581 LINE SMOOTH",
"425 690 OFFCURVE",
"514 753 OFFCURVE",
"616 753 CURVE",
"758 753 OFFCURVE",
"802 644 OFFCURVE",
"802 524 CURVE",
"802 0 LINE"
);
},
{
closed = 1;
nodes = (
"449 0 LINE",
"449 1517 LINE",
"133 1517 LINE",
"133 0 LINE"
);
}
);
};
layerId = "7FD739B0-27A2-4428-8CD0-260441CCC696";
paths = (
{
closed = 1;
nodes = (
"1116 0 LINE",
"1116 610 LINE SMOOTH",
"1116 833 OFFCURVE",
"993 1000 OFFCURVE",
"737 1000 CURVE SMOOTH",
"579 1000 OFFCURVE",
"461 938 OFFCURVE",
"380 814 CURVE",
"370 581 LINE SMOOTH",
"425 690 OFFCURVE",
"514 753 OFFCURVE",
"618 753 CURVE SMOOTH",
"758 753 OFFCURVE",
"802 644 OFFCURVE",
"802 524 CURVE SMOOTH",
"802 0 LINE"
);
},
{
closed = 1;
nodes = (
"449 0 LINE",
"449 1517 LINE",
"133 1517 LINE",
"133 0 LINE"
);
}
);
width = 1233;
}
);
unicode = 0068;
userData = {
com.typemytype.robofont.image = {
brightness = 0;
color = (
0,
0,
1,
0
);
contrast = 1;
path = "/var/folders/wx/r1w7d8f1373_lvr_cqc1lb000000gn/T/tmppNBH5j";
saturation = 1;
sharpness = 0;
transform = (
0,
0,
0,
0,
"-47.86319505736984",
"-97.06006957063497"
);
};
com.typemytype.robofont.layerData = {
SegoeUI = {
anchors = (
);
components = (
);
contours = (
{
points = (
{
segmentType = line;
smooth = 1;
x = 1016;
y = 631;
},
{
smooth = 0;
x = 1016;
y = 770;
},
{
smooth = 0;
x = 987;
y = 874;
},
{
segmentType = curve;
smooth = 1;
x = 929;
y = 943;
},
{
smooth = 0;
x = 871;
y = 1012;
},
{
smooth = 0;
x = 784;
y = 1047;
},
{
segmentType = curve;
smooth = 1;
x = 669;
y = 1047;
},
{
smooth = 0;
x = 596;
y = 1047;
},
{
smooth = 0;
x = 532;
y = 1031;
},
{
segmentType = curve;
smooth = 1;
x = 476;
y = 999;
},
{
smooth = 0;
x = 420;
y = 967;
},
{
smooth = 0;
x = 372;
y = 918;
},
{
segmentType = curve;
smooth = 0;
x = 333;
y = 853;
},
{
segmentType = line;
smooth = 0;
x = 329;
y = 853;
},
{
segmentType = line;
smooth = 0;
x = 329;
y = 1515;
},
{
segmentType = line;
smooth = 0;
x = 165;
y = 1515;
},
{
segmentType = line;
smooth = 0;
x = 165;
y = "-1";
},
{
segmentType = line;
smooth = 0;
x = 329;
y = "-1";
},
{
segmentType = line;
smooth = 1;
x = 329;
y = 579;
},
{
smooth = 0;
x = 329;
y = 676;
},
{
smooth = 0;
x = 356;
y = 755;
},
{
segmentType = curve;
smooth = 1;
x = 411;
y = 817;
},
{
smooth = 0;
x = 466;
y = 879;
},
{
smooth = 0;
x = 533;
y = 910;
},
{
segmentType = curve;
smooth = 1;
x = 613;
y = 910;
},
{
smooth = 0;
x = 692;
y = 910;
},
{
smooth = 0;
x = 752;
y = 883;
},
{
segmentType = curve;
smooth = 1;
x = 792;
y = 830;
},
{
smooth = 0;
x = 832;
y = 777;
},
{
smooth = 0;
x = 852;
y = 697;
},
{
segmentType = curve;
smooth = 1;
x = 852;
y = 590;
},
{
segmentType = line;
smooth = 0;
x = 852;
y = 0;
},
{
segmentType = line;
smooth = 0;
x = 1016;
y = 0;
}
);
}
);
lib = {
};
name = h;
unicodes = (
);
width = 1159;
};
guidelines = {
anchors = (
);
components = (
);
contours = (
);
lib = {
};
name = h;
unicodes = (
);
width = 1159;
};
};
};
},
{
color = 3;
glyphname = i;
lastChange = "2020-02-11 23:28:29 +0000";
layers = (
{
background = {
components = (
{
name = idotless;
}
);
paths = (
{
closed = 1;
nodes = (
"314 1279 OFFCURVE",
"362 1327 OFFCURVE",
"362 1391 CURVE SMOOTH",
"362 1454 OFFCURVE",
"314 1502 OFFCURVE",
"251 1502 CURVE SMOOTH",
"187 1502 OFFCURVE",
"139 1454 OFFCURVE",
"139 1391 CURVE SMOOTH",
"139 1327 OFFCURVE",
"187 1279 OFFCURVE",
"251 1279 CURVE SMOOTH"
);
}
);
};
components = (
{
name = idotless;
}
);
layerId = "90678D68-BBCC-4545-9AE9-72D37A9CD052";
paths = (
{
closed = 1;
nodes = (
"309 1279 OFFCURVE",
"359 1329 OFFCURVE",
"359 1391 CURVE SMOOTH",
"359 1452 OFFCURVE",
"309 1502 OFFCURVE",
"248 1502 CURVE SMOOTH",
"186 1502 OFFCURVE",
"136 1452 OFFCURVE",
"136 1391 CURVE SMOOTH",
"136 1329 OFFCURVE",
"186 1279 OFFCURVE",
"248 1279 CURVE SMOOTH"
);
}
);
width = 494;
},
{
background = {
components = (
{
name = idotless;
transform = "{1, 0, 0, 1, 1, 0}";
}
);
paths = (
{
closed = 1;
nodes = (
"252 1290 OFFCURVE",
"282 1320 OFFCURVE",
"282 1361 CURVE SMOOTH",
"282 1401 OFFCURVE",
"252 1431 OFFCURVE",
"212 1431 CURVE SMOOTH",
"171 1431 OFFCURVE",
"141 1401 OFFCURVE",
"141 1361 CURVE SMOOTH",
"141 1320 OFFCURVE",
"171 1290 OFFCURVE",
"212 1290 CURVE SMOOTH"
);
}
);
};
components = (
{
name = idotless;
}
);
layerId = "4CDE908C-C807-45B0-BC73-FFDEB9F34183";
paths = (
{
closed = 1;
nodes = (
"254 1290 OFFCURVE",
"284 1320 OFFCURVE",
"284 1361 CURVE SMOOTH",
"284 1401 OFFCURVE",
"254 1431 OFFCURVE",
"214 1431 CURVE SMOOTH",
"173 1431 OFFCURVE",
"143 1401 OFFCURVE",
"143 1361 CURVE SMOOTH",
"143 1320 OFFCURVE",
"173 1290 OFFCURVE",
"214 1290 CURVE SMOOTH"
);
}
);
width = 422;
},
{
background = {
components = (
{
name = idotless;
}
);
paths = (
{
closed = 1;
nodes = (
"388 1189 OFFCURVE",
"461 1263 OFFCURVE",
"461 1361 CURVE SMOOTH",
"461 1457 OFFCURVE",
"388 1531 OFFCURVE",
"291 1531 CURVE SMOOTH",
"193 1531 OFFCURVE",
"120 1457 OFFCURVE",
"120 1361 CURVE SMOOTH",
"120 1263 OFFCURVE",
"193 1189 OFFCURVE",
"291 1189 CURVE SMOOTH"
);
},
{
closed = 1;
nodes = (
"388 1150 OFFCURVE",
"461 1224 OFFCURVE",
"461 1322 CURVE SMOOTH",
"461 1418 OFFCURVE",
"388 1492 OFFCURVE",
"291 1492 CURVE SMOOTH",
"193 1492 OFFCURVE",
"120 1418 OFFCURVE",
"120 1322 CURVE SMOOTH",
"120 1224 OFFCURVE",
"193 1150 OFFCURVE",
"291 1150 CURVE SMOOTH"
);
}
);
};
components = (
{
name = idotless;
}
);
layerId = "7FD739B0-27A2-4428-8CD0-260441CCC696";
paths = (
{
closed = 1;
nodes = (
"388 1189 OFFCURVE",
"461 1263 OFFCURVE",
"461 1361 CURVE SMOOTH",
"461 1457 OFFCURVE",
"388 1531 OFFCURVE",
"291 1531 CURVE SMOOTH",
"193 1531 OFFCURVE",
"120 1457 OFFCURVE",
"120 1361 CURVE SMOOTH",
"120 1263 OFFCURVE",
"193 1189 OFFCURVE",
"291 1189 CURVE SMOOTH"
);
}
);
width = 582;
}
);
unicode = 0069;
userData = {
com.typemytype.robofont.image = {
brightness = 0;
color = (
0,
0,
1,
0
);
contrast = 1;
path = "/var/folders/wx/r1w7d8f1373_lvr_cqc1lb000000gn/T/tmpe1wiC2";
saturation = 1;
sharpness = 0;
transform = (
0,
0,
0,
0,
"-110.2052766442062",
"-176.9099364145393"
);
};
com.typemytype.robofont.layerData = {
SegoeUI = {
anchors = (
);
components = (
);
contours = (
{
points = (
{
segmentType = curve;
smooth = 1;
x = 358;
y = 1390;
},
{
smooth = 0;
x = 358;
y = 1421;
},
{
smooth = 0;
x = 347;
y = 1447;
},
{
segmentType = curve;
smooth = 1;
x = 326;
y = 1467;
},
{
smooth = 0;
x = 305;
y = 1487;
},
{
smooth = 0;
x = 279;
y = 1497;
},
{
segmentType = curve;
smooth = 1;
x = 249;
y = 1497;
},
{
smooth = 0;
x = 220;
y = 1497;
},
{
smooth = 0;
x = 195;
y = 1487;
},
{
segmentType = curve;
smooth = 1;
x = 174;
y = 1467;
},
{
smooth = 0;
x = 153;
y = 1447;
},
{
smooth = 0;
x = 143;
y = 1421;
},
{
segmentType = curve;
smooth = 1;
x = 143;
y = 1390;
},
{
smooth = 0;
x = 143;
y = 1359;
},
{
smooth = 0;
x = 153;
y = 1334;
},
{
segmentType = curve;
smooth = 1;
x = 174;
y = 1314;
},
{
smooth = 0;
x = 195;
y = 1294;
},
{
smooth = 0;
x = 220;
y = 1284;
},
{
segmentType = curve;
smooth = 1;
x = 249;
y = 1284;
},
{
smooth = 0;
x = 279;
y = 1284;
},
{
smooth = 0;
x = 305;
y = 1294;
},
{
segmentType = curve;
smooth = 1;
x = 326;
y = 1315;
},
{
smooth = 0;
x = 347;
y = 1336;
},
{
smooth = 0;
x = 358;
y = 1361;
}
);
},
{
points = (
{
segmentType = line;
smooth = 0;
x = 330;
y = 1024;
},
{
segmentType = line;
smooth = 0;
x = 166;
y = 1024;
},
{
segmentType = line;
smooth = 0;
x = 166;
y = 0;
},
{
segmentType = line;
smooth = 0;
x = 330;
y = 0;
}
);
}
);
lib = {
};
name = i;
unicodes = (
);
width = 496;
};
guidelines = {
anchors = (
);
components = (
);
contours = (
);
lib = {
};
name = i;
unicodes = (
);
width = 496;
};
};
};
},
{
color = 5;
glyphname = j;
lastChange = "2020-02-04 19:56:05 +0000";
layers = (
{
background = {
components = (
{
name = jdotless;
}
);
paths = (
{
closed = 1;
nodes = (
"312 1279 OFFCURVE",
"362 1329 OFFCURVE",
"362 1391 CURVE SMOOTH",
"362 1452 OFFCURVE",
"312 1502 OFFCURVE",
"251 1502 CURVE SMOOTH",
"189 1502 OFFCURVE",
"139 1452 OFFCURVE",
"139 1391 CURVE SMOOTH",
"139 1329 OFFCURVE",
"189 1279 OFFCURVE",
"251 1279 CURVE SMOOTH"
);
}
);
};
components = (
{
name = jdotless;
}
);
guideLines = (
{
position = "{0, 0}";
}
);
layerId = "90678D68-BBCC-4545-9AE9-72D37A9CD052";
paths = (
{
closed = 1;
nodes = (
"312 1279 OFFCURVE",
"362 1329 OFFCURVE",
"362 1391 CURVE SMOOTH",
"362 1452 OFFCURVE",
"312 1502 OFFCURVE",
"251 1502 CURVE SMOOTH",
"189 1502 OFFCURVE",
"139 1452 OFFCURVE",
"139 1391 CURVE SMOOTH",
"139 1329 OFFCURVE",
"189 1279 OFFCURVE",
"251 1279 CURVE SMOOTH"
);
}
);
width = 496;
},
{
background = {
components = (
{
name = jdotless;
transform = "{1, 0, 0, 1, 4, 0}";
}
);
paths = (
{
closed = 1;
nodes = (
"254 1290 OFFCURVE",
"284 1320 OFFCURVE",
"284 1361 CURVE SMOOTH",
"284 1401 OFFCURVE",
"254 1431 OFFCURVE",
"214 1431 CURVE SMOOTH",
"173 1431 OFFCURVE",
"143 1401 OFFCURVE",
"143 1361 CURVE SMOOTH",
"143 1320 OFFCURVE",
"173 1290 OFFCURVE",
"214 1290 CURVE SMOOTH"
);
}
);
};
components = (
{
name = jdotless;
transform = "{1, 0, 0, 1, 4, 0}";
}
);
guideLines = (
{
position = "{5, 0}";
}
);
layerId = "4CDE908C-C807-45B0-BC73-FFDEB9F34183";
paths = (
{
closed = 1;
nodes = (
"254 1290 OFFCURVE",
"284 1320 OFFCURVE",
"284 1361 CURVE SMOOTH",
"284 1401 OFFCURVE",
"254 1431 OFFCURVE",
"214 1431 CURVE SMOOTH",
"173 1431 OFFCURVE",
"143 1401 OFFCURVE",
"143 1361 CURVE SMOOTH",
"143 1320 OFFCURVE",
"173 1290 OFFCURVE",
"214 1290 CURVE SMOOTH"
);
}
);
width = 423;
},
{
background = {
components = (
{
name = jdotless;
}
);
paths = (
{
closed = 1;
nodes = (
"388 1189 OFFCURVE",
"461 1263 OFFCURVE",
"461 1361 CURVE SMOOTH",
"461 1457 OFFCURVE",
"388 1531 OFFCURVE",
"291 1531 CURVE SMOOTH",
"193 1531 OFFCURVE",
"120 1457 OFFCURVE",
"120 1361 CURVE SMOOTH",
"120 1263 OFFCURVE",
"193 1189 OFFCURVE",
"291 1189 CURVE SMOOTH"
);
}
);
};
components = (
{
name = jdotless;
}
);
guideLines = (
{
position = "{0, 0}";
}
);
layerId = "7FD739B0-27A2-4428-8CD0-260441CCC696";
paths = (
{
closed = 1;
nodes = (
"388 1189 OFFCURVE",
"461 1263 OFFCURVE",
"461 1361 CURVE SMOOTH",
"461 1457 OFFCURVE",
"388 1531 OFFCURVE",
"291 1531 CURVE SMOOTH",
"193 1531 OFFCURVE",
"120 1457 OFFCURVE",
"120 1361 CURVE SMOOTH",
"120 1263 OFFCURVE",
"193 1189 OFFCURVE",
"291 1189 CURVE SMOOTH"
);
}
);
width = 582;
}
);
unicode = 006A;
userData = {
com.typemytype.robofont.layerData = {
SegoeUI = {
anchors = (
);
components = (
);
contours = (
{
points = (
{
segmentType = curve;
smooth = 1;
x = 358;
y = 1390;
},
{
smooth = 0;
x = 358;
y = 1421;
},
{
smooth = 0;
x = 347;
y = 1447;
},
{
segmentType = curve;
smooth = 1;
x = 326;
y = 1467;
},
{
smooth = 0;
x = 305;
y = 1487;
},
{
smooth = 0;
x = 279;
y = 1497;
},
{
segmentType = curve;
smooth = 1;
x = 249;
y = 1497;
},
{
smooth = 0;
x = 220;
y = 1497;
},
{
smooth = 0;
x = 195;
y = 1487;
},
{
segmentType = curve;
smooth = 1;
x = 174;
y = 1467;
},
{
smooth = 0;
x = 153;
y = 1447;
},
{
smooth = 0;
x = 143;
y = 1421;
},
{
segmentType = curve;
smooth = 1;
x = 143;
y = 1390;
},
{
smooth = 0;
x = 143;
y = 1359;
},
{
smooth = 0;
x = 153;
y = 1334;
},
{
segmentType = curve;
smooth = 1;
x = 174;
y = 1314;
},
{
smooth = 0;
x = 195;
y = 1294;
},
{
smooth = 0;
x = 220;
y = 1284;
},
{
segmentType = curve;
smooth = 1;
x = 249;
y = 1284;
},
{
smooth = 0;
x = 279;
y = 1284;
},
{
smooth = 0;
x = 305;
y = 1294;
},
{
segmentType = curve;
smooth = 1;
x = 326;
y = 1315;
},
{
smooth = 0;
x = 347;
y = 1336;
},
{
smooth = 0;
x = 358;
y = 1361;
}
);
},
{
points = (
{
segmentType = line;
smooth = 0;
x = 330;
y = 1024;
},
{
segmentType = line;
smooth = 0;
x = 166;
y = 1024;
},
{
segmentType = line;
smooth = 1;
x = 166;
y = 16;
},
{
smooth = 0;
x = 166;
y = "-103";
},
{
smooth = 0;
x = 147;
y = "-193";
},
{
segmentType = curve;
smooth = 1;
x = 110;
y = "-253";
},
{
smooth = 0;
x = 73;
y = "-313";
},
{
smooth = 0;
x = 17;
y = "-343";
},
{
segmentType = curve;
smooth = 1;
x = "-58";
y = "-343";
},
{
smooth = 0;
x = "-80";
y = "-343";
},
{
smooth = 0;
x = "-103";
y = "-339";
},
{
segmentType = curve;
smooth = 1;
x = "-126";
y = "-332";
},
{
smooth = 0;
x = "-149";
y = "-325";
},
{
smooth = 0;
x = "-173";
y = "-314";
},
{
segmentType = curve;
smooth = 0;
x = "-198";
y = "-299";
},
{
segmentType = line;
smooth = 0;
x = "-198";
y = "-452";
},
{
smooth = 0;
x = "-176";
y = "-463";
},
{
smooth = 0;
x = "-154";
y = "-471";
},
{
segmentType = curve;
smooth = 1;
x = "-131";
y = "-476";
},
{
smooth = 0;
x = "-108";
y = "-481";
},
{
smooth = 0;
x = "-85";
y = "-484";
},
{
segmentType = curve;
smooth = 1;
x = "-62";
y = "-484";
},
{
smooth = 0;
x = 64;
y = "-484";
},
{
smooth = 0;
x = 161;
y = "-438";
},
{
segmentType = curve;
smooth = 1;
x = 229;
y = "-347";
},
{
smooth = 0;
x = 297;
y = "-256";
},
{
smooth = 0;
x = 331;
y = "-126";
},
{
segmentType = curve;
smooth = 1;
x = 331;
y = 42;
}
);
}
);
lib = {
};
name = j;
unicodes = (
);
width = 496;
};
guidelines = {
anchors = (
);
components = (
);
contours = (
);
lib = {
};
name = j;
unicodes = (
);
width = 496;
};
};
};
},
{
color = 5;
glyphname = k;
lastChange = "2020-02-04 20:36:54 +0000";
layers = (
{
anchors = (
{
name = bottom;
position = "{566, 0}";
},
{
name = top;
position = "{508, 974}";
}
);
background = {
anchors = (
{
name = bottom;
position = "{508, 0}";
},
{
name = top;
position = "{508, 974}";
}
);
paths = (
{
closed = 1;
nodes = (
"948 974 LINE",
"783 1000 LINE",
"399 594 LINE SMOOTH",
"347 540 OFFCURVE",
"306 461 OFFCURVE",
"284 427 CURVE",
"284 336 LINE",
"303 262 LINE"
);
},
{
closed = 1;
nodes = (
"329 0 LINE",
"329 1516 LINE",
"165 1516 LINE",
"165 0 LINE"
);
},
{
closed = 1;
nodes = (
"991 -2 LINE",
"616 624 LINE",
"505 507 LINE",
"809 -2 LINE"
);
}
);
};
layerId = "90678D68-BBCC-4545-9AE9-72D37A9CD052";
paths = (
{
closed = 1;
nodes = (
"948 974 LINE",
"783 1000 LINE",
"399 594 LINE SMOOTH",
"347 540 OFFCURVE",
"306 461 OFFCURVE",
"284 427 CURVE",
"303 262 LINE"
);
},
{
closed = 1;
nodes = (
"329 0 LINE",
"329 1516 LINE",
"165 1516 LINE",
"165 0 LINE"
);
},
{
closed = 1;
nodes = (
"991 -2 LINE",
"616 624 LINE",
"505 507 LINE",
"809 -2 LINE"
);
}
);
width = 1017;
},
{
anchors = (
{
name = bottom;
position = "{525, 0}";
},
{
name = top;
position = "{455, 974}";
}
);
background = {
anchors = (
{
name = bottom;
position = "{455, 0}";
},
{
name = top;
position = "{455, 974}";
}
);
paths = (
{
closed = 1;
nodes = (
"857 974 LINE",
"752 1000 LINE",
"255 430 LINE SMOOTH",
"211 379 OFFCURVE",
"255 411 OFFCURVE",
"223 377 CURVE",
"223 356 LINE",
"242 292 LINE"
);
},
{
closed = 1;
nodes = (
"258 0 LINE",
"258 1516 LINE",
"164 1516 LINE",
"164 0 LINE"
);
},
{
closed = 1;
nodes = (
"900 -2 LINE",
"514 613 LINE",
"449 534 LINE",
"788 -2 LINE"
);
}
);
};
layerId = "4CDE908C-C807-45B0-BC73-FFDEB9F34183";
paths = (
{
closed = 1;
nodes = (
"857 974 LINE",
"752 1000 LINE",
"239 412 LINE",
"231 396 OFFCURVE",
"222 380 OFFCURVE",
"214 364 CURVE",
"242 292 LINE"
);
},
{
closed = 1;
nodes = (
"258 0 LINE",
"258 1516 LINE",
"164 1516 LINE",
"164 0 LINE"
);
},
{
closed = 1;
nodes = (
"900 -2 LINE",
"514 613 LINE",
"449 534 LINE",
"788 -2 LINE"
);
}
);
width = 909;
},
{
anchors = (
{
name = bottom;
position = "{616, 0}";
},
{
name = top;
position = "{573, 974}";
}
);
background = {
anchors = (
{
name = bottom;
position = "{573, 0}";
},
{
name = top;
position = "{573, 974}";
}
);
paths = (
{
closed = 1;
nodes = (
"1119 974 LINE",
"804 1000 LINE",
"562 757 LINE SMOOTH",
"468 663 OFFCURVE",
"412 422 OFFCURVE",
"392 369 CURVE",
"384 228 LINE",
"403 174 LINE"
);
},
{
closed = 1;
nodes = (
"450 0 LINE",
"450 1516 LINE",
"133 1516 LINE",
"133 0 LINE"
);
},
{
closed = 1;
nodes = (
"1142 -2 LINE",
"767 624 LINE",
"542 439 LINE",
"810 -2 LINE"
);
}
);
};
layerId = "7FD739B0-27A2-4428-8CD0-260441CCC696";
paths = (
{
closed = 1;
nodes = (
"1119 974 LINE",
"804 1000 LINE",
"562 757 LINE SMOOTH",
"468 663 OFFCURVE",
"412 422 OFFCURVE",
"392 369 CURVE",
"403 174 LINE"
);
},
{
closed = 1;
nodes = (
"450 0 LINE",
"450 1516 LINE",
"133 1516 LINE",
"133 0 LINE"
);
},
{
closed = 1;
nodes = (
"1142 -2 LINE",
"767 624 LINE",
"542 439 LINE",
"810 -2 LINE"
);
}
);
width = 1145;
}
);
unicode = 006B;
userData = {
com.typemytype.robofont.image = {
brightness = 0;
color = (
0,
0,
1,
0
);
contrast = 1;
path = "/var/folders/wx/r1w7d8f1373_lvr_cqc1lb000000gn/T/tmpG7R4zg";
saturation = 1;
sharpness = 0;
transform = (
0,
0,
0,
0,
"-132.3176691886469",
"-193.9260042636793"
);
};
com.typemytype.robofont.layerData = {
SegoeUI = {
anchors = (
);
components = (
);
contours = (
{
points = (
{
segmentType = line;
smooth = 0;
x = 504;
y = 530;
},
{
segmentType = line;
smooth = 0;
x = 979;
y = 1024;
},
{
segmentType = line;
smooth = 0;
x = 764;
y = 1024;
},
{
segmentType = line;
smooth = 0;
x = 334;
y = 555;
},
{
segmentType = line;
smooth = 0;
x = 330;
y = 555;
},
{
segmentType = line;
smooth = 0;
x = 330;
y = 1516;
},
{
segmentType = line;
smooth = 0;
x = 166;
y = 1516;
},
{
segmentType = line;
smooth = 0;
x = 166;
y = 0;
},
{
segmentType = line;
smooth = 0;
x = 330;
y = 0;
},
{
segmentType = line;
smooth = 0;
x = 330;
y = 492;
},
{
segmentType = line;
smooth = 0;
x = 334;
y = 492;
},
{
segmentType = line;
smooth = 0;
x = 786;
y = 0;
},
{
segmentType = line;
smooth = 0;
x = 1016;
y = 0;
}
);
}
);
lib = {
};
name = k;
unicodes = (
);
width = 1018;
};
guidelines = {
anchors = (
);
components = (
);
contours = (
);
lib = {
};
name = k;
unicodes = (
);
width = 1018;
};
};
};
},
{
color = 5;
glyphname = l;
lastChange = "2020-02-11 22:17:13 +0000";
layers = (
{
anchors = (
{
name = bottom;
position = "{247, 0}";
},
{
name = center;
position = "{534, 716}";
},
{
name = top;
position = "{247, 1434}";
},
{
name = topright;
position = "{462, 1521}";
}
);
background = {
anchors = (
{
name = bottom;
position = "{247, 0}";
},
{
name = center;
position = "{247, 487}";
},
{
name = top;
position = "{249, 1364}";
},
{
name = topright;
position = "{475, 1031}";
}
);
paths = (
{
closed = 1;
nodes = (
"329 0 LINE",
"329 1516 LINE",
"165 1516 LINE",
"165 0 LINE"
);
}
);
};
layerId = "90678D68-BBCC-4545-9AE9-72D37A9CD052";
paths = (
{
closed = 1;
nodes = (
"329 0 LINE",
"329 1516 LINE",
"165 1516 LINE",
"165 0 LINE"
);
}
);
width = 494;
},
{
anchors = (
{
name = bottom;
position = "{210, 0}";
},
{
name = center;
position = "{454, 709}";
},
{
name = top;
position = "{210, 1434}";
},
{
name = topright;
position = "{390, 1524}";
}
);
background = {
anchors = (
{
name = bottom;
position = "{210, 0}";
},
{
name = center;
position = "{210, 487}";
},
{
name = top;
position = "{210, 1394}";
},
{
name = topright;
position = "{400, 1057}";
}
);
paths = (
{
closed = 1;
nodes = (
"256 0 LINE",
"256 1516 LINE",
"164 1516 LINE",
"164 0 LINE"
);
}
);
};
layerId = "4CDE908C-C807-45B0-BC73-FFDEB9F34183";
paths = (
{
closed = 1;
nodes = (
"256 0 LINE",
"256 1516 LINE",
"164 1516 LINE",
"164 0 LINE"
);
}
);
width = 420;
},
{
anchors = (
{
name = bottom;
position = "{291, 0}";
},
{
name = center;
position = "{727, 750}";
},
{
name = top;
position = "{291, 1434}";
},
{
name = topright;
position = "{532, 1491}";
}
);
background = {
anchors = (
{
name = bottom;
position = "{291, 0}";
},
{
name = center;
position = "{291, 487}";
},
{
name = top;
position = "{295, 1394}";
},
{
name = topright;
position = "{662, 1022}";
}
);
paths = (
{
closed = 1;
nodes = (
"449 0 LINE",
"449 1516 LINE",
"133 1516 LINE",
"133 0 LINE"
);
}
);
};
layerId = "7FD739B0-27A2-4428-8CD0-260441CCC696";
paths = (
{
closed = 1;
nodes = (
"449 0 LINE",
"449 1516 LINE",
"133 1516 LINE",
"133 0 LINE"
);
}
);
width = 582;
}
);
unicode = 006C;
userData = {
com.typemytype.robofont.layerData = {
SegoeUI = {
anchors = (
);
components = (
);
contours = (
{
points = (
{
segmentType = line;
smooth = 0;
x = 330;
y = 1516;
},
{
segmentType = line;
smooth = 0;
x = 166;
y = 1516;
},
{
segmentType = line;
smooth = 0;
x = 166;
y = 0;
},
{
segmentType = line;
smooth = 0;
x = 330;
y = 0;
}
);
}
);
lib = {
};
name = l;
unicodes = (
);
width = 496;
};
guidelines = {
anchors = (
);
components = (
);
contours = (
);
lib = {
};
name = l;
unicodes = (
);
width = 496;
};
};
};
},
{
color = 5;
glyphname = m;
lastChange = "2020-02-04 22:56:30 +0000";
layers = (
{
anchors = (
{
name = bottom;
position = "{882, 0}";
},
{
name = top;
position = "{882, 974}";
}
);
background = {
anchors = (
{
name = bottom;
position = "{882, 0}";
},
{
name = top;
position = "{882, 974}";
}
);
paths = (
{
closed = 1;
nodes = (
"1619 0 LINE",
"1619 610 LINE",
"1618 833 OFFCURVE",
"1502 1000 OFFCURVE",
"1260 1000 CURVE",
"1097 1000 OFFCURVE",
"977 926 OFFCURVE",
"893 834 CURVE",
"913 681 LINE",
"982 776 OFFCURVE",
"1099 843 OFFCURVE",
"1239 843 CURVE",
"1403 843 OFFCURVE",
"1453 710 OFFCURVE",
"1455 564 CURVE",
"1455 0 LINE"
);
},
{
closed = 1;
nodes = (
"329 0 LINE",
"331 839 LINE",
"288 974 LINE",
"167 974 LINE",
"165 0 LINE"
);
},
{
closed = 1;
nodes = (
"976 0 LINE",
"976 610 LINE",
"975 833 OFFCURVE",
"859 1000 OFFCURVE",
"617 1000 CURVE",
"463 1000 OFFCURVE",
"349 938 OFFCURVE",
"270 814 CURVE",
"270 661 LINE",
"339 767 OFFCURVE",
"456 843 OFFCURVE",
"596 843 CURVE",
"760 843 OFFCURVE",
"810 710 OFFCURVE",
"812 564 CURVE",
"812 0 LINE"
);
}
);
};
guideLines = (
{
position = "{671, 783}";
}
);
layerId = "90678D68-BBCC-4545-9AE9-72D37A9CD052";
paths = (
{
closed = 1;
nodes = (
"1619 0 LINE",
"1619 610 LINE SMOOTH",
"1618 833 OFFCURVE",
"1502 1000 OFFCURVE",
"1260 1000 CURVE SMOOTH",
"1097 1000 OFFCURVE",
"977 926 OFFCURVE",
"893 834 CURVE",
"913 681 LINE",
"982 776 OFFCURVE",
"1099 843 OFFCURVE",
"1239 843 CURVE SMOOTH",
"1403 843 OFFCURVE",
"1453 710 OFFCURVE",
"1455 564 CURVE SMOOTH",
"1455 0 LINE"
);
},
{
closed = 1;
nodes = (
"329 0 LINE",
"331 839 LINE",
"288 974 LINE",
"167 974 LINE",
"165 0 LINE"
);
},
{
closed = 1;
nodes = (
"976 0 LINE",
"976 610 LINE SMOOTH",
"975 833 OFFCURVE",
"859 1000 OFFCURVE",
"617 1000 CURVE SMOOTH",
"463 1000 OFFCURVE",
"349 938 OFFCURVE",
"270 814 CURVE",
"270 661 LINE",
"339 767 OFFCURVE",
"456 843 OFFCURVE",
"596 843 CURVE SMOOTH",
"760 843 OFFCURVE",
"810 710 OFFCURVE",
"812 564 CURVE SMOOTH",
"812 0 LINE"
);
}
);
width = 1763;
},
{
anchors = (
{
name = bottom;
position = "{842, 0}";
},
{
name = top;
position = "{842, 974}";
}
);
background = {
anchors = (
{
name = bottom;
position = "{842, 0}";
},
{
name = top;
position = "{842, 974}";
}
);
paths = (
{
closed = 1;
nodes = (
"1540 0 LINE",
"1540 610 LINE",
"1539 833 OFFCURVE",
"1423 1000 OFFCURVE",
"1181 1000 CURVE",
"1065 1000 OFFCURVE",
"935 926 OFFCURVE",
"854 814 CURVE",
"884 721 LINE",
"944 837 OFFCURVE",
"1054 913 OFFCURVE",
"1160 913 CURVE",
"1377 913 OFFCURVE",
"1443 746 OFFCURVE",
"1446 564 CURVE",
"1446 0 LINE"
);
},
{
closed = 1;
nodes = (
"258 0 LINE",
"260 839 LINE",
"227 974 LINE",
"166 974 LINE",
"164 0 LINE"
);
},
{
closed = 1;
nodes = (
"902 0 LINE",
"902 610 LINE",
"901 833 OFFCURVE",
"792 1000 OFFCURVE",
"566 1000 CURVE",
"440 1000 OFFCURVE",
"304 926 OFFCURVE",
"239 814 CURVE",
"249 711 LINE",
"314 839 OFFCURVE",
"432 923 OFFCURVE",
"545 923 CURVE",
"745 923 OFFCURVE",
"805 792 OFFCURVE",
"808 564 CURVE",
"808 0 LINE"
);
}
);
};
guideLines = (
{
position = "{670, 783}";
}
);
layerId = "4CDE908C-C807-45B0-BC73-FFDEB9F34183";
paths = (
{
closed = 1;
nodes = (
"1540 0 LINE",
"1540 610 LINE SMOOTH",
"1539 833 OFFCURVE",
"1423 1000 OFFCURVE",
"1181 1000 CURVE SMOOTH",
"1065 1000 OFFCURVE",
"935 926 OFFCURVE",
"854 814 CURVE",
"884 721 LINE",
"944 837 OFFCURVE",
"1054 913 OFFCURVE",
"1160 913 CURVE SMOOTH",
"1377 913 OFFCURVE",
"1443 746 OFFCURVE",
"1446 564 CURVE SMOOTH",
"1446 0 LINE"
);
},
{
closed = 1;
nodes = (
"258 0 LINE",
"260 839 LINE",
"227 974 LINE",
"166 974 LINE",
"164 0 LINE"
);
},
{
closed = 1;
nodes = (
"902 0 LINE",
"902 610 LINE SMOOTH",
"901 833 OFFCURVE",
"792 1000 OFFCURVE",
"566 1000 CURVE SMOOTH",
"440 1000 OFFCURVE",
"304 926 OFFCURVE",
"239 814 CURVE",
"249 711 LINE",
"314 839 OFFCURVE",
"432 923 OFFCURVE",
"545 923 CURVE SMOOTH",
"745 923 OFFCURVE",
"805 792 OFFCURVE",
"808 564 CURVE SMOOTH",
"808 0 LINE"
);
}
);
width = 1684;
},
{
anchors = (
{
name = bottom;
position = "{938, 0}";
},
{
name = top;
position = "{938, 974}";
}
);
background = {
anchors = (
{
name = bottom;
position = "{938, 0}";
},
{
name = top;
position = "{938, 974}";
}
);
paths = (
{
closed = 1;
nodes = (
"1759 0 LINE",
"1759 610 LINE",
"1758 833 OFFCURVE",
"1635 1000 OFFCURVE",
"1380 1000 CURVE",
"1204 1000 OFFCURVE",
"1090 939 OFFCURVE",
"983 864 CURVE",
"1033 651 LINE",
"1103 721 OFFCURVE",
"1179 753 OFFCURVE",
"1289 753 CURVE",
"1413 753 OFFCURVE",
"1451 663 OFFCURVE",
"1445 564 CURVE",
"1445 0 LINE"
);
},
{
closed = 1;
nodes = (
"449 0 LINE",
"451 839 LINE",
"408 974 LINE",
"135 974 LINE",
"133 0 LINE"
);
},
{
closed = 1;
nodes = (
"1103 0 LINE",
"1103 610 LINE",
"1102 833 OFFCURVE",
"987 1000 OFFCURVE",
"747 1000 CURVE",
"589 1000 OFFCURVE",
"514 938 OFFCURVE",
"390 814 CURVE",
"390 571 LINE",
"472 697 OFFCURVE",
"530 753 OFFCURVE",
"636 753 CURVE",
"752 753 OFFCURVE",
"788 663 OFFCURVE",
"789 564 CURVE",
"789 0 LINE"
);
}
);
};
guideLines = (
{
position = "{671, 783}";
}
);
layerId = "7FD739B0-27A2-4428-8CD0-260441CCC696";
paths = (
{
closed = 1;
nodes = (
"1759 0 LINE",
"1759 610 LINE SMOOTH",
"1758 833 OFFCURVE",
"1635 1000 OFFCURVE",
"1380 1000 CURVE SMOOTH",
"1204 1000 OFFCURVE",
"1090 939 OFFCURVE",
"983 864 CURVE",
"1033 651 LINE",
"1103 721 OFFCURVE",
"1179 753 OFFCURVE",
"1289 753 CURVE SMOOTH",
"1413 753 OFFCURVE",
"1451 663 OFFCURVE",
"1445 564 CURVE SMOOTH",
"1445 0 LINE"
);
},
{
closed = 1;
nodes = (
"449 0 LINE",
"451 839 LINE",
"408 974 LINE",
"135 974 LINE",
"133 0 LINE"
);
},
{
closed = 1;
nodes = (
"1103 0 LINE",
"1103 610 LINE SMOOTH",
"1102 833 OFFCURVE",
"987 1000 OFFCURVE",
"747 1000 CURVE SMOOTH",
"589 1000 OFFCURVE",
"514 938 OFFCURVE",
"390 814 CURVE",
"390 571 LINE",
"472 697 OFFCURVE",
"530 753 OFFCURVE",
"636 753 CURVE SMOOTH",
"752 753 OFFCURVE",
"788 663 OFFCURVE",
"789 564 CURVE SMOOTH",
"789 0 LINE"
);
}
);
width = 1882;
}
);
unicode = 006D;
userData = {
com.typemytype.robofont.layerData = {
SegoeUI = {
anchors = (
);
components = (
);
contours = (
{
points = (
{
segmentType = line;
smooth = 1;
x = 1620;
y = 631;
},
{
smooth = 0;
x = 1620;
y = 770;
},
{
smooth = 0;
x = 1592;
y = 874;
},
{
segmentType = curve;
smooth = 1;
x = 1536;
y = 943;
},
{
smooth = 0;
x = 1480;
y = 1012;
},
{
smooth = 0;
x = 1395;
y = 1047;
},
{
segmentType = curve;
smooth = 1;
x = 1282;
y = 1047;
},
{
smooth = 0;
x = 1207;
y = 1047;
},
{
smooth = 0;
x = 1141;
y = 1029;
},
{
segmentType = curve;
smooth = 1;
x = 1084;
y = 994;
},
{
smooth = 0;
x = 1027;
y = 959;
},
{
smooth = 0;
x = 980;
y = 906;
},
{
segmentType = curve;
smooth = 0;
x = 942;
y = 835;
},
{
smooth = 0;
x = 923;
y = 898;
},
{
smooth = 0;
x = 887;
y = 949;
},
{
segmentType = curve;
smooth = 1;
x = 835;
y = 988;
},
{
smooth = 0;
x = 783;
y = 1027;
},
{
smooth = 0;
x = 722;
y = 1047;
},
{
segmentType = curve;
smooth = 1;
x = 652;
y = 1047;
},
{
smooth = 0;
x = 583;
y = 1047;
},
{
smooth = 0;
x = 522;
y = 1031;
},
{
segmentType = curve;
smooth = 1;
x = 469;
y = 1000;
},
{
smooth = 0;
x = 416;
y = 969;
},
{
smooth = 0;
x = 371;
y = 922;
},
{
segmentType = curve;
smooth = 0;
x = 334;
y = 860;
},
{
segmentType = line;
smooth = 0;
x = 330;
y = 860;
},
{
segmentType = line;
smooth = 0;
x = 330;
y = 1022;
},
{
segmentType = line;
smooth = 0;
x = 166;
y = 1022;
},
{
segmentType = line;
smooth = 0;
x = 166;
y = "-2";
},
{
segmentType = line;
smooth = 0;
x = 330;
y = "-2";
},
{
segmentType = line;
smooth = 1;
x = 330;
y = 582;
},
{
smooth = 0;
x = 330;
y = 679;
},
{
smooth = 0;
x = 353;
y = 758;
},
{
segmentType = curve;
smooth = 1;
x = 400;
y = 818;
},
{
smooth = 0;
x = 447;
y = 878;
},
{
smooth = 0;
x = 506;
y = 908;
},
{
segmentType = curve;
smooth = 1;
x = 578;
y = 908;
},
{
smooth = 0;
x = 656;
y = 908;
},
{
smooth = 0;
x = 714;
y = 883;
},
{
segmentType = curve;
smooth = 1;
x = 753;
y = 833;
},
{
smooth = 0;
x = 792;
y = 783;
},
{
smooth = 0;
x = 811;
y = 707;
},
{
segmentType = curve;
smooth = 1;
x = 811;
y = 606;
},
{
segmentType = line;
smooth = 0;
x = 811;
y = "-2";
},
{
segmentType = line;
smooth = 0;
x = 975;
y = "-2";
},
{
segmentType = line;
smooth = 1;
x = 975;
y = 582;
},
{
smooth = 0;
x = 975;
y = 671;
},
{
smooth = 0;
x = 1000;
y = 748;
},
{
segmentType = curve;
smooth = 1;
x = 1049;
y = 812;
},
{
smooth = 0;
x = 1098;
y = 876;
},
{
smooth = 0;
x = 1158;
y = 908;
},
{
segmentType = curve;
smooth = 1;
x = 1228;
y = 908;
},
{
smooth = 0;
x = 1311;
y = 908;
},
{
smooth = 0;
x = 1370;
y = 883;
},
{
segmentType = curve;
smooth = 1;
x = 1405;
y = 832;
},
{
smooth = 0;
x = 1440;
y = 781;
},
{
smooth = 0;
x = 1458;
y = 699;
},
{
segmentType = curve;
smooth = 1;
x = 1458;
y = 586;
},
{
segmentType = line;
smooth = 0;
x = 1458;
y = "-2";
},
{
segmentType = line;
smooth = 0;
x = 1622;
y = "-2";
}
);
}
);
lib = {
};
name = m;
unicodes = (
);
width = 1764;
};
guidelines = {
anchors = (
);
components = (
);
contours = (
{
points = (
{
segmentType = line;
smooth = 0;
x = 1621;
y = 657;
},
{
smooth = 0;
x = 1621;
y = 880;
},
{
smooth = 0;
x = 1496;
y = 1047;
},
{
segmentType = curve;
smooth = 0;
x = 1273;
y = 1047;
},
{
smooth = 0;
x = 1142;
y = 1047;
},
{
smooth = 0;
x = 1047;
y = 975;
},
{
segmentType = curve;
smooth = 0;
x = 935;
y = 907;
},
{
segmentType = line;
smooth = 0;
x = 935;
y = 734;
},
{
smooth = 0;
x = 1048;
y = 812;
},
{
smooth = 0;
x = 1137;
y = 887;
},
{
segmentType = curve;
smooth = 0;
x = 1273;
y = 887;
},
{
smooth = 0;
x = 1418;
y = 887;
},
{
smooth = 0;
x = 1457;
y = 755;
},
{
segmentType = curve;
smooth = 0;
x = 1457;
y = 610;
},
{
segmentType = line;
smooth = 0;
x = 1457;
y = 0;
},
{
segmentType = line;
smooth = 0;
x = 1621;
y = 0;
}
);
}
);
lib = {
};
name = m;
unicodes = (
);
width = 1764;
};
};
};
},
